%TF.GenerationSoftware,KiCad,Pcbnew,9.0.2*%
%TF.CreationDate,2025-06-10T04:14:27+06:00*%
%TF.ProjectId,project_1_led torch,70726f6a-6563-4745-9f31-5f6c65642074,1*%
%TF.SameCoordinates,Original*%
%TF.FileFunction,Legend,Top*%
%TF.FilePolarity,Positive*%
%FSLAX46Y46*%
G04 Gerber Fmt 4.6, Leading zero omitted, Abs format (unit mm)*
G04 Created by KiCad (PCBNEW 9.0.2) date 2025-06-10 04:14:27*
%MOMM*%
%LPD*%
G01*
G04 APERTURE LIST*
%ADD10C,0.100000*%
%ADD11C,0.150000*%
%ADD12C,0.120000*%
G04 APERTURE END LIST*
D10*
X63196115Y-92008533D02*
X62434211Y-92008533D01*
X62303884Y-99991466D02*
X63065789Y-99991466D01*
X62684836Y-100372419D02*
X62684836Y-99610514D01*
D11*
X109214285Y-88311009D02*
X109357142Y-88358628D01*
X109357142Y-88358628D02*
X109404761Y-88406247D01*
X109404761Y-88406247D02*
X109452380Y-88501485D01*
X109452380Y-88501485D02*
X109452380Y-88644342D01*
X109452380Y-88644342D02*
X109404761Y-88739580D01*
X109404761Y-88739580D02*
X109357142Y-88787200D01*
X109357142Y-88787200D02*
X109261904Y-88834819D01*
X109261904Y-88834819D02*
X108880952Y-88834819D01*
X108880952Y-88834819D02*
X108880952Y-87834819D01*
X108880952Y-87834819D02*
X109214285Y-87834819D01*
X109214285Y-87834819D02*
X109309523Y-87882438D01*
X109309523Y-87882438D02*
X109357142Y-87930057D01*
X109357142Y-87930057D02*
X109404761Y-88025295D01*
X109404761Y-88025295D02*
X109404761Y-88120533D01*
X109404761Y-88120533D02*
X109357142Y-88215771D01*
X109357142Y-88215771D02*
X109309523Y-88263390D01*
X109309523Y-88263390D02*
X109214285Y-88311009D01*
X109214285Y-88311009D02*
X108880952Y-88311009D01*
X109738095Y-87834819D02*
X110309523Y-87834819D01*
X110023809Y-88834819D02*
X110023809Y-87834819D01*
X111166666Y-88834819D02*
X110595238Y-88834819D01*
X110880952Y-88834819D02*
X110880952Y-87834819D01*
X110880952Y-87834819D02*
X110785714Y-87977676D01*
X110785714Y-87977676D02*
X110690476Y-88072914D01*
X110690476Y-88072914D02*
X110595238Y-88120533D01*
X105642856Y-104931009D02*
X105785713Y-104978628D01*
X105785713Y-104978628D02*
X105833332Y-105026247D01*
X105833332Y-105026247D02*
X105880951Y-105121485D01*
X105880951Y-105121485D02*
X105880951Y-105264342D01*
X105880951Y-105264342D02*
X105833332Y-105359580D01*
X105833332Y-105359580D02*
X105785713Y-105407200D01*
X105785713Y-105407200D02*
X105690475Y-105454819D01*
X105690475Y-105454819D02*
X105309523Y-105454819D01*
X105309523Y-105454819D02*
X105309523Y-104454819D01*
X105309523Y-104454819D02*
X105642856Y-104454819D01*
X105642856Y-104454819D02*
X105738094Y-104502438D01*
X105738094Y-104502438D02*
X105785713Y-104550057D01*
X105785713Y-104550057D02*
X105833332Y-104645295D01*
X105833332Y-104645295D02*
X105833332Y-104740533D01*
X105833332Y-104740533D02*
X105785713Y-104835771D01*
X105785713Y-104835771D02*
X105738094Y-104883390D01*
X105738094Y-104883390D02*
X105642856Y-104931009D01*
X105642856Y-104931009D02*
X105309523Y-104931009D01*
X106738094Y-105454819D02*
X106738094Y-104931009D01*
X106738094Y-104931009D02*
X106690475Y-104835771D01*
X106690475Y-104835771D02*
X106595237Y-104788152D01*
X106595237Y-104788152D02*
X106404761Y-104788152D01*
X106404761Y-104788152D02*
X106309523Y-104835771D01*
X106738094Y-105407200D02*
X106642856Y-105454819D01*
X106642856Y-105454819D02*
X106404761Y-105454819D01*
X106404761Y-105454819D02*
X106309523Y-105407200D01*
X106309523Y-105407200D02*
X106261904Y-105311961D01*
X106261904Y-105311961D02*
X106261904Y-105216723D01*
X106261904Y-105216723D02*
X106309523Y-105121485D01*
X106309523Y-105121485D02*
X106404761Y-105073866D01*
X106404761Y-105073866D02*
X106642856Y-105073866D01*
X106642856Y-105073866D02*
X106738094Y-105026247D01*
X107071428Y-104788152D02*
X107452380Y-104788152D01*
X107214285Y-104454819D02*
X107214285Y-105311961D01*
X107214285Y-105311961D02*
X107261904Y-105407200D01*
X107261904Y-105407200D02*
X107357142Y-105454819D01*
X107357142Y-105454819D02*
X107452380Y-105454819D01*
X107642857Y-104788152D02*
X108023809Y-104788152D01*
X107785714Y-104454819D02*
X107785714Y-105311961D01*
X107785714Y-105311961D02*
X107833333Y-105407200D01*
X107833333Y-105407200D02*
X107928571Y-105454819D01*
X107928571Y-105454819D02*
X108023809Y-105454819D01*
X108738095Y-105407200D02*
X108642857Y-105454819D01*
X108642857Y-105454819D02*
X108452381Y-105454819D01*
X108452381Y-105454819D02*
X108357143Y-105407200D01*
X108357143Y-105407200D02*
X108309524Y-105311961D01*
X108309524Y-105311961D02*
X108309524Y-104931009D01*
X108309524Y-104931009D02*
X108357143Y-104835771D01*
X108357143Y-104835771D02*
X108452381Y-104788152D01*
X108452381Y-104788152D02*
X108642857Y-104788152D01*
X108642857Y-104788152D02*
X108738095Y-104835771D01*
X108738095Y-104835771D02*
X108785714Y-104931009D01*
X108785714Y-104931009D02*
X108785714Y-105026247D01*
X108785714Y-105026247D02*
X108309524Y-105121485D01*
X109214286Y-105454819D02*
X109214286Y-104788152D01*
X109214286Y-104978628D02*
X109261905Y-104883390D01*
X109261905Y-104883390D02*
X109309524Y-104835771D01*
X109309524Y-104835771D02*
X109404762Y-104788152D01*
X109404762Y-104788152D02*
X109500000Y-104788152D01*
X109738096Y-104788152D02*
X109976191Y-105454819D01*
X110214286Y-104788152D02*
X109976191Y-105454819D01*
X109976191Y-105454819D02*
X109880953Y-105692914D01*
X109880953Y-105692914D02*
X109833334Y-105740533D01*
X109833334Y-105740533D02*
X109738096Y-105788152D01*
X111309525Y-104550057D02*
X111357144Y-104502438D01*
X111357144Y-104502438D02*
X111452382Y-104454819D01*
X111452382Y-104454819D02*
X111690477Y-104454819D01*
X111690477Y-104454819D02*
X111785715Y-104502438D01*
X111785715Y-104502438D02*
X111833334Y-104550057D01*
X111833334Y-104550057D02*
X111880953Y-104645295D01*
X111880953Y-104645295D02*
X111880953Y-104740533D01*
X111880953Y-104740533D02*
X111833334Y-104883390D01*
X111833334Y-104883390D02*
X111261906Y-105454819D01*
X111261906Y-105454819D02*
X111880953Y-105454819D01*
X112500001Y-104454819D02*
X112595239Y-104454819D01*
X112595239Y-104454819D02*
X112690477Y-104502438D01*
X112690477Y-104502438D02*
X112738096Y-104550057D01*
X112738096Y-104550057D02*
X112785715Y-104645295D01*
X112785715Y-104645295D02*
X112833334Y-104835771D01*
X112833334Y-104835771D02*
X112833334Y-105073866D01*
X112833334Y-105073866D02*
X112785715Y-105264342D01*
X112785715Y-105264342D02*
X112738096Y-105359580D01*
X112738096Y-105359580D02*
X112690477Y-105407200D01*
X112690477Y-105407200D02*
X112595239Y-105454819D01*
X112595239Y-105454819D02*
X112500001Y-105454819D01*
X112500001Y-105454819D02*
X112404763Y-105407200D01*
X112404763Y-105407200D02*
X112357144Y-105359580D01*
X112357144Y-105359580D02*
X112309525Y-105264342D01*
X112309525Y-105264342D02*
X112261906Y-105073866D01*
X112261906Y-105073866D02*
X112261906Y-104835771D01*
X112261906Y-104835771D02*
X112309525Y-104645295D01*
X112309525Y-104645295D02*
X112357144Y-104550057D01*
X112357144Y-104550057D02*
X112404763Y-104502438D01*
X112404763Y-104502438D02*
X112500001Y-104454819D01*
X113166668Y-104454819D02*
X113785715Y-104454819D01*
X113785715Y-104454819D02*
X113452382Y-104835771D01*
X113452382Y-104835771D02*
X113595239Y-104835771D01*
X113595239Y-104835771D02*
X113690477Y-104883390D01*
X113690477Y-104883390D02*
X113738096Y-104931009D01*
X113738096Y-104931009D02*
X113785715Y-105026247D01*
X113785715Y-105026247D02*
X113785715Y-105264342D01*
X113785715Y-105264342D02*
X113738096Y-105359580D01*
X113738096Y-105359580D02*
X113690477Y-105407200D01*
X113690477Y-105407200D02*
X113595239Y-105454819D01*
X113595239Y-105454819D02*
X113309525Y-105454819D01*
X113309525Y-105454819D02*
X113214287Y-105407200D01*
X113214287Y-105407200D02*
X113166668Y-105359580D01*
X114166668Y-104550057D02*
X114214287Y-104502438D01*
X114214287Y-104502438D02*
X114309525Y-104454819D01*
X114309525Y-104454819D02*
X114547620Y-104454819D01*
X114547620Y-104454819D02*
X114642858Y-104502438D01*
X114642858Y-104502438D02*
X114690477Y-104550057D01*
X114690477Y-104550057D02*
X114738096Y-104645295D01*
X114738096Y-104645295D02*
X114738096Y-104740533D01*
X114738096Y-104740533D02*
X114690477Y-104883390D01*
X114690477Y-104883390D02*
X114119049Y-105454819D01*
X114119049Y-105454819D02*
X114738096Y-105454819D01*
X64761905Y-92454819D02*
X64761905Y-91454819D01*
X64761905Y-91454819D02*
X65000000Y-91454819D01*
X65000000Y-91454819D02*
X65142857Y-91502438D01*
X65142857Y-91502438D02*
X65238095Y-91597676D01*
X65238095Y-91597676D02*
X65285714Y-91692914D01*
X65285714Y-91692914D02*
X65333333Y-91883390D01*
X65333333Y-91883390D02*
X65333333Y-92026247D01*
X65333333Y-92026247D02*
X65285714Y-92216723D01*
X65285714Y-92216723D02*
X65238095Y-92311961D01*
X65238095Y-92311961D02*
X65142857Y-92407200D01*
X65142857Y-92407200D02*
X65000000Y-92454819D01*
X65000000Y-92454819D02*
X64761905Y-92454819D01*
X66285714Y-92454819D02*
X65714286Y-92454819D01*
X66000000Y-92454819D02*
X66000000Y-91454819D01*
X66000000Y-91454819D02*
X65904762Y-91597676D01*
X65904762Y-91597676D02*
X65809524Y-91692914D01*
X65809524Y-91692914D02*
X65714286Y-91740533D01*
X59494819Y-96637857D02*
X59494819Y-97114047D01*
X59494819Y-97114047D02*
X58494819Y-97114047D01*
X58971009Y-96304523D02*
X58971009Y-95971190D01*
X59494819Y-95828333D02*
X59494819Y-96304523D01*
X59494819Y-96304523D02*
X58494819Y-96304523D01*
X58494819Y-96304523D02*
X58494819Y-95828333D01*
X59494819Y-95399761D02*
X58494819Y-95399761D01*
X58494819Y-95399761D02*
X58494819Y-95161666D01*
X58494819Y-95161666D02*
X58542438Y-95018809D01*
X58542438Y-95018809D02*
X58637676Y-94923571D01*
X58637676Y-94923571D02*
X58732914Y-94875952D01*
X58732914Y-94875952D02*
X58923390Y-94828333D01*
X58923390Y-94828333D02*
X59066247Y-94828333D01*
X59066247Y-94828333D02*
X59256723Y-94875952D01*
X59256723Y-94875952D02*
X59351961Y-94923571D01*
X59351961Y-94923571D02*
X59447200Y-95018809D01*
X59447200Y-95018809D02*
X59494819Y-95161666D01*
X59494819Y-95161666D02*
X59494819Y-95399761D01*
X83666667Y-88107200D02*
X83809524Y-88154819D01*
X83809524Y-88154819D02*
X84047619Y-88154819D01*
X84047619Y-88154819D02*
X84142857Y-88107200D01*
X84142857Y-88107200D02*
X84190476Y-88059580D01*
X84190476Y-88059580D02*
X84238095Y-87964342D01*
X84238095Y-87964342D02*
X84238095Y-87869104D01*
X84238095Y-87869104D02*
X84190476Y-87773866D01*
X84190476Y-87773866D02*
X84142857Y-87726247D01*
X84142857Y-87726247D02*
X84047619Y-87678628D01*
X84047619Y-87678628D02*
X83857143Y-87631009D01*
X83857143Y-87631009D02*
X83761905Y-87583390D01*
X83761905Y-87583390D02*
X83714286Y-87535771D01*
X83714286Y-87535771D02*
X83666667Y-87440533D01*
X83666667Y-87440533D02*
X83666667Y-87345295D01*
X83666667Y-87345295D02*
X83714286Y-87250057D01*
X83714286Y-87250057D02*
X83761905Y-87202438D01*
X83761905Y-87202438D02*
X83857143Y-87154819D01*
X83857143Y-87154819D02*
X84095238Y-87154819D01*
X84095238Y-87154819D02*
X84238095Y-87202438D01*
X84571429Y-87154819D02*
X84809524Y-88154819D01*
X84809524Y-88154819D02*
X85000000Y-87440533D01*
X85000000Y-87440533D02*
X85190476Y-88154819D01*
X85190476Y-88154819D02*
X85428572Y-87154819D01*
X86333333Y-88154819D02*
X85761905Y-88154819D01*
X86047619Y-88154819D02*
X86047619Y-87154819D01*
X86047619Y-87154819D02*
X85952381Y-87297676D01*
X85952381Y-87297676D02*
X85857143Y-87392914D01*
X85857143Y-87392914D02*
X85761905Y-87440533D01*
X77374819Y-96166666D02*
X76898628Y-96499999D01*
X77374819Y-96738094D02*
X76374819Y-96738094D01*
X76374819Y-96738094D02*
X76374819Y-96357142D01*
X76374819Y-96357142D02*
X76422438Y-96261904D01*
X76422438Y-96261904D02*
X76470057Y-96214285D01*
X76470057Y-96214285D02*
X76565295Y-96166666D01*
X76565295Y-96166666D02*
X76708152Y-96166666D01*
X76708152Y-96166666D02*
X76803390Y-96214285D01*
X76803390Y-96214285D02*
X76851009Y-96261904D01*
X76851009Y-96261904D02*
X76898628Y-96357142D01*
X76898628Y-96357142D02*
X76898628Y-96738094D01*
X77374819Y-95214285D02*
X77374819Y-95785713D01*
X77374819Y-95499999D02*
X76374819Y-95499999D01*
X76374819Y-95499999D02*
X76517676Y-95595237D01*
X76517676Y-95595237D02*
X76612914Y-95690475D01*
X76612914Y-95690475D02*
X76660533Y-95785713D01*
D12*
%TO.C,BT1*%
X124310000Y-99610000D02*
X120692000Y-99610000D01*
X124310000Y-97900000D02*
X124310000Y-99610000D01*
X124310000Y-94100000D02*
X124310000Y-92390000D01*
X120692000Y-92390000D02*
X124310000Y-92390000D01*
X117847300Y-104110000D02*
X102152700Y-104110000D01*
X113860000Y-87890000D02*
X117847300Y-87890000D01*
X111660000Y-90090000D02*
X113860000Y-87890000D01*
X108340000Y-90090000D02*
X111660000Y-90090000D01*
X108340000Y-90090000D02*
X106140000Y-87890000D01*
X102152700Y-87890000D02*
X106140000Y-87890000D01*
X99308000Y-99610000D02*
X95690000Y-99610000D01*
X95690000Y-97900000D02*
X95690000Y-99610000D01*
X95690000Y-94100000D02*
X95690000Y-92390000D01*
X95690000Y-92390000D02*
X99308000Y-92390000D01*
X120692000Y-99610000D02*
G75*
G02*
X117845372Y-104111790I-10692020J3610010D01*
G01*
X117845371Y-87888211D02*
G75*
G02*
X120692000Y-92390000I-7845366J-8111785D01*
G01*
X102154629Y-104111789D02*
G75*
G02*
X99308000Y-99610000I7845371J8111789D01*
G01*
X99308000Y-92390000D02*
G75*
G02*
X102154629Y-87888211I10692020J-3610012D01*
G01*
%TO.C,D1*%
X64545000Y-93435000D02*
X61455000Y-93435000D01*
X64544830Y-93435000D02*
G75*
G02*
X63000000Y-98985000I-1544830J-2560000D01*
G01*
X63000000Y-98985000D02*
G75*
G02*
X61455170Y-93435000I0J2990000D01*
G01*
X65500000Y-95995000D02*
G75*
G02*
X60500000Y-95995000I-2500000J0D01*
G01*
X60500000Y-95995000D02*
G75*
G02*
X65500000Y-95995000I2500000J0D01*
G01*
%TO.C,SW1*%
X78890000Y-89890000D02*
X78890000Y-92400000D01*
X78890000Y-89890000D02*
X91110000Y-89890000D01*
X78890000Y-94700000D02*
X78890000Y-97300000D01*
X78890000Y-99600000D02*
X78890000Y-102110000D01*
X91110000Y-89890000D02*
X91110000Y-92400000D01*
X91110000Y-94700000D02*
X91110000Y-97300000D01*
X91110000Y-99600000D02*
X91110000Y-102110000D01*
X91110000Y-102110000D02*
X78890000Y-102110000D01*
%TO.C,R1*%
X75000000Y-93130000D02*
X75000000Y-94080000D01*
X75000000Y-98870000D02*
X75000000Y-97920000D01*
X75920000Y-94080000D02*
X74080000Y-94080000D01*
X74080000Y-97920000D01*
X75920000Y-97920000D01*
X75920000Y-94080000D01*
%TD*%
M02*
