%TF.GenerationSoftware,KiCad,Pcbnew,9.0.2*%
%TF.CreationDate,2025-06-10T04:14:27+06:00*%
%TF.ProjectId,project_1_led torch,70726f6a-6563-4745-9f31-5f6c65642074,1*%
%TF.SameCoordinates,Original*%
%TF.FileFunction,Copper,L1,Top*%
%TF.FilePolarity,Positive*%
%FSLAX46Y46*%
G04 Gerber Fmt 4.6, Leading zero omitted, Abs format (unit mm)*
G04 Created by KiCad (PCBNEW 9.0.2) date 2025-06-10 04:14:27*
%MOMM*%
%LPD*%
G01*
G04 APERTURE LIST*
%TA.AperFunction,SMDPad,CuDef*%
%ADD10R,2.540000X3.510000*%
%TD*%
%TA.AperFunction,ComponentPad*%
%ADD11R,1.800000X1.800000*%
%TD*%
%TA.AperFunction,ComponentPad*%
%ADD12C,1.800000*%
%TD*%
%TA.AperFunction,ComponentPad*%
%ADD13O,2.900000X1.700000*%
%TD*%
%TA.AperFunction,ComponentPad*%
%ADD14C,1.400000*%
%TD*%
%TA.AperFunction,Conductor*%
%ADD15C,0.200000*%
%TD*%
G04 APERTURE END LIST*
D10*
%TO.P,BT1,1,+*%
%TO.N,/BAT_pos*%
X124680000Y-96000000D03*
%TO.P,BT1,2,-*%
%TO.N,/LED_cathode*%
X95320000Y-96000000D03*
%TD*%
D11*
%TO.P,D1,1,K*%
%TO.N,/LED_cathode*%
X63000000Y-94725000D03*
D12*
%TO.P,D1,2,A*%
%TO.N,/LED_Anode*%
X63000000Y-97265000D03*
%TD*%
D13*
%TO.P,SW1,1,A*%
%TO.N,Net-(SW1A-A)*%
X78750000Y-93500000D03*
X91250000Y-93500000D03*
%TO.P,SW1,2,B*%
%TO.N,/BAT_pos*%
X78750000Y-98500000D03*
X91250000Y-98500000D03*
%TD*%
D14*
%TO.P,R1,1*%
%TO.N,Net-(SW1A-A)*%
X75000000Y-92190000D03*
%TO.P,R1,2*%
%TO.N,/LED_Anode*%
X75000000Y-99810000D03*
%TD*%
D15*
%TO.N,/LED_cathode*%
X75000000Y-96000000D02*
X95320000Y-96000000D01*
X68000000Y-93000000D02*
X72000000Y-93000000D01*
X72000000Y-93000000D02*
X75000000Y-96000000D01*
X66000000Y-95000000D02*
X68000000Y-93000000D01*
X63000000Y-95000000D02*
X66000000Y-95000000D01*
%TO.N,Net-(SW1A-A)*%
X76310000Y-93500000D02*
X78750000Y-93500000D01*
X75000000Y-92190000D02*
X76310000Y-93500000D01*
%TO.N,/BAT_pos*%
X78750000Y-98500000D02*
X91250000Y-98500000D01*
X122180000Y-98500000D02*
X124680000Y-96000000D01*
X91250000Y-98500000D02*
X122180000Y-98500000D01*
%TO.N,Net-(SW1A-A)*%
X78750000Y-93500000D02*
X91250000Y-93500000D01*
%TO.N,/LED_Anode*%
X75000000Y-100380000D02*
X75000000Y-99810000D01*
X74380000Y-101000000D02*
X75000000Y-100380000D01*
X74000000Y-101000000D02*
X74380000Y-101000000D01*
X66460000Y-101000000D02*
X74000000Y-101000000D01*
X63000000Y-97540000D02*
X66460000Y-101000000D01*
%TD*%
M02*
