<?xml version="1.0" standalone="no"?>
 <!DOCTYPE svg PUBLIC "-//W3C//DTD SVG 1.1//EN" 
 "http://www.w3.org/Graphics/SVG/1.1/DTD/svg11.dtd"> 
<svg
  xmlns:svg="http://www.w3.org/2000/svg"
  xmlns="http://www.w3.org/2000/svg"
  xmlns:xlink="http://www.w3.org/1999/xlink"
  version="1.1"
  width="297.0022mm" height="210.0072mm" viewBox="0.0000 0.0000 297.0022 210.0072">
<title>SVG Image created as project_1_led torch-F_Silkscreen.svg date 2025/06/10 04:38:01 </title>
  <desc>Image generated by PCBNEW </desc>
<g style="fill:#000000; fill-opacity:1.0000;stroke:#000000; stroke-opacity:1.0000;
stroke-linecap:round; stroke-linejoin:round;"
 transform="translate(0 0) scale(1 1)">
</g>
<g style="fill:none; 
stroke:#000000; stroke-width:0.1000; stroke-opacity:1; 
stroke-linecap:round; stroke-linejoin:round;">
<text x="62.0000" y="100.5000"
textLength="1.3381" font-size="1.3333" lengthAdjust="spacingAndGlyphs"
text-anchor="start" opacity="0" stroke-opacity="0">+</text>
<g class="stroked-text"><desc>+</desc>
<path d="M62.3039 99.9915
L63.0658 99.9915
" />
<path d="M62.6848 100.3724
L62.6848 99.6105
" />
</g><g transform="rotate(-180.000000 63.5000 91.5000)">
<text x="63.5000" y="91.5000"
textLength="1.3381" font-size="1.3333" lengthAdjust="spacingAndGlyphs"
text-anchor="start" opacity="0" stroke-opacity="0">-</text>
</g>
<g class="stroked-text"><desc>-</desc>
<path d="M63.1961 92.0085
L62.4342 92.0085
" />
</g></g>
<g style="fill:none; 
stroke:#000000; stroke-width:0.1500; stroke-opacity:1; 
stroke-linecap:round; stroke-linejoin:round;">
<g transform="rotate(-90.000000 76.9200 96.0000)">
<text x="76.9200" y="96.5000"
textLength="2.2024" font-size="1.3333" lengthAdjust="spacingAndGlyphs"
text-anchor="middle" opacity="0" stroke-opacity="0">R1</text>
</g>
<g class="stroked-text"><desc>R1</desc>
<path d="M77.3748 96.1667
L76.8986 96.5000
" />
<path d="M77.3748 96.7381
L76.3748 96.7381
" />
<path d="M76.3748 96.7381
L76.3748 96.3571
" />
<path d="M76.3748 96.3571
L76.4224 96.2619
" />
<path d="M76.4224 96.2619
L76.4701 96.2143
" />
<path d="M76.4701 96.2143
L76.5653 96.1667
" />
<path d="M76.5653 96.1667
L76.7082 96.1667
" />
<path d="M76.7082 96.1667
L76.8034 96.2143
" />
<path d="M76.8034 96.2143
L76.8510 96.2619
" />
<path d="M76.8510 96.2619
L76.8986 96.3571
" />
<path d="M76.8986 96.3571
L76.8986 96.7381
" />
<path d="M77.3748 95.2143
L77.3748 95.7857
" />
<path d="M77.3748 95.5000
L76.3748 95.5000
" />
<path d="M76.3748 95.5000
L76.5177 95.5952
" />
<path d="M76.5177 95.5952
L76.6129 95.6905
" />
<path d="M76.6129 95.6905
L76.6605 95.7857
" />
</g><text x="65.5000" y="92.5000"
textLength="2.2024" font-size="1.3333" lengthAdjust="spacingAndGlyphs"
text-anchor="middle" opacity="0" stroke-opacity="0">D1</text>
<g class="stroked-text"><desc>D1</desc>
<path d="M64.7619 92.4548
L64.7619 91.4548
" />
<path d="M64.7619 91.4548
L65.0000 91.4548
" />
<path d="M65.0000 91.4548
L65.1429 91.5024
" />
<path d="M65.1429 91.5024
L65.2381 91.5977
" />
<path d="M65.2381 91.5977
L65.2857 91.6929
" />
<path d="M65.2857 91.6929
L65.3333 91.8834
" />
<path d="M65.3333 91.8834
L65.3333 92.0262
" />
<path d="M65.3333 92.0262
L65.2857 92.2167
" />
<path d="M65.2857 92.2167
L65.2381 92.3120
" />
<path d="M65.2381 92.3120
L65.1429 92.4072
" />
<path d="M65.1429 92.4072
L65.0000 92.4548
" />
<path d="M65.0000 92.4548
L64.7619 92.4548
" />
<path d="M66.2857 92.4548
L65.7143 92.4548
" />
<path d="M66.0000 92.4548
L66.0000 91.4548
" />
<path d="M66.0000 91.4548
L65.9048 91.5977
" />
<path d="M65.9048 91.5977
L65.8095 91.6929
" />
<path d="M65.8095 91.6929
L65.7143 91.7405
" />
</g><g transform="rotate(-90.000000 59.0400 95.9950)">
<text x="59.0400" y="96.4950"
textLength="2.9643" font-size="1.3333" lengthAdjust="spacingAndGlyphs"
text-anchor="middle" opacity="0" stroke-opacity="0">LED</text>
</g>
<g class="stroked-text"><desc>LED</desc>
<path d="M59.4948 96.6379
L59.4948 97.1140
" />
<path d="M59.4948 97.1140
L58.4948 97.1140
" />
<path d="M58.9710 96.3045
L58.9710 95.9712
" />
<path d="M59.4948 95.8283
L59.4948 96.3045
" />
<path d="M59.4948 96.3045
L58.4948 96.3045
" />
<path d="M58.4948 96.3045
L58.4948 95.8283
" />
<path d="M59.4948 95.3998
L58.4948 95.3998
" />
<path d="M58.4948 95.3998
L58.4948 95.1617
" />
<path d="M58.4948 95.1617
L58.5424 95.0188
" />
<path d="M58.5424 95.0188
L58.6377 94.9236
" />
<path d="M58.6377 94.9236
L58.7329 94.8760
" />
<path d="M58.7329 94.8760
L58.9234 94.8283
" />
<path d="M58.9234 94.8283
L59.0662 94.8283
" />
<path d="M59.0662 94.8283
L59.2567 94.8760
" />
<path d="M59.2567 94.8760
L59.3520 94.9236
" />
<path d="M59.3520 94.9236
L59.4472 95.0188
" />
<path d="M59.4472 95.0188
L59.4948 95.1617
" />
<path d="M59.4948 95.1617
L59.4948 95.3998
" />
</g><text x="85.0000" y="88.2000"
textLength="3.2976" font-size="1.3333" lengthAdjust="spacingAndGlyphs"
text-anchor="middle" opacity="0" stroke-opacity="0">SW1</text>
<g class="stroked-text"><desc>SW1</desc>
<path d="M83.6667 88.1072
L83.8095 88.1548
" />
<path d="M83.8095 88.1548
L84.0476 88.1548
" />
<path d="M84.0476 88.1548
L84.1429 88.1072
" />
<path d="M84.1429 88.1072
L84.1905 88.0596
" />
<path d="M84.1905 88.0596
L84.2381 87.9643
" />
<path d="M84.2381 87.9643
L84.2381 87.8691
" />
<path d="M84.2381 87.8691
L84.1905 87.7739
" />
<path d="M84.1905 87.7739
L84.1429 87.7262
" />
<path d="M84.1429 87.7262
L84.0476 87.6786
" />
<path d="M84.0476 87.6786
L83.8571 87.6310
" />
<path d="M83.8571 87.6310
L83.7619 87.5834
" />
<path d="M83.7619 87.5834
L83.7143 87.5358
" />
<path d="M83.7143 87.5358
L83.6667 87.4405
" />
<path d="M83.6667 87.4405
L83.6667 87.3453
" />
<path d="M83.6667 87.3453
L83.7143 87.2501
" />
<path d="M83.7143 87.2501
L83.7619 87.2024
" />
<path d="M83.7619 87.2024
L83.8571 87.1548
" />
<path d="M83.8571 87.1548
L84.0952 87.1548
" />
<path d="M84.0952 87.1548
L84.2381 87.2024
" />
<path d="M84.5714 87.1548
L84.8095 88.1548
" />
<path d="M84.8095 88.1548
L85.0000 87.4405
" />
<path d="M85.0000 87.4405
L85.1905 88.1548
" />
<path d="M85.1905 88.1548
L85.4286 87.1548
" />
<path d="M86.3333 88.1548
L85.7619 88.1548
" />
<path d="M86.0476 88.1548
L86.0476 87.1548
" />
<path d="M86.0476 87.1548
L85.9524 87.2977
" />
<path d="M85.9524 87.2977
L85.8571 87.3929
" />
<path d="M85.8571 87.3929
L85.7619 87.4405
" />
</g><text x="110.0000" y="88.8800"
textLength="2.9643" font-size="1.3333" lengthAdjust="spacingAndGlyphs"
text-anchor="middle" opacity="0" stroke-opacity="0">BT1</text>
<g class="stroked-text"><desc>BT1</desc>
<path d="M109.2143 88.3110
L109.3571 88.3586
" />
<path d="M109.3571 88.3586
L109.4048 88.4062
" />
<path d="M109.4048 88.4062
L109.4524 88.5015
" />
<path d="M109.4524 88.5015
L109.4524 88.6443
" />
<path d="M109.4524 88.6443
L109.4048 88.7396
" />
<path d="M109.4048 88.7396
L109.3571 88.7872
" />
<path d="M109.3571 88.7872
L109.2619 88.8348
" />
<path d="M109.2619 88.8348
L108.8810 88.8348
" />
<path d="M108.8810 88.8348
L108.8810 87.8348
" />
<path d="M108.8810 87.8348
L109.2143 87.8348
" />
<path d="M109.2143 87.8348
L109.3095 87.8824
" />
<path d="M109.3095 87.8824
L109.3571 87.9301
" />
<path d="M109.3571 87.9301
L109.4048 88.0253
" />
<path d="M109.4048 88.0253
L109.4048 88.1205
" />
<path d="M109.4048 88.1205
L109.3571 88.2158
" />
<path d="M109.3571 88.2158
L109.3095 88.2634
" />
<path d="M109.3095 88.2634
L109.2143 88.3110
" />
<path d="M109.2143 88.3110
L108.8810 88.3110
" />
<path d="M109.7381 87.8348
L110.3095 87.8348
" />
<path d="M110.0238 88.8348
L110.0238 87.8348
" />
<path d="M111.1667 88.8348
L110.5952 88.8348
" />
<path d="M110.8810 88.8348
L110.8810 87.8348
" />
<path d="M110.8810 87.8348
L110.7857 87.9777
" />
<path d="M110.7857 87.9777
L110.6905 88.0729
" />
<path d="M110.6905 88.0729
L110.5952 88.1205
" />
</g><text x="110.0000" y="105.5000"
textLength="10.1071" font-size="1.3333" lengthAdjust="spacingAndGlyphs"
text-anchor="middle" opacity="0" stroke-opacity="0">Battery 2032</text>
<g class="stroked-text"><desc>Battery 2032</desc>
<path d="M105.6429 104.9310
L105.7857 104.9786
" />
<path d="M105.7857 104.9786
L105.8333 105.0262
" />
<path d="M105.8333 105.0262
L105.8810 105.1215
" />
<path d="M105.8810 105.1215
L105.8810 105.2643
" />
<path d="M105.8810 105.2643
L105.8333 105.3596
" />
<path d="M105.8333 105.3596
L105.7857 105.4072
" />
<path d="M105.7857 105.4072
L105.6905 105.4548
" />
<path d="M105.6905 105.4548
L105.3095 105.4548
" />
<path d="M105.3095 105.4548
L105.3095 104.4548
" />
<path d="M105.3095 104.4548
L105.6429 104.4548
" />
<path d="M105.6429 104.4548
L105.7381 104.5024
" />
<path d="M105.7381 104.5024
L105.7857 104.5501
" />
<path d="M105.7857 104.5501
L105.8333 104.6453
" />
<path d="M105.8333 104.6453
L105.8333 104.7405
" />
<path d="M105.8333 104.7405
L105.7857 104.8358
" />
<path d="M105.7857 104.8358
L105.7381 104.8834
" />
<path d="M105.7381 104.8834
L105.6429 104.9310
" />
<path d="M105.6429 104.9310
L105.3095 104.9310
" />
<path d="M106.7381 105.4548
L106.7381 104.9310
" />
<path d="M106.7381 104.9310
L106.6905 104.8358
" />
<path d="M106.6905 104.8358
L106.5952 104.7882
" />
<path d="M106.5952 104.7882
L106.4048 104.7882
" />
<path d="M106.4048 104.7882
L106.3095 104.8358
" />
<path d="M106.7381 105.4072
L106.6429 105.4548
" />
<path d="M106.6429 105.4548
L106.4048 105.4548
" />
<path d="M106.4048 105.4548
L106.3095 105.4072
" />
<path d="M106.3095 105.4072
L106.2619 105.3120
" />
<path d="M106.2619 105.3120
L106.2619 105.2167
" />
<path d="M106.2619 105.2167
L106.3095 105.1215
" />
<path d="M106.3095 105.1215
L106.4048 105.0739
" />
<path d="M106.4048 105.0739
L106.6429 105.0739
" />
<path d="M106.6429 105.0739
L106.7381 105.0262
" />
<path d="M107.0714 104.7882
L107.4524 104.7882
" />
<path d="M107.2143 104.4548
L107.2143 105.3120
" />
<path d="M107.2143 105.3120
L107.2619 105.4072
" />
<path d="M107.2619 105.4072
L107.3571 105.4548
" />
<path d="M107.3571 105.4548
L107.4524 105.4548
" />
<path d="M107.6429 104.7882
L108.0238 104.7882
" />
<path d="M107.7857 104.4548
L107.7857 105.3120
" />
<path d="M107.7857 105.3120
L107.8333 105.4072
" />
<path d="M107.8333 105.4072
L107.9286 105.4548
" />
<path d="M107.9286 105.4548
L108.0238 105.4548
" />
<path d="M108.7381 105.4072
L108.6429 105.4548
" />
<path d="M108.6429 105.4548
L108.4524 105.4548
" />
<path d="M108.4524 105.4548
L108.3571 105.4072
" />
<path d="M108.3571 105.4072
L108.3095 105.3120
" />
<path d="M108.3095 105.3120
L108.3095 104.9310
" />
<path d="M108.3095 104.9310
L108.3571 104.8358
" />
<path d="M108.3571 104.8358
L108.4524 104.7882
" />
<path d="M108.4524 104.7882
L108.6429 104.7882
" />
<path d="M108.6429 104.7882
L108.7381 104.8358
" />
<path d="M108.7381 104.8358
L108.7857 104.9310
" />
<path d="M108.7857 104.9310
L108.7857 105.0262
" />
<path d="M108.7857 105.0262
L108.3095 105.1215
" />
<path d="M109.2143 105.4548
L109.2143 104.7882
" />
<path d="M109.2143 104.9786
L109.2619 104.8834
" />
<path d="M109.2619 104.8834
L109.3095 104.8358
" />
<path d="M109.3095 104.8358
L109.4048 104.7882
" />
<path d="M109.4048 104.7882
L109.5000 104.7882
" />
<path d="M109.7381 104.7882
L109.9762 105.4548
" />
<path d="M110.2143 104.7882
L109.9762 105.4548
" />
<path d="M109.9762 105.4548
L109.8810 105.6929
" />
<path d="M109.8810 105.6929
L109.8333 105.7405
" />
<path d="M109.8333 105.7405
L109.7381 105.7882
" />
<path d="M111.3095 104.5501
L111.3571 104.5024
" />
<path d="M111.3571 104.5024
L111.4524 104.4548
" />
<path d="M111.4524 104.4548
L111.6905 104.4548
" />
<path d="M111.6905 104.4548
L111.7857 104.5024
" />
<path d="M111.7857 104.5024
L111.8333 104.5501
" />
<path d="M111.8333 104.5501
L111.8810 104.6453
" />
<path d="M111.8810 104.6453
L111.8810 104.7405
" />
<path d="M111.8810 104.7405
L111.8333 104.8834
" />
<path d="M111.8333 104.8834
L111.2619 105.4548
" />
<path d="M111.2619 105.4548
L111.8810 105.4548
" />
<path d="M112.5000 104.4548
L112.5952 104.4548
" />
<path d="M112.5952 104.4548
L112.6905 104.5024
" />
<path d="M112.6905 104.5024
L112.7381 104.5501
" />
<path d="M112.7381 104.5501
L112.7857 104.6453
" />
<path d="M112.7857 104.6453
L112.8333 104.8358
" />
<path d="M112.8333 104.8358
L112.8333 105.0739
" />
<path d="M112.8333 105.0739
L112.7857 105.2643
" />
<path d="M112.7857 105.2643
L112.7381 105.3596
" />
<path d="M112.7381 105.3596
L112.6905 105.4072
" />
<path d="M112.6905 105.4072
L112.5952 105.4548
" />
<path d="M112.5952 105.4548
L112.5000 105.4548
" />
<path d="M112.5000 105.4548
L112.4048 105.4072
" />
<path d="M112.4048 105.4072
L112.3571 105.3596
" />
<path d="M112.3571 105.3596
L112.3095 105.2643
" />
<path d="M112.3095 105.2643
L112.2619 105.0739
" />
<path d="M112.2619 105.0739
L112.2619 104.8358
" />
<path d="M112.2619 104.8358
L112.3095 104.6453
" />
<path d="M112.3095 104.6453
L112.3571 104.5501
" />
<path d="M112.3571 104.5501
L112.4048 104.5024
" />
<path d="M112.4048 104.5024
L112.5000 104.4548
" />
<path d="M113.1667 104.4548
L113.7857 104.4548
" />
<path d="M113.7857 104.4548
L113.4524 104.8358
" />
<path d="M113.4524 104.8358
L113.5952 104.8358
" />
<path d="M113.5952 104.8358
L113.6905 104.8834
" />
<path d="M113.6905 104.8834
L113.7381 104.9310
" />
<path d="M113.7381 104.9310
L113.7857 105.0262
" />
<path d="M113.7857 105.0262
L113.7857 105.2643
" />
<path d="M113.7857 105.2643
L113.7381 105.3596
" />
<path d="M113.7381 105.3596
L113.6905 105.4072
" />
<path d="M113.6905 105.4072
L113.5952 105.4548
" />
<path d="M113.5952 105.4548
L113.3095 105.4548
" />
<path d="M113.3095 105.4548
L113.2143 105.4072
" />
<path d="M113.2143 105.4072
L113.1667 105.3596
" />
<path d="M114.1667 104.5501
L114.2143 104.5024
" />
<path d="M114.2143 104.5024
L114.3095 104.4548
" />
<path d="M114.3095 104.4548
L114.5476 104.4548
" />
<path d="M114.5476 104.4548
L114.6429 104.5024
" />
<path d="M114.6429 104.5024
L114.6905 104.5501
" />
<path d="M114.6905 104.5501
L114.7381 104.6453
" />
<path d="M114.7381 104.6453
L114.7381 104.7405
" />
<path d="M114.7381 104.7405
L114.6905 104.8834
" />
<path d="M114.6905 104.8834
L114.1190 105.4548
" />
<path d="M114.1190 105.4548
L114.7381 105.4548
" />
</g></g>
<g style="fill:none; 
stroke:#000000; stroke-width:0.1200; stroke-opacity:1; 
stroke-linecap:round; stroke-linejoin:round;">
<path d="M75.0000 93.1300
L75.0000 94.0800
" />
<path d="M75.0000 98.8700
L75.0000 97.9200
" />
<path style="fill:none; 
stroke:#000000; stroke-width:0.1200; stroke-opacity:1; 
stroke-linecap:round; stroke-linejoin:round;fill:none"
d="M 75.9200,94.0800
74.0800,94.0800
74.0800,97.9200
75.9200,97.9200
Z" /> 
<path d="M64.5450 93.4350
L61.4550 93.4350
" />
<path d="M61.4552 93.4350 A2.9900 2.9900 0.0 0 0 63.0000 98.9850" />
<path d="M63.0000 98.9850 A2.9900 2.9900 0.0 0 0 64.5448 93.4350" />
<circle cx="63.0000" cy="95.9950" r="2.5000" /> 
<path d="M78.8900 89.8900
L78.8900 92.4000
" />
<path d="M78.8900 89.8900
L91.1100 89.8900
" />
<path d="M78.8900 94.7000
L78.8900 97.3000
" />
<path d="M78.8900 99.6000
L78.8900 102.1100
" />
<path d="M91.1100 89.8900
L91.1100 92.4000
" />
<path d="M91.1100 94.7000
L91.1100 97.3000
" />
<path d="M91.1100 99.6000
L91.1100 102.1100
" />
<path d="M91.1100 102.1100
L78.8900 102.1100
" />
<path d="M95.6900 92.3900
L99.3080 92.3900
" />
<path d="M95.6900 94.1000
L95.6900 92.3900
" />
<path d="M95.6900 97.9000
L95.6900 99.6100
" />
<path d="M99.3080 99.6100
L95.6900 99.6100
" />
<path d="M102.1527 87.8900
L106.1400 87.8900
" />
<path d="M108.3400 90.0900
L106.1400 87.8900
" />
<path d="M108.3400 90.0900
L111.6600 90.0900
" />
<path d="M111.6600 90.0900
L113.8600 87.8900
" />
<path d="M113.8600 87.8900
L117.8473 87.8900
" />
<path d="M117.8473 104.1100
L102.1527 104.1100
" />
<path d="M120.6920 92.3900
L124.3100 92.3900
" />
<path d="M124.3100 94.1000
L124.3100 92.3900
" />
<path d="M124.3100 97.9000
L124.3100 99.6100
" />
<path d="M124.3100 99.6100
L120.6920 99.6100
" />
<path d="M102.1546 87.8882 A11.2850 11.2850 0.0 0 0 99.3080 92.3900" />
<path d="M99.3080 99.6100 A11.2850 11.2850 0.0 0 0 102.1546 104.1118" />
<path d="M120.6920 92.3900 A11.2850 11.2850 0.0 0 0 117.8454 87.8882" />
<path d="M117.8454 104.1118 A11.2850 11.2850 0.0 0 0 120.6920 99.6100" />
</g> 
</svg>
