<?xml version="1.0" standalone="no"?>
 <!DOCTYPE svg PUBLIC "-//W3C//DTD SVG 1.1//EN" 
 "http://www.w3.org/Graphics/SVG/1.1/DTD/svg11.dtd"> 
<svg
  xmlns:svg="http://www.w3.org/2000/svg"
  xmlns="http://www.w3.org/2000/svg"
  xmlns:xlink="http://www.w3.org/1999/xlink"
  version="1.1"
  width="297.0022mm" height="210.0072mm" viewBox="0.0000 0.0000 297.0022 210.0072">
<title>SVG Image created as project_1_led torch-F_Cu.svg date 2025/06/10 04:38:01 </title>
  <desc>Image generated by PCBNEW </desc>
<g style="fill:#000000; fill-opacity:1.0000;stroke:#000000; stroke-opacity:1.0000;
stroke-linecap:round; stroke-linejoin:round;"
 transform="translate(0 0) scale(1 1)">
</g>
<g style="fill:#000000; fill-opacity:1.0000; stroke:none;">
<circle cx="75.0000" cy="92.1900" r="0.7000" /> 
</g>
<g style="fill:#000000; fill-opacity:1.0000; stroke:none;">
<circle cx="75.0000" cy="99.8100" r="0.7000" /> 
<path style="fill:#000000; fill-opacity:1.0000; stroke:none;fill-rule:evenodd;"
d="M 62.1000,93.8250
63.9000,93.8250
63.9000,95.6250
62.1000,95.6250
Z" /> 
</g>
<g style="fill:#000000; fill-opacity:1.0000; stroke:none;">
<circle cx="63.0000" cy="97.2650" r="0.9000" /> 
</g>
<g style="fill:none; 
stroke:#000000; stroke-width:1.7000; stroke-opacity:1; 
stroke-linecap:round; stroke-linejoin:round;">
<path d="M78.1500 93.5000
L79.3500 93.5000
" />
<path d="M90.6500 93.5000
L91.8500 93.5000
" />
<path d="M78.1500 98.5000
L79.3500 98.5000
" />
<path d="M90.6500 98.5000
L91.8500 98.5000
" />
<path style="fill:#000000; fill-opacity:1.0000; stroke:none;fill-rule:evenodd;"
d="M 125.9500,94.2450
125.9500,97.7550
123.4100,97.7550
123.4100,94.2450
Z" /> 
<path style="fill:#000000; fill-opacity:1.0000; stroke:none;fill-rule:evenodd;"
d="M 96.5900,94.2450
96.5900,97.7550
94.0500,97.7550
94.0500,94.2450
Z" /> 
</g>
<g style="fill:none; 
stroke:#000000; stroke-width:0.2000; stroke-opacity:1; 
stroke-linecap:round; stroke-linejoin:round;">
<path d="M75.0000 96.0000
L95.3200 96.0000
" />
<path d="M72.0000 93.0000
L75.0000 96.0000
" />
<path d="M66.0000 95.0000
L68.0000 93.0000
" />
<path d="M63.0000 95.0000
L66.0000 95.0000
" />
<path d="M68.0000 93.0000
L72.0000 93.0000
" />
<path d="M91.2500 98.5000
L122.1800 98.5000
" />
<path d="M122.1800 98.5000
L124.6800 96.0000
" />
<path d="M78.7500 98.5000
L91.2500 98.5000
" />
<path d="M75.0000 100.3800
L75.0000 99.8100
" />
<path d="M63.0000 97.5400
L66.4600 101.0000
" />
<path d="M66.4600 101.0000
L74.0000 101.0000
" />
<path d="M74.0000 101.0000
L74.3800 101.0000
" />
<path d="M74.3800 101.0000
L75.0000 100.3800
" />
<path d="M78.7500 93.5000
L91.2500 93.5000
" />
<path d="M75.0000 92.1900
L76.3100 93.5000
" />
<path d="M76.3100 93.5000
L78.7500 93.5000
" />
</g> 
</svg>
