<?xml version="1.0" standalone="no"?>
 <!DOCTYPE svg PUBLIC "-//W3C//DTD SVG 1.1//EN" 
 "http://www.w3.org/Graphics/SVG/1.1/DTD/svg11.dtd"> 
<svg
  xmlns:svg="http://www.w3.org/2000/svg"
  xmlns="http://www.w3.org/2000/svg"
  xmlns:xlink="http://www.w3.org/1999/xlink"
  version="1.1"
  width="297.0022mm" height="210.0072mm" viewBox="0.0000 0.0000 297.0022 210.0072">
<title>SVG Image created as project_1_led torch-B_Silkscreen.svg date 2025/06/10 04:38:01 </title>
  <desc>Image generated by PCBNEW </desc>
<g style="fill:#000000; fill-opacity:1.0000;stroke:#000000; stroke-opacity:1.0000;
stroke-linecap:round; stroke-linejoin:round;"
 transform="translate(0 0) scale(1 1)">
</g>
<g style="fill:none; 
stroke:#000000; stroke-width:0.1000; stroke-opacity:1; 
stroke-linecap:round; stroke-linejoin:round;">
<text x="114.0000" y="99.5000"
transform="scale(-1 1) translate(-228.000000 0)"
textLength="8.6714" font-size="1.3333" lengthAdjust="spacingAndGlyphs"
text-anchor="start" opacity="0" stroke-opacity="0">Version 1.0</text>
<g class="stroked-text"><desc>Version 1.0</desc>
<path d="M113.8390 98.3724
L113.5056 99.3724
" />
<path d="M113.5056 99.3724
L113.1723 98.3724
" />
<path d="M112.4580 99.3248
L112.5533 99.3724
" />
<path d="M112.5533 99.3724
L112.7437 99.3724
" />
<path d="M112.7437 99.3724
L112.8390 99.3248
" />
<path d="M112.8390 99.3248
L112.8866 99.2296
" />
<path d="M112.8866 99.2296
L112.8866 98.8486
" />
<path d="M112.8866 98.8486
L112.8390 98.7534
" />
<path d="M112.8390 98.7534
L112.7437 98.7058
" />
<path d="M112.7437 98.7058
L112.5533 98.7058
" />
<path d="M112.5533 98.7058
L112.4580 98.7534
" />
<path d="M112.4580 98.7534
L112.4104 98.8486
" />
<path d="M112.4104 98.8486
L112.4104 98.9438
" />
<path d="M112.4104 98.9438
L112.8866 99.0391
" />
<path d="M111.9818 99.3724
L111.9818 98.7058
" />
<path d="M111.9818 98.8962
L111.9342 98.8010
" />
<path d="M111.9342 98.8010
L111.8866 98.7534
" />
<path d="M111.8866 98.7534
L111.7914 98.7058
" />
<path d="M111.7914 98.7058
L111.6961 98.7058
" />
<path d="M111.4104 99.3248
L111.3152 99.3724
" />
<path d="M111.3152 99.3724
L111.1247 99.3724
" />
<path d="M111.1247 99.3724
L111.0294 99.3248
" />
<path d="M111.0294 99.3248
L110.9818 99.2296
" />
<path d="M110.9818 99.2296
L110.9818 99.1819
" />
<path d="M110.9818 99.1819
L111.0294 99.0867
" />
<path d="M111.0294 99.0867
L111.1247 99.0391
" />
<path d="M111.1247 99.0391
L111.2675 99.0391
" />
<path d="M111.2675 99.0391
L111.3628 98.9915
" />
<path d="M111.3628 98.9915
L111.4104 98.8962
" />
<path d="M111.4104 98.8962
L111.4104 98.8486
" />
<path d="M111.4104 98.8486
L111.3628 98.7534
" />
<path d="M111.3628 98.7534
L111.2675 98.7058
" />
<path d="M111.2675 98.7058
L111.1247 98.7058
" />
<path d="M111.1247 98.7058
L111.0294 98.7534
" />
<path d="M110.5533 99.3724
L110.5533 98.7058
" />
<path d="M110.5533 98.3724
L110.6009 98.4200
" />
<path d="M110.6009 98.4200
L110.5533 98.4677
" />
<path d="M110.5533 98.4677
L110.5056 98.4200
" />
<path d="M110.5056 98.4200
L110.5533 98.3724
" />
<path d="M110.5533 98.3724
L110.5533 98.4677
" />
<path d="M109.9342 99.3724
L110.0294 99.3248
" />
<path d="M110.0294 99.3248
L110.0771 99.2772
" />
<path d="M110.0771 99.2772
L110.1247 99.1819
" />
<path d="M110.1247 99.1819
L110.1247 98.8962
" />
<path d="M110.1247 98.8962
L110.0771 98.8010
" />
<path d="M110.0771 98.8010
L110.0294 98.7534
" />
<path d="M110.0294 98.7534
L109.9342 98.7058
" />
<path d="M109.9342 98.7058
L109.7914 98.7058
" />
<path d="M109.7914 98.7058
L109.6961 98.7534
" />
<path d="M109.6961 98.7534
L109.6485 98.8010
" />
<path d="M109.6485 98.8010
L109.6009 98.8962
" />
<path d="M109.6009 98.8962
L109.6009 99.1819
" />
<path d="M109.6009 99.1819
L109.6485 99.2772
" />
<path d="M109.6485 99.2772
L109.6961 99.3248
" />
<path d="M109.6961 99.3248
L109.7914 99.3724
" />
<path d="M109.7914 99.3724
L109.9342 99.3724
" />
<path d="M109.1723 98.7058
L109.1723 99.3724
" />
<path d="M109.1723 98.8010
L109.1247 98.7534
" />
<path d="M109.1247 98.7534
L109.0294 98.7058
" />
<path d="M109.0294 98.7058
L108.8866 98.7058
" />
<path d="M108.8866 98.7058
L108.7914 98.7534
" />
<path d="M108.7914 98.7534
L108.7437 98.8486
" />
<path d="M108.7437 98.8486
L108.7437 99.3724
" />
<path d="M106.9818 99.3724
L107.5533 99.3724
" />
<path d="M107.2675 99.3724
L107.2675 98.3724
" />
<path d="M107.2675 98.3724
L107.3628 98.5153
" />
<path d="M107.3628 98.5153
L107.4580 98.6105
" />
<path d="M107.4580 98.6105
L107.5533 98.6581
" />
<path d="M106.5533 99.2772
L106.5056 99.3248
" />
<path d="M106.5056 99.3248
L106.5533 99.3724
" />
<path d="M106.5533 99.3724
L106.6009 99.3248
" />
<path d="M106.6009 99.3248
L106.5533 99.2772
" />
<path d="M106.5533 99.2772
L106.5533 99.3724
" />
<path d="M105.8866 98.3724
L105.7914 98.3724
" />
<path d="M105.7914 98.3724
L105.6961 98.4200
" />
<path d="M105.6961 98.4200
L105.6485 98.4677
" />
<path d="M105.6485 98.4677
L105.6009 98.5629
" />
<path d="M105.6009 98.5629
L105.5533 98.7534
" />
<path d="M105.5533 98.7534
L105.5533 98.9915
" />
<path d="M105.5533 98.9915
L105.6009 99.1819
" />
<path d="M105.6009 99.1819
L105.6485 99.2772
" />
<path d="M105.6485 99.2772
L105.6961 99.3248
" />
<path d="M105.6961 99.3248
L105.7914 99.3724
" />
<path d="M105.7914 99.3724
L105.8866 99.3724
" />
<path d="M105.8866 99.3724
L105.9818 99.3248
" />
<path d="M105.9818 99.3248
L106.0294 99.2772
" />
<path d="M106.0294 99.2772
L106.0771 99.1819
" />
<path d="M106.0771 99.1819
L106.1247 98.9915
" />
<path d="M106.1247 98.9915
L106.1247 98.7534
" />
<path d="M106.1247 98.7534
L106.0771 98.5629
" />
<path d="M106.0771 98.5629
L106.0294 98.4677
" />
<path d="M106.0294 98.4677
L105.9818 98.4200
" />
<path d="M105.9818 98.4200
L105.8866 98.3724
" />
</g><path style="fill:#000000; fill-opacity:1.0000; 
stroke:#000000; stroke-width:0.0100; stroke-opacity:1; 
stroke-linecap:round; stroke-linejoin:round;fill-rule:evenodd;"
d="M 105.8554,96.7749
105.8811,96.7906
105.9078,96.8122
105.9078,97.4597
105.8811,97.4813
105.8498,97.4987
105.8140,97.4996
105.7825,97.4791
105.7787,97.4744
105.7732,97.4649
105.7690,97.4513
105.7659,97.4307
105.7637,97.4008
105.7623,97.3587
105.7615,97.3019
105.7611,97.2278
105.7610,97.1338
105.7610,96.8122
105.7877,96.7906
105.8114,96.7759
105.8344,96.7691
Z" /> 
<path style="fill:#000000; fill-opacity:1.0000; 
stroke:#000000; stroke-width:0.0100; stroke-opacity:1; 
stroke-linecap:round; stroke-linejoin:round;fill-rule:evenodd;"
d="M 112.9861,96.7735
113.0203,96.7968
113.0480,96.8245
113.0480,97.1375
113.0480,97.2216
113.0477,97.2958
113.0470,97.3525
113.0458,97.3945
113.0437,97.4244
113.0406,97.4449
113.0363,97.4586
113.0307,97.4683
113.0235,97.4767
112.9920,97.4982
112.9568,97.4999
112.9238,97.4803
112.9185,97.4744
112.9131,97.4653
112.9089,97.4520
112.9058,97.4318
112.9037,97.4020
112.9024,97.3602
112.9016,97.3037
112.9013,97.2298
112.9012,97.1360
112.9013,97.0603
112.9015,96.9824
112.9022,96.9224
112.9034,96.8776
112.9053,96.8456
112.9082,96.8236
112.9121,96.8090
112.9172,96.7992
112.9238,96.7916
112.9530,96.7726
Z" /> 
<path style="fill:#000000; fill-opacity:1.0000; 
stroke:#000000; stroke-width:0.0100; stroke-opacity:1; 
stroke-linecap:round; stroke-linejoin:round;fill-rule:evenodd;"
d="M 112.4546,91.5328
112.5373,91.5601
112.6124,91.6055
112.6843,91.6713
112.7228,91.7156
112.7623,91.7740
112.7874,91.8346
112.8009,91.9039
112.8049,91.9882
112.8047,92.0343
112.8025,92.0754
112.7969,92.1076
112.7866,92.1381
112.7701,92.1745
112.7562,92.2017
112.6977,92.2874
112.6256,92.3566
112.5419,92.4077
112.4485,92.4393
112.4154,92.4462
112.3750,92.4531
112.3420,92.4549
112.3077,92.4519
112.2632,92.4444
112.2119,92.4320
112.1214,92.3941
112.0423,92.3398
111.9765,92.2718
111.9258,92.1925
111.8921,92.1047
111.8773,92.0108
111.8831,91.9135
111.9094,91.8172
111.9544,91.7285
112.0154,91.6534
112.0902,91.5936
112.1768,91.5508
112.2730,91.5266
112.3769,91.5226
Z" /> 
<path style="fill:#000000; fill-opacity:1.0000; 
stroke:#000000; stroke-width:0.0100; stroke-opacity:1; 
stroke-linecap:round; stroke-linejoin:round;fill-rule:evenodd;"
d="M 105.1558,96.7691
105.2499,96.7692
105.3244,96.7695
105.3818,96.7702
105.4246,96.7715
105.4553,96.7735
105.4764,96.7764
105.4904,96.7803
105.4997,96.7853
105.5070,96.7916
105.5258,96.8244
105.5273,96.8619
105.5109,96.8952
105.5096,96.8966
105.4984,96.9050
105.4813,96.9105
105.4541,96.9138
105.4127,96.9154
105.3529,96.9158
105.2135,96.9158
105.2135,97.1796
105.2134,97.2554
105.2130,97.3221
105.2120,97.3719
105.2103,97.4078
105.2074,97.4329
105.2033,97.4501
105.1976,97.4625
105.1901,97.4731
105.1878,97.4759
105.1566,97.4985
105.1223,97.5001
105.0893,97.4803
105.0824,97.4722
105.0769,97.4616
105.0729,97.4457
105.0701,97.4218
105.0683,97.3868
105.0673,97.3379
105.0669,97.2722
105.0668,97.1868
105.0668,96.9158
104.9208,96.9158
104.9097,96.9158
104.8532,96.9156
104.8144,96.9145
104.7890,96.9117
104.7728,96.9064
104.7617,96.8981
104.7513,96.8858
104.7354,96.8551
104.7385,96.8214
104.7642,96.7888
104.7691,96.7851
104.7793,96.7803
104.7948,96.7765
104.8179,96.7737
104.8512,96.7717
104.8971,96.7703
104.9582,96.7695
105.0369,96.7692
105.1357,96.7691
Z" /> 
<path style="fill:#000000; fill-opacity:1.0000; 
stroke:#000000; stroke-width:0.0100; stroke-opacity:1; 
stroke-linecap:round; stroke-linejoin:round;fill-rule:evenodd;"
d="M 104.4797,96.7916
104.4854,96.7978
104.4905,96.8060
104.4945,96.8178
104.4977,96.8353
104.5001,96.8605
104.5017,96.8957
104.5028,96.9429
104.5033,97.0042
104.5034,97.0817
104.5031,97.1776
104.5026,97.2940
104.5026,97.3082
104.5020,97.3699
104.5006,97.4136
104.4981,97.4430
104.4938,97.4619
104.4874,97.4740
104.4783,97.4831
104.4448,97.5005
104.4099,97.4976
104.3790,97.4731
104.3699,97.4599
104.3625,97.4414
104.3581,97.4153
104.3561,97.3768
104.3556,97.3207
104.3556,97.1980
103.8588,97.1980
103.8588,97.3329
103.8588,97.3687
103.8580,97.4150
103.8558,97.4455
103.8515,97.4646
103.8444,97.4764
103.8338,97.4853
103.8015,97.5003
103.7662,97.4977
103.7355,97.4731
103.7308,97.4668
103.7249,97.4563
103.7204,97.4424
103.7170,97.4223
103.7148,97.3934
103.7133,97.3528
103.7125,97.2978
103.7122,97.2258
103.7121,97.1339
103.7121,96.8245
103.7398,96.7968
103.7712,96.7745
103.8044,96.7718
103.8363,96.7916
103.8446,96.8014
103.8520,96.8173
103.8563,96.8413
103.8583,96.8781
103.8588,96.9328
103.8588,97.0513
104.3556,97.0513
104.3556,96.9358
104.3560,96.8841
104.3580,96.8496
104.3625,96.8270
104.3706,96.8111
104.3833,96.7968
104.4146,96.7745
104.4479,96.7718
Z" /> 
<path style="fill:#000000; fill-opacity:1.0000; 
stroke:#000000; stroke-width:0.0100; stroke-opacity:1; 
stroke-linecap:round; stroke-linejoin:round;fill-rule:evenodd;"
d="M 109.1851,97.3804
109.1832,97.4132
109.1802,97.4361
109.1762,97.4519
109.1707,97.4633
109.1638,97.4731
109.1404,97.5028
108.9747,97.5023
108.9399,97.5020
108.8414,97.4985
108.7605,97.4908
108.6934,97.4783
108.6365,97.4602
108.5862,97.4361
108.5828,97.4341
108.5250,97.3974
108.4826,97.3605
108.4498,97.3170
108.4206,97.2607
108.4163,97.2511
108.3938,97.1879
108.3880,97.1423
108.5373,97.1423
108.5429,97.1671
108.5486,97.1829
108.5815,97.2428
108.6289,97.2886
108.6927,97.3217
108.7749,97.3438
108.7777,97.3443
108.8239,97.3503
108.8803,97.3545
108.9353,97.3561
109.0292,97.3561
109.0292,96.9158
108.9417,96.9163
108.8747,96.9187
108.7823,96.9300
108.7030,96.9495
108.6411,96.9765
108.6101,96.9972
108.5820,97.0270
108.5587,97.0694
108.5515,97.0854
108.5397,97.1179
108.5373,97.1423
108.3880,97.1423
108.3868,97.1325
108.3954,97.0775
108.4195,97.0154
108.4203,97.0137
108.4608,96.9442
108.5115,96.8876
108.5742,96.8431
108.6508,96.8097
108.7430,96.7869
108.8527,96.7736
108.9817,96.7693
108.9853,96.7693
109.0453,96.7694
109.0872,96.7704
109.1153,96.7730
109.1339,96.7779
109.1472,96.7855
109.1595,96.7968
109.1872,96.8245
109.1872,97.1339
109.1872,97.1955
109.1869,97.2743
109.1863,97.3350
109.1858,97.3561
Z" /> 
<path style="fill:#000000; fill-opacity:1.0000; 
stroke:#000000; stroke-width:0.0100; stroke-opacity:1; 
stroke-linecap:round; stroke-linejoin:round;fill-rule:evenodd;"
d="M 116.2768,96.9544
116.2769,97.0350
116.2766,97.1360
116.2766,97.2116
116.2763,97.2895
116.2757,97.3495
116.2745,97.3943
116.2725,97.4263
116.2697,97.4483
116.2658,97.4629
116.2606,97.4727
116.2540,97.4803
116.2471,97.4865
116.2341,97.4938
116.2149,97.4986
116.1855,97.5013
116.1418,97.5025
116.0795,97.5028
116.0306,97.5025
115.9237,97.4980
115.8345,97.4880
115.7597,97.4714
115.6961,97.4474
115.6406,97.4153
115.5899,97.3742
115.5839,97.3683
115.5470,97.3198
115.5159,97.2590
115.4944,97.1948
115.4891,97.1560
115.6364,97.1560
115.6546,97.2070
115.6843,97.2529
115.7310,97.2953
115.7924,97.3251
115.8715,97.3442
115.8730,97.3445
115.9220,97.3503
115.9807,97.3544
116.0367,97.3560
116.1299,97.3561
116.1299,96.9158
116.0537,96.9158
116.0506,96.9158
115.9995,96.9178
115.9394,96.9225
115.8827,96.9290
115.8327,96.9383
115.7580,96.9646
115.7005,97.0039
115.6590,97.0569
115.6378,97.1082
115.6364,97.1560
115.4891,97.1560
115.4864,97.1360
115.4877,97.1147
115.5000,97.0573
115.5225,96.9974
115.5517,96.9434
115.5842,96.9035
115.6037,96.8865
115.6584,96.8473
115.7187,96.8172
115.7879,96.7952
115.8693,96.7805
115.9662,96.7723
116.0819,96.7695
116.1214,96.7691
116.1671,96.7687
116.2029,96.7705
116.2300,96.7767
116.2496,96.7898
116.2628,96.8118
116.2710,96.8451
116.2753,96.8919
116.2759,96.9158
Z" /> 
<path style="fill:#000000; fill-opacity:1.0000; 
stroke:#000000; stroke-width:0.0100; stroke-opacity:1; 
stroke-linecap:round; stroke-linejoin:round;fill-rule:evenodd;"
d="M 111.3319,96.7679
111.3433,96.7740
111.3538,96.7847
111.3651,96.7988
111.3696,96.8048
111.3756,96.8153
111.3802,96.8291
111.3835,96.8490
111.3858,96.8777
111.3873,96.9180
111.3881,96.9727
111.3885,97.0444
111.3885,97.1360
111.3885,97.1945
111.3883,97.2736
111.3877,97.3345
111.3865,97.3801
111.3845,97.4130
111.3816,97.4360
111.3775,97.4518
111.3721,97.4633
111.3651,97.4731
111.3347,97.4975
111.2998,97.5004
111.2628,97.4813
111.2586,97.4778
111.2504,97.4693
111.2444,97.4577
111.2400,97.4399
111.2368,97.4125
111.2345,97.3724
111.2325,97.3161
111.2305,97.2406
111.2248,97.0215
110.9596,97.2621
110.8857,97.3289
110.8205,97.3870
110.7683,97.4319
110.7273,97.4649
110.6955,97.4869
110.6710,97.4991
110.6521,97.5026
110.6369,97.4986
110.6234,97.4882
110.6099,97.4725
110.6037,97.4640
110.5981,97.4534
110.5938,97.4393
110.5909,97.4188
110.5890,97.3893
110.5881,97.3482
110.5880,97.2925
110.5884,97.2198
110.5894,97.1272
110.5927,96.8122
110.6193,96.7906
110.6454,96.7744
110.6782,96.7717
110.7128,96.7906
110.7171,96.7942
110.7252,96.8027
110.7312,96.8143
110.7356,96.8322
110.7387,96.8597
110.7411,96.9000
110.7430,96.9564
110.7451,97.0320
110.7507,97.2519
110.9313,97.0881
111.0181,97.0095
111.0938,96.9411
111.1560,96.8857
111.2061,96.8423
111.2457,96.8099
111.2765,96.7873
111.3001,96.7734
111.3180,96.7673
Z" /> 
<path style="fill:#000000; fill-opacity:1.0000; 
stroke:#000000; stroke-width:0.0100; stroke-opacity:1; 
stroke-linecap:round; stroke-linejoin:round;fill-rule:evenodd;"
d="M 112.1291,96.7742
112.2352,96.7905
112.3290,96.8185
112.4078,96.8575
112.4687,96.9063
112.4948,96.9392
112.5243,96.9884
112.5496,97.0423
112.5672,97.0934
112.5739,97.1345
112.5723,97.1543
112.5594,97.2056
112.5362,97.2621
112.5063,97.3160
112.4732,97.3595
112.4630,97.3699
112.3959,97.4217
112.3158,97.4616
112.2296,97.4860
112.1746,97.4941
112.0811,97.5007
111.9914,97.4986
111.9089,97.4883
111.8373,97.4705
111.7802,97.4455
111.7413,97.4140
111.7399,97.4120
111.7328,97.3868
111.7286,97.3395
111.7272,97.2701
111.7281,97.2078
111.7328,97.1605
111.7445,97.1284
111.7662,97.1088
111.8012,97.0991
111.8525,97.0964
111.9231,97.0982
111.9717,97.1012
112.0219,97.1094
112.0544,97.1234
112.0719,97.1447
112.0770,97.1744
112.0769,97.1789
112.0682,97.2137
112.0442,97.2371
112.0029,97.2503
111.9424,97.2545
111.8740,97.2545
111.8740,97.2928
111.8740,97.3020
111.8762,97.3192
111.8855,97.3295
111.9069,97.3365
111.9454,97.3436
111.9509,97.3446
112.0479,97.3545
112.1379,97.3516
112.2188,97.3368
112.2885,97.3113
112.3448,97.2760
112.3857,97.2319
112.4091,97.1800
112.4127,97.1214
112.4071,97.0925
112.3805,97.0366
112.3343,96.9909
112.2693,96.9561
112.1862,96.9327
112.1616,96.9282
112.0722,96.9177
111.9924,96.9190
111.9143,96.9319
111.8792,96.9387
111.8337,96.9397
111.8024,96.9272
111.7823,96.9004
111.7759,96.8721
111.7854,96.8409
111.7947,96.8275
111.8289,96.8040
111.8816,96.7861
111.9501,96.7746
112.0320,96.7702
Z" /> 
<path style="fill:#000000; fill-opacity:1.0000; 
stroke:#000000; stroke-width:0.0100; stroke-opacity:1; 
stroke-linecap:round; stroke-linejoin:round;fill-rule:evenodd;"
d="M 110.1798,96.7988
110.1848,96.8055
110.1906,96.8161
110.1951,96.8302
110.1983,96.8505
110.2006,96.8798
110.2020,96.9207
110.2028,96.9761
110.2031,97.0486
110.2032,97.1410
110.2032,97.2069
110.2029,97.2852
110.2023,97.3455
110.2011,97.3904
110.1992,97.4226
110.1963,97.4448
110.1923,97.4597
110.1870,97.4699
110.1802,97.4781
110.1757,97.4828
110.1674,97.4893
110.1561,97.4942
110.1388,97.4977
110.1129,97.5002
110.0754,97.5017
110.0238,97.5025
109.9551,97.5028
109.8666,97.5028
109.8469,97.5028
109.7599,97.5026
109.6923,97.5018
109.6413,97.5004
109.6044,97.4982
109.5788,97.4950
109.5619,97.4908
109.5510,97.4853
109.5405,97.4753
109.5272,97.4442
109.5284,97.4083
109.5446,97.3767
109.5467,97.3745
109.5554,97.3682
109.5688,97.3635
109.5898,97.3602
109.6214,97.3581
109.6666,97.3568
109.7284,97.3562
109.8098,97.3561
110.0564,97.3561
110.0564,97.1980
109.8940,97.1980
109.8583,97.1980
109.8026,97.1972
109.7634,97.1952
109.7370,97.1915
109.7193,97.1858
109.7063,97.1776
109.7027,97.1744
109.6843,97.1434
109.6836,97.1071
109.7012,97.0735
109.7012,97.0734
109.7109,97.0648
109.7242,97.0587
109.7449,97.0548
109.7768,97.0526
109.8237,97.0515
109.8894,97.0513
110.0576,97.0513
110.0542,96.9864
110.0508,96.9215
109.8087,96.9184
109.7837,96.9181
109.7021,96.9166
109.6398,96.9142
109.5942,96.9102
109.5627,96.9039
109.5427,96.8946
109.5316,96.8815
109.5269,96.8640
109.5259,96.8413
109.5259,96.8390
109.5270,96.8189
109.5318,96.8031
109.5426,96.7911
109.5618,96.7823
109.5917,96.7762
109.6348,96.7723
109.6933,96.7702
109.7697,96.7693
109.8662,96.7691
110.1564,96.7691
Z" /> 
<path style="fill:#000000; fill-opacity:1.0000; 
stroke:#000000; stroke-width:0.0100; stroke-opacity:1; 
stroke-linecap:round; stroke-linejoin:round;fill-rule:evenodd;"
d="M 114.8567,96.7691
114.9338,96.7693
114.9928,96.7699
115.0364,96.7711
115.0674,96.7731
115.0886,96.7761
115.1029,96.7804
115.1129,96.7862
115.1216,96.7936
115.1234,96.7953
115.1306,96.8028
115.1363,96.8118
115.1405,96.8250
115.1436,96.8449
115.1456,96.8742
115.1468,96.9155
115.1475,96.9714
115.1477,97.0447
115.1477,97.1379
115.1477,97.2107
115.1474,97.2889
115.1468,97.3491
115.1456,97.3940
115.1437,97.4262
115.1408,97.4482
115.1369,97.4629
115.1318,97.4727
115.1252,97.4803
115.1218,97.4834
115.1133,97.4896
115.1013,97.4942
115.0831,97.4977
115.0559,97.5000
115.0171,97.5016
114.9639,97.5024
114.8936,97.5028
114.8034,97.5028
114.7613,97.5028
114.6802,97.5027
114.6177,97.5021
114.5711,97.5010
114.5377,97.4991
114.5148,97.4963
114.4997,97.4923
114.4895,97.4871
114.4817,97.4803
114.4670,97.4587
114.4591,97.4295
114.4646,97.4056
114.4817,97.3787
114.4867,97.3741
114.4964,97.3678
114.5106,97.3631
114.5321,97.3599
114.5640,97.3579
114.6093,97.3567
114.6712,97.3562
114.7526,97.3561
115.0010,97.3561
115.0010,97.1980
114.8398,97.1980
114.8040,97.1979
114.7384,97.1962
114.6911,97.1917
114.6594,97.1836
114.6403,97.1709
114.6309,97.1526
114.6284,97.1277
114.6292,97.1075
114.6345,97.0857
114.6473,97.0703
114.6706,97.0603
114.7075,97.0546
114.7610,97.0519
114.8340,97.0513
115.0021,97.0513
114.9987,96.9864
114.9953,96.9215
114.7476,96.9184
114.6850,96.9175
114.6166,96.9161
114.5657,96.9142
114.5294,96.9115
114.5049,96.9079
114.4892,96.9031
114.4795,96.8969
114.4735,96.8905
114.4605,96.8588
114.4640,96.8231
114.4838,96.7921
114.4871,96.7892
114.4960,96.7828
114.5082,96.7780
114.5262,96.7744
114.5528,96.7719
114.5910,96.7704
114.6434,96.7695
114.7128,96.7691
114.8020,96.7691
Z" /> 
<path style="fill:#000000; fill-opacity:1.0000; 
stroke:#000000; stroke-width:0.0100; stroke-opacity:1; 
stroke-linecap:round; stroke-linejoin:round;fill-rule:evenodd;"
d="M 106.2897,96.7785
106.3077,96.7970
106.3283,96.8281
106.3531,96.8738
106.3837,96.9361
106.4218,97.0171
106.4365,97.0485
106.4662,97.1116
106.4923,97.1662
106.5133,97.2093
106.5277,97.2378
106.5342,97.2488
106.5356,97.2482
106.5455,97.2342
106.5628,97.2047
106.5854,97.1631
106.6113,97.1129
106.6273,97.0814
106.6563,97.0261
106.6787,96.9870
106.6970,96.9616
106.7131,96.9468
106.7293,96.9400
106.7479,96.9384
106.7584,96.9389
106.7745,96.9431
106.7898,96.9539
106.8064,96.9742
106.8264,97.0067
106.8518,97.0540
106.8848,97.1190
106.8945,97.1383
106.9189,97.1849
106.9392,97.2211
106.9533,97.2435
106.9595,97.2488
106.9608,97.2456
106.9702,97.2247
106.9871,97.1877
107.0100,97.1379
107.0375,97.0782
107.0683,97.0119
107.0950,96.9547
107.1246,96.8927
107.1477,96.8469
107.1656,96.8149
107.1800,96.7940
107.1922,96.7817
107.2036,96.7755
107.2130,96.7726
107.2381,96.7724
107.2653,96.7878
107.2666,96.7888
107.2887,96.8114
107.2997,96.8336
107.2998,96.8343
107.2952,96.8519
107.2824,96.8865
107.2626,96.9348
107.2374,96.9938
107.2081,97.0604
107.1762,97.1313
107.1432,97.2035
107.1104,97.2739
107.0793,97.3393
107.0513,97.3966
107.0278,97.4427
107.0103,97.4744
107.0002,97.4887
106.9657,97.5021
106.9240,97.4957
106.9187,97.4910
106.9029,97.4689
106.8806,97.4321
106.8542,97.3844
106.8258,97.3294
106.7460,97.1701
106.6728,97.3167
106.6631,97.3360
106.6361,97.3884
106.6121,97.4332
106.5933,97.4662
106.5821,97.4831
106.5810,97.4843
106.5529,97.4996
106.5178,97.5013
106.4868,97.4887
106.4843,97.4859
106.4721,97.4653
106.4524,97.4277
106.4264,97.3759
106.3957,97.3124
106.3614,97.2400
106.3248,97.1612
106.3046,97.1171
106.2678,97.0364
106.2394,96.9727
106.2183,96.9238
106.2039,96.8873
106.1950,96.8609
106.1910,96.8424
106.1909,96.8294
106.1937,96.8196
106.2084,96.7987
106.2350,96.7784
106.2357,96.7780
106.2553,96.7710
106.2728,96.7705
Z" /> 
<path style="fill:#000000; fill-opacity:1.0000; 
stroke:#000000; stroke-width:0.0100; stroke-opacity:1; 
stroke-linecap:round; stroke-linejoin:round;fill-rule:evenodd;"
d="M 113.8409,96.7699
113.9071,96.7754
113.9624,96.7850
114.0133,96.7998
114.0846,96.8330
114.1358,96.8756
114.1666,96.9277
114.1769,96.9890
114.1760,97.0202
114.1702,97.0450
114.1554,97.0667
114.1274,97.0940
114.1194,97.1014
114.0957,97.1223
114.0733,97.1393
114.0493,97.1532
114.0206,97.1651
113.9845,97.1757
113.9378,97.1861
113.8776,97.1971
113.8011,97.2097
113.7052,97.2248
113.6868,97.2278
113.6245,97.2415
113.5793,97.2572
113.5530,97.2743
113.5474,97.2919
113.5501,97.2962
113.5680,97.3112
113.5961,97.3279
113.6089,97.3339
113.6302,97.3410
113.6566,97.3458
113.6925,97.3486
113.7421,97.3500
113.8100,97.3502
113.8278,97.3502
113.8954,97.3491
113.9603,97.3468
114.0160,97.3438
114.0557,97.3401
114.0912,97.3361
114.1204,97.3353
114.1393,97.3399
114.1544,97.3506
114.1581,97.3541
114.1744,97.3859
114.1731,97.4216
114.1542,97.4522
114.1338,97.4638
114.0978,97.4765
114.0554,97.4865
114.0519,97.4871
114.0093,97.4924
113.9519,97.4967
113.8868,97.4998
113.8213,97.5012
113.8051,97.5012
113.7067,97.4987
113.6267,97.4907
113.5615,97.4762
113.5078,97.4541
113.4622,97.4236
113.4213,97.3835
113.4012,97.3573
113.3896,97.3277
113.3867,97.2880
113.3868,97.2760
113.3907,97.2433
113.4031,97.2168
113.4282,97.1860
113.4494,97.1638
113.4758,97.1413
113.5056,97.1229
113.5418,97.1077
113.5877,97.0944
113.6465,97.0822
113.7215,97.0699
113.8156,97.0564
113.8610,97.0494
113.9289,97.0348
113.9780,97.0183
114.0076,97.0004
114.0169,96.9817
114.0050,96.9626
113.9714,96.9438
113.9684,96.9426
113.9220,96.9305
113.8594,96.9223
113.7859,96.9181
113.7072,96.9182
113.6287,96.9226
113.5560,96.9315
113.5521,96.9322
113.5033,96.9399
113.4710,96.9435
113.4500,96.9429
113.4350,96.9380
113.4205,96.9286
113.4194,96.9277
113.3948,96.8974
113.3901,96.8618
113.4059,96.8273
113.4104,96.8228
113.4400,96.8077
113.4870,96.7946
113.5473,96.7837
113.6169,96.7756
113.6917,96.7704
113.7677,96.7684
Z" /> 
<path style="fill:#000000; fill-opacity:1.0000; 
stroke:#000000; stroke-width:0.0100; stroke-opacity:1; 
stroke-linecap:round; stroke-linejoin:round;fill-rule:evenodd;"
d="M 109.9887,92.4620
110.0843,92.4795
110.2486,92.5246
110.4026,92.5877
110.5485,92.6699
110.6885,92.7725
110.8246,92.8964
110.8685,92.9417
110.9808,93.0739
111.0740,93.2118
111.1507,93.3597
111.2136,93.5218
111.2174,93.5334
111.2675,93.7194
111.3009,93.9155
111.3176,94.1176
111.3176,94.3213
111.3008,94.5226
111.2673,94.7171
111.2170,94.9008
111.1732,95.0181
111.0953,95.1810
111.0018,95.3349
110.8948,95.4767
110.7765,95.6032
110.6491,95.7114
110.5716,95.7641
110.4447,95.8337
110.3072,95.8925
110.1657,95.9376
110.0267,95.9664
110.0126,95.9681
109.9692,95.9714
109.9117,95.9743
109.8461,95.9764
109.7782,95.9775
109.6514,95.9751
109.5037,95.9621
109.3658,95.9371
109.2320,95.8993
109.2086,95.8909
109.1606,95.8714
109.1041,95.8465
109.0424,95.8177
108.9786,95.7868
108.9159,95.7553
108.8577,95.7249
108.8071,95.6973
108.7674,95.6740
108.7419,95.6567
108.7336,95.6471
108.7351,95.6440
108.7462,95.6241
108.7671,95.5884
108.7963,95.5395
108.8322,95.4796
108.8734,95.4114
108.9185,95.3373
109.0998,95.0400
109.1463,95.0845
109.2377,95.1629
109.3513,95.2374
109.4691,95.2915
109.5896,95.3243
109.7111,95.3352
109.7526,95.3339
109.8701,95.3156
109.9801,95.2766
110.0814,95.2177
110.1729,95.1396
110.2534,95.0431
110.3216,94.9290
110.3379,94.8947
110.3840,94.7712
110.4191,94.6329
110.4432,94.4836
110.4562,94.3270
110.4579,94.1670
110.4484,94.0073
110.4276,93.8518
110.3953,93.7044
110.3514,93.5687
110.3140,93.4821
110.2492,93.3687
110.1738,93.2751
110.0874,93.2010
109.9898,93.1461
109.8806,93.1102
109.7594,93.0931
109.6900,93.0919
109.5672,93.1061
109.4517,93.1412
109.3450,93.1967
109.2485,93.2720
109.2327,93.2864
109.2021,93.3130
109.1798,93.3301
109.1697,93.3348
109.1677,93.3326
109.1532,93.3137
109.1294,93.2804
109.0980,93.2354
109.0610,93.1814
109.0201,93.1213
108.9772,93.0577
108.9342,92.9935
108.8929,92.9313
108.8551,92.8740
108.8227,92.8243
108.7976,92.7849
108.7815,92.7586
108.7764,92.7481
108.7810,92.7439
108.8003,92.7389
108.8098,92.7364
108.8378,92.7252
108.8794,92.7068
108.9310,92.6827
108.9887,92.6547
109.0000,92.6492
109.1777,92.5699
109.3475,92.5104
109.5114,92.4702
109.6716,92.4491
109.8300,92.4465
Z" /> 
<path style="fill:#000000; fill-opacity:1.0000; 
stroke:#000000; stroke-width:0.0100; stroke-opacity:1; 
stroke-linecap:round; stroke-linejoin:round;fill-rule:evenodd;"
d="M 106.1860,94.7427
106.1853,94.8202
106.1767,94.9716
106.1578,95.1083
106.1278,95.2343
106.0858,95.3536
106.0310,95.4704
105.9642,95.5812
105.8734,95.6947
105.7697,95.7902
105.6539,95.8671
105.5266,95.9248
105.3885,95.9629
105.3508,95.9687
105.2718,95.9744
105.1836,95.9746
105.0942,95.9695
105.0114,95.9596
104.9429,95.9450
104.9120,95.9354
104.8347,95.9051
104.7577,95.8676
104.6882,95.8266
104.6336,95.7859
104.6109,95.7665
104.5882,95.7487
104.5768,95.7418
104.5755,95.7434
104.5727,95.7612
104.5708,95.7944
104.5700,95.8377
104.5700,95.9337
103.7119,95.9337
103.7462,95.8730
103.7514,95.8639
103.7597,95.8492
103.7673,95.8352
103.7741,95.8205
103.7802,95.8042
103.7857,95.7852
103.7905,95.7623
103.7947,95.7344
103.7984,95.7005
103.8015,95.6594
103.8042,95.6100
103.8065,95.5513
103.8083,95.4821
103.8098,95.4013
103.8110,95.3079
103.8118,95.2007
103.8125,95.0786
103.8129,94.9406
103.8132,94.7855
103.8134,94.6122
103.8134,94.4196
103.8135,94.2067
103.8135,94.0705
104.6152,94.0705
104.6152,95.2207
104.6858,95.2671
104.7264,95.2908
104.7805,95.3166
104.8297,95.3348
104.8932,95.3506
104.9893,95.3615
105.0739,95.3534
105.1472,95.3258
105.2096,95.2786
105.2615,95.2117
105.3032,95.1246
105.3350,95.0173
105.3375,95.0050
105.3460,94.9438
105.3517,94.8667
105.3546,94.7790
105.3548,94.6859
105.3523,94.5927
105.3473,94.5046
105.3396,94.4268
105.3294,94.3645
105.3282,94.3587
105.2991,94.2481
105.2646,94.1576
105.2235,94.0850
105.1745,94.0282
105.1166,93.9852
105.0846,93.9696
105.0118,93.9507
104.9304,93.9475
104.8453,93.9594
104.7611,93.9860
104.6826,94.0270
104.6152,94.0705
103.8135,94.0705
103.8135,93.9722
103.8137,92.2874
104.7190,92.2874
104.6946,92.3241
104.6883,92.3336
104.6622,92.3800
104.6445,92.4271
104.6329,92.4823
104.6253,92.5527
104.6248,92.5596
104.6231,92.5976
104.6214,92.6516
104.6200,92.7187
104.6187,92.7963
104.6177,92.8815
104.6168,92.9717
104.6162,93.0641
104.6158,93.1559
104.6157,93.2444
104.6158,93.3269
104.6162,93.4005
104.6169,93.4625
104.6178,93.5103
104.6191,93.5409
104.6207,93.5517
104.6290,93.5473
104.6506,93.5324
104.6800,93.5104
104.7289,93.4762
104.8171,93.4297
104.9159,93.3960
105.0285,93.3742
105.1582,93.3633
105.2507,93.3622
105.3720,93.3720
105.4821,93.3962
105.5854,93.4358
105.6863,93.4919
105.7315,93.5229
105.8369,93.6141
105.9285,93.7231
106.0063,93.8497
106.0702,93.9938
106.1202,94.1553
106.1562,94.3341
106.1781,94.5299
106.1839,94.6859
Z" /> 
<path style="fill:#000000; fill-opacity:1.0000; 
stroke:#000000; stroke-width:0.0100; stroke-opacity:1; 
stroke-linecap:round; stroke-linejoin:round;fill-rule:evenodd;"
d="M 108.7278,95.1435
108.7273,95.1774
108.7236,95.2522
108.7160,95.3144
108.7037,95.3710
108.6593,95.4971
108.5964,95.6117
108.5162,95.7126
108.4197,95.7989
108.3078,95.8699
108.1814,95.9248
108.0414,95.9626
108.0051,95.9684
107.9262,95.9743
107.8378,95.9746
107.7481,95.9697
107.6647,95.9597
107.5957,95.9450
107.5092,95.9147
107.3993,95.8601
107.3020,95.7925
107.2399,95.7416
107.2366,95.8376
107.2333,95.9337
106.8104,95.9337
106.7995,95.9337
106.7051,95.9334
106.6183,95.9326
106.5418,95.9315
106.4780,95.9299
106.4294,95.9281
106.3984,95.9261
106.3876,95.9239
106.3876,95.9235
106.3946,95.9079
106.4104,95.8851
106.4147,95.8796
106.4258,95.8656
106.4353,95.8522
106.4435,95.8377
106.4504,95.8206
106.4561,95.7990
106.4609,95.7715
106.4647,95.7363
106.4678,95.6918
106.4703,95.6362
106.4723,95.5681
106.4739,95.4856
106.4752,95.3872
106.4764,95.2712
106.4776,95.1360
106.4786,95.0246
107.2794,95.0246
107.2794,95.2205
107.3240,95.2770
107.3368,95.2922
107.3836,95.3348
107.4443,95.3707
107.4549,95.3758
107.4937,95.3927
107.5287,95.4029
107.5687,95.4083
107.6225,95.4110
107.6406,95.4114
107.7160,95.4085
107.7767,95.3966
107.8285,95.3740
107.8767,95.3392
107.8818,95.3348
107.9303,95.2792
107.9585,95.2153
107.9678,95.1403
107.9605,95.0687
107.9358,95.0056
107.8912,94.9478
107.8363,94.9008
107.7639,94.8610
107.6773,94.8333
107.5747,94.8171
107.4539,94.8118
107.4450,94.8119
107.3897,94.8127
107.3427,94.8145
107.3090,94.8171
107.2930,94.8203
107.2889,94.8267
107.2846,94.8489
107.2816,94.8880
107.2799,94.9459
107.2794,95.0246
106.4786,95.0246
106.4790,94.9798
106.4802,94.8370
106.4817,94.6919
106.4832,94.5660
106.4849,94.4574
106.4871,94.3643
106.4897,94.2849
106.4929,94.2173
106.4969,94.1596
106.5017,94.1102
106.5076,94.0670
106.5146,94.0284
106.5229,93.9924
106.5326,93.9573
106.5438,93.9211
106.5566,93.8822
106.5721,93.8391
106.6150,93.7469
106.6687,93.6671
106.7376,93.5930
106.8152,93.5294
106.9198,93.4677
107.0392,93.4202
107.1745,93.3866
107.3264,93.3666
107.4959,93.3599
107.5539,93.3603
107.6194,93.3623
107.6807,93.3667
107.7421,93.3740
107.8079,93.3850
107.8825,93.4001
107.9702,93.4202
108.0752,93.4458
108.1038,93.4528
108.1791,93.4708
108.2494,93.4868
108.3106,93.5000
108.3584,93.5095
108.3885,93.5142
108.4168,93.5179
108.4431,93.5232
108.4531,93.5279
108.4500,93.5368
108.4392,93.5641
108.4219,93.6069
108.3991,93.6624
108.3721,93.7278
108.3421,93.8001
108.3355,93.8159
108.2969,93.9065
108.2658,93.9762
108.2419,94.0254
108.2252,94.0544
108.2155,94.0635
108.2078,94.0614
108.1814,94.0518
108.1430,94.0362
108.0978,94.0168
108.0033,93.9788
107.8665,93.9378
107.7253,93.9126
107.6873,93.9086
107.5841,93.9064
107.4970,93.9196
107.4251,93.9488
107.3677,93.9945
107.3239,94.0574
107.2928,94.1381
107.2735,94.2372
107.2660,94.2962
107.4279,94.2894
107.5545,94.2878
107.7060,94.2942
107.8544,94.3088
107.9906,94.3309
108.0552,94.3458
108.1875,94.3887
108.3098,94.4453
108.4197,94.5140
108.5149,94.5932
108.5930,94.6812
108.6516,94.7765
108.6756,94.8289
108.7012,94.8996
108.7175,94.9708
108.7258,95.0497
108.7277,95.1403
Z" /> 
<path style="fill:#000000; fill-opacity:1.0000; 
stroke:#000000; stroke-width:0.0100; stroke-opacity:1; 
stroke-linecap:round; stroke-linejoin:round;fill-rule:evenodd;"
d="M 116.2756,92.6118
116.2761,92.7430
116.2764,92.8902
116.2765,93.0543
116.2766,93.2364
116.2767,93.4372
116.2767,93.6577
116.2766,93.8990
116.2766,94.1619
116.2766,94.2040
116.2766,94.4647
116.2767,94.7038
116.2767,94.9224
116.2767,95.1213
116.2766,95.3015
116.2764,95.4640
116.2761,95.6097
116.2756,95.7394
116.2749,95.8542
116.2740,95.9550
116.2728,96.0427
116.2714,96.1183
116.2696,96.1826
116.2675,96.2367
116.2651,96.2814
116.2622,96.3177
116.2589,96.3465
116.2552,96.3687
116.2510,96.3854
116.2462,96.3974
116.2409,96.4056
116.2351,96.4111
116.2286,96.4146
116.2215,96.4173
116.2137,96.4199
116.2053,96.4235
116.2009,96.4251
116.1924,96.4271
116.1797,96.4289
116.1619,96.4306
116.1380,96.4320
116.1073,96.4334
116.0686,96.4346
116.0212,96.4357
115.9640,96.4367
115.8963,96.4375
115.8170,96.4383
115.7252,96.4389
115.6200,96.4394
115.5006,96.4399
115.3659,96.4403
115.2151,96.4406
115.0472,96.4409
114.8613,96.4411
114.6566,96.4412
114.4320,96.4413
114.1867,96.4414
113.9197,96.4414
113.8813,96.4414
113.6159,96.4415
113.3721,96.4415
113.1488,96.4415
112.9452,96.4415
112.7604,96.4414
112.5934,96.4412
112.4433,96.4409
112.3092,96.4405
112.1902,96.4399
112.0853,96.4391
111.9936,96.4381
111.9142,96.4368
111.8462,96.4353
111.7887,96.4336
111.7407,96.4315
111.7012,96.4290
111.6695,96.4263
111.6445,96.4231
111.6254,96.4196
111.6111,96.4156
111.6009,96.4112
111.5937,96.4063
111.5886,96.4009
111.5848,96.3950
111.5813,96.3885
111.5771,96.3815
111.5760,96.3797
111.5738,96.3742
111.5718,96.3659
111.5699,96.3538
111.5683,96.3371
111.5667,96.3147
111.5654,96.2857
111.5642,96.2493
111.5631,96.2044
111.5621,96.1501
111.5613,96.0854
111.5606,96.0095
111.5600,95.9213
111.5599,95.9125
111.8514,95.9125
111.8553,95.9138
111.8785,95.9158
111.9209,95.9176
111.9801,95.9192
112.0541,95.9205
112.1406,95.9215
112.2375,95.9222
112.3424,95.9224
113.0407,95.9224
114.1951,95.9224
114.1945,95.8462
114.1956,95.8042
114.2013,95.7683
114.2139,95.7308
114.2356,95.6826
114.2388,95.6759
114.2642,95.6264
114.2910,95.5784
114.3139,95.5415
114.3185,95.5348
114.3405,95.5036
114.3727,95.4587
114.4135,95.4021
114.4612,95.3362
114.5145,95.2630
114.5717,95.1845
114.6312,95.1031
114.6914,95.0207
114.7509,94.9395
114.8081,94.8617
114.8614,94.7894
114.9092,94.7247
114.9500,94.6698
114.9822,94.6267
115.0042,94.5976
115.0146,94.5847
115.0190,94.5804
115.0232,94.5783
115.0266,94.5809
115.0293,94.5900
115.0313,94.6073
115.0327,94.6346
115.0336,94.6738
115.0340,94.7265
115.0339,94.7947
115.0335,94.8801
115.0327,94.9844
115.0317,95.1096
115.0313,95.1543
115.0302,95.2754
115.0290,95.3767
115.0276,95.4603
115.0261,95.5282
115.0242,95.5826
115.0220,95.6255
115.0192,95.6591
115.0160,95.6854
115.0121,95.7064
115.0075,95.7244
114.9992,95.7508
114.9756,95.8128
114.9497,95.8656
114.9245,95.9026
114.9233,95.9041
114.9212,95.9084
114.9233,95.9120
114.9316,95.9150
114.9479,95.9173
114.9740,95.9191
115.0118,95.9204
115.0630,95.9213
115.1294,95.9219
115.2130,95.9222
115.3155,95.9224
115.4387,95.9224
115.9703,95.9224
115.9315,95.8648
115.9254,95.8559
115.9150,95.8411
115.9056,95.8274
115.8972,95.8138
115.8897,95.7989
115.8832,95.7817
115.8774,95.7609
115.8725,95.7353
115.8683,95.7038
115.8647,95.6651
115.8617,95.6181
115.8593,95.5616
115.8574,95.4944
115.8560,95.4153
115.8549,95.3232
115.8541,95.2167
115.8536,95.0949
115.8534,94.9563
115.8532,94.8000
115.8532,94.6246
115.8533,94.4291
115.8533,94.2121
115.8533,94.0895
115.8532,93.8844
115.8532,93.7001
115.8533,93.5353
115.8535,93.3889
115.8539,93.2597
115.8545,93.1464
115.8554,93.0480
115.8567,92.9631
115.8585,92.8907
115.8607,92.8296
115.8634,92.7785
115.8667,92.7363
115.8707,92.7017
115.8753,92.6737
115.8807,92.6510
115.8870,92.6324
115.8941,92.6167
115.9021,92.6028
115.9112,92.5894
115.9212,92.5755
115.9324,92.5597
115.9722,92.5019
114.9123,92.5019
114.9503,92.5650
114.9650,92.5900
114.9795,92.6176
114.9916,92.6457
115.0015,92.6766
115.0095,92.7123
115.0158,92.7553
115.0206,92.8076
115.0242,92.8714
115.0269,92.9490
115.0289,93.0426
115.0304,93.1543
115.0317,93.2864
115.0326,93.4064
115.0330,93.5231
115.0328,93.6185
115.0319,93.6926
115.0303,93.7449
115.0281,93.7751
115.0252,93.7832
115.0222,93.7799
115.0040,93.7584
114.9743,93.7219
114.9346,93.6724
114.8868,93.6122
114.8323,93.5433
114.7730,93.4679
114.7105,93.3882
114.6464,93.3062
114.5825,93.2242
114.5203,93.1442
114.4617,93.0684
114.4081,92.9990
114.3614,92.9380
114.3232,92.8877
114.2952,92.8501
114.2789,92.8275
114.2336,92.7552
114.1937,92.6755
114.1721,92.6072
114.1688,92.5498
114.1741,92.5019
113.0424,92.5021
113.0819,92.5327
113.0912,92.5401
113.1542,92.5944
113.2230,92.6623
113.2996,92.7455
113.3859,92.8462
113.4031,92.8668
113.4438,92.9164
113.4936,92.9773
113.5510,93.0479
113.6146,93.1264
113.6831,93.2112
113.7551,93.3005
113.8293,93.3927
113.8445,93.4117
113.9042,93.4861
113.9787,93.5788
114.0511,93.6694
114.1203,93.7560
114.1848,93.8369
114.2433,93.9105
114.2945,93.9750
114.3368,94.0288
114.3691,94.0702
114.3899,94.0973
114.3979,94.1087
114.3961,94.1128
114.3832,94.1333
114.3589,94.1696
114.3242,94.2198
114.2805,94.2825
114.2288,94.3559
114.1703,94.4385
114.1062,94.5286
114.0376,94.6246
113.9658,94.7249
113.8919,94.8278
113.8171,94.9316
113.7425,95.0349
113.6694,95.1359
113.5988,95.2330
113.5320,95.3246
113.4701,95.4090
113.4144,95.4847
113.3659,95.5499
113.3258,95.6031
113.2954,95.6427
113.2749,95.6680
113.2289,95.7223
113.1786,95.7788
113.1318,95.8287
113.0407,95.9224
112.3424,95.9224
112.4114,95.9223
112.5096,95.9221
112.5990,95.9216
112.6773,95.9210
112.7422,95.9202
112.7914,95.9193
112.8226,95.9183
112.8335,95.9173
112.8323,95.9140
112.8222,95.8965
112.8050,95.8702
112.7965,95.8577
112.7873,95.8436
112.7792,95.8294
112.7722,95.8135
112.7661,95.7946
112.7610,95.7713
112.7567,95.7423
112.7531,95.7060
112.7503,95.6612
112.7481,95.6063
112.7465,95.5401
112.7454,95.4611
112.7448,95.3679
112.7445,95.2591
112.7445,95.1333
112.7448,94.9891
112.7452,94.8252
112.7457,94.6401
112.7463,94.4612
112.7468,94.3024
112.7473,94.1633
112.7479,94.0427
112.7486,93.9390
112.7494,93.8510
112.7503,93.7772
112.7514,93.7163
112.7527,93.6668
112.7542,93.6273
112.7560,93.5965
112.7581,93.5729
112.7605,93.5553
112.7632,93.5421
112.7664,93.5319
112.7699,93.5235
112.7738,93.5154
112.7934,93.4785
112.8122,93.4484
112.8133,93.4469
112.8276,93.4247
112.8335,93.4117
112.8325,93.4112
112.8153,93.4098
112.7787,93.4085
112.7250,93.4073
112.6566,93.4063
112.5761,93.4056
112.4857,93.4051
112.3879,93.4050
111.9422,93.4050
111.9391,94.5818
111.9360,95.7587
111.9094,95.8176
111.8975,95.8422
111.8802,95.8724
111.8671,95.8896
111.8591,95.8976
111.8514,95.9125
111.5599,95.9125
111.5595,95.8200
111.5590,95.7046
111.5587,95.5742
111.5584,95.4277
111.5582,95.2643
111.5581,95.0831
111.5580,94.8830
111.5579,94.6632
111.5579,94.4227
111.5579,94.1606
111.5579,91.9690
111.5962,91.9306
111.6234,91.9069
111.6503,91.8951
111.6866,91.8923
111.7385,91.8923
111.7385,91.9802
111.7404,92.0301
111.7592,92.1405
111.7962,92.2420
111.8494,92.3332
111.9165,92.4127
111.9956,92.4792
112.0845,92.5314
112.1811,92.5679
112.2833,92.5874
112.3889,92.5886
112.4960,92.5700
112.6022,92.5304
112.6992,92.4725
112.7843,92.3977
112.8530,92.3096
112.9039,92.2106
112.9355,92.1030
112.9464,91.9891
112.9464,91.8923
114.5668,91.8923
114.7779,91.8923
114.9820,91.8923
115.1657,91.8924
115.3300,91.8926
115.4760,91.8928
115.6049,91.8932
115.7177,91.8936
115.8155,91.8941
115.8994,91.8948
115.9705,91.8956
116.0299,91.8965
116.0788,91.8976
116.1181,91.8989
116.1490,91.9003
116.1725,91.9020
116.1899,91.9039
116.2021,91.9060
116.2103,91.9083
116.2155,91.9109
116.2215,91.9144
116.2283,91.9180
116.2345,91.9215
116.2401,91.9259
116.2452,91.9322
116.2499,91.9413
116.2540,91.9541
116.2577,91.9717
116.2610,91.9948
116.2639,92.0245
116.2664,92.0618
116.2685,92.1074
116.2704,92.1625
116.2719,92.2279
116.2732,92.3046
116.2742,92.3935
116.2750,92.4956
116.2750,92.5019
Z" /> 
</g> 
</svg>
