<?xml version="1.0" standalone="no"?>
 <!DOCTYPE svg PUBLIC "-//W3C//DTD SVG 1.1//EN" 
 "http://www.w3.org/Graphics/SVG/1.1/DTD/svg11.dtd"> 
<svg
  xmlns:svg="http://www.w3.org/2000/svg"
  xmlns="http://www.w3.org/2000/svg"
  xmlns:xlink="http://www.w3.org/1999/xlink"
  version="1.1"
  width="297.0022mm" height="210.0072mm" viewBox="0.0000 0.0000 297.0022 210.0072">
<title>SVG Image created as project_1_led torch-Edge_Cuts.svg date 2025/06/10 04:38:02 </title>
  <desc>Image generated by PCBNEW </desc>
<g style="fill:#000000; fill-opacity:1.0000;stroke:#000000; stroke-opacity:1.0000;
stroke-linecap:round; stroke-linejoin:round;"
 transform="translate(0 0) scale(1 1)">
</g>
<g style="fill:none; 
stroke:#000000; stroke-width:0.0500; stroke-opacity:1; 
stroke-linecap:round; stroke-linejoin:round;">
<path d="M101.0000 106.0000 A13.4536 13.4536 0.0 0 0 122.3903 101.2421" />
<path d="M127.1985 92.0000 A1.6985 1.6985 0.0 0 0 125.5000 90.3015" />
<path d="M63.0000 85.9938 A10.0125 10.0125 0.0 0 0 62.5000 106.0062" />
<path d="M126.0000 101.2421 A1.4871 1.4871 0.0 0 0 127.2670 99.7181" />
<path d="M62.5000 106.0062
L101.0000 106.0062
" />
<path d="M122.1872 90.3015
L125.5000 90.3015
" />
<circle cx="69.4046" cy="96.5000" r="2.7482" /> 
<path d="M122.3903 101.2421
L126.0000 101.2421
" />
<path d="M63.0000 85.9938
L101.0000 86.0062
" />
<path d="M127.1985 92.0000
L127.2670 99.7181
" />
<path d="M121.7626 89.4700 A13.4536 13.4536 0.0 0 0 101.0000 86.0000" />
<path d="M122.1872 90.3015 A13.4533 13.4533 0.0 0 0 121.7626 89.4700" />
</g> 
</svg>
