%TF.GenerationSoftware,KiCad,Pcbnew,9.0.2*%
%TF.CreationDate,2025-06-18T23:28:51+06:00*%
%TF.ProjectId,Breadboardpower_Supply,42726561-6462-46f6-9172-64706f776572,rev?*%
%TF.SameCoordinates,Original*%
%TF.FileFunction,Legend,Bot*%
%TF.FilePolarity,Positive*%
%FSLAX46Y46*%
G04 Gerber Fmt 4.6, Leading zero omitted, Abs format (unit mm)*
G04 Created by KiCad (PCBNEW 9.0.2) date 2025-06-18 23:28:51*
%MOMM*%
%LPD*%
G01*
G04 APERTURE LIST*
%ADD10C,0.200000*%
%ADD11C,0.100000*%
%ADD12C,0.010000*%
G04 APERTURE END LIST*
D10*
X78448552Y-95524435D02*
X79115219Y-95762530D01*
X79115219Y-95762530D02*
X78448552Y-96000625D01*
X78115219Y-96572054D02*
X78115219Y-96667292D01*
X78115219Y-96667292D02*
X78162838Y-96762530D01*
X78162838Y-96762530D02*
X78210457Y-96810149D01*
X78210457Y-96810149D02*
X78305695Y-96857768D01*
X78305695Y-96857768D02*
X78496171Y-96905387D01*
X78496171Y-96905387D02*
X78734266Y-96905387D01*
X78734266Y-96905387D02*
X78924742Y-96857768D01*
X78924742Y-96857768D02*
X79019980Y-96810149D01*
X79019980Y-96810149D02*
X79067600Y-96762530D01*
X79067600Y-96762530D02*
X79115219Y-96667292D01*
X79115219Y-96667292D02*
X79115219Y-96572054D01*
X79115219Y-96572054D02*
X79067600Y-96476816D01*
X79067600Y-96476816D02*
X79019980Y-96429197D01*
X79019980Y-96429197D02*
X78924742Y-96381578D01*
X78924742Y-96381578D02*
X78734266Y-96333959D01*
X78734266Y-96333959D02*
X78496171Y-96333959D01*
X78496171Y-96333959D02*
X78305695Y-96381578D01*
X78305695Y-96381578D02*
X78210457Y-96429197D01*
X78210457Y-96429197D02*
X78162838Y-96476816D01*
X78162838Y-96476816D02*
X78115219Y-96572054D01*
X79019980Y-97333959D02*
X79067600Y-97381578D01*
X79067600Y-97381578D02*
X79115219Y-97333959D01*
X79115219Y-97333959D02*
X79067600Y-97286340D01*
X79067600Y-97286340D02*
X79019980Y-97333959D01*
X79019980Y-97333959D02*
X79115219Y-97333959D01*
X79115219Y-98333958D02*
X79115219Y-97762530D01*
X79115219Y-98048244D02*
X78115219Y-98048244D01*
X78115219Y-98048244D02*
X78258076Y-97953006D01*
X78258076Y-97953006D02*
X78353314Y-97857768D01*
X78353314Y-97857768D02*
X78400933Y-97762530D01*
D11*
X81980721Y-92829523D02*
X82028340Y-92972380D01*
X82028340Y-92972380D02*
X82075959Y-93019999D01*
X82075959Y-93019999D02*
X82171197Y-93067618D01*
X82171197Y-93067618D02*
X82314054Y-93067618D01*
X82314054Y-93067618D02*
X82409292Y-93019999D01*
X82409292Y-93019999D02*
X82456912Y-92972380D01*
X82456912Y-92972380D02*
X82504531Y-92877142D01*
X82504531Y-92877142D02*
X82504531Y-92496190D01*
X82504531Y-92496190D02*
X81504531Y-92496190D01*
X81504531Y-92496190D02*
X81504531Y-92829523D01*
X81504531Y-92829523D02*
X81552150Y-92924761D01*
X81552150Y-92924761D02*
X81599769Y-92972380D01*
X81599769Y-92972380D02*
X81695007Y-93019999D01*
X81695007Y-93019999D02*
X81790245Y-93019999D01*
X81790245Y-93019999D02*
X81885483Y-92972380D01*
X81885483Y-92972380D02*
X81933102Y-92924761D01*
X81933102Y-92924761D02*
X81980721Y-92829523D01*
X81980721Y-92829523D02*
X81980721Y-92496190D01*
X82504531Y-93496190D02*
X81837864Y-93496190D01*
X82028340Y-93496190D02*
X81933102Y-93543809D01*
X81933102Y-93543809D02*
X81885483Y-93591428D01*
X81885483Y-93591428D02*
X81837864Y-93686666D01*
X81837864Y-93686666D02*
X81837864Y-93781904D01*
X82456912Y-94496190D02*
X82504531Y-94400952D01*
X82504531Y-94400952D02*
X82504531Y-94210476D01*
X82504531Y-94210476D02*
X82456912Y-94115238D01*
X82456912Y-94115238D02*
X82361673Y-94067619D01*
X82361673Y-94067619D02*
X81980721Y-94067619D01*
X81980721Y-94067619D02*
X81885483Y-94115238D01*
X81885483Y-94115238D02*
X81837864Y-94210476D01*
X81837864Y-94210476D02*
X81837864Y-94400952D01*
X81837864Y-94400952D02*
X81885483Y-94496190D01*
X81885483Y-94496190D02*
X81980721Y-94543809D01*
X81980721Y-94543809D02*
X82075959Y-94543809D01*
X82075959Y-94543809D02*
X82171197Y-94067619D01*
X82504531Y-95400952D02*
X81980721Y-95400952D01*
X81980721Y-95400952D02*
X81885483Y-95353333D01*
X81885483Y-95353333D02*
X81837864Y-95258095D01*
X81837864Y-95258095D02*
X81837864Y-95067619D01*
X81837864Y-95067619D02*
X81885483Y-94972381D01*
X82456912Y-95400952D02*
X82504531Y-95305714D01*
X82504531Y-95305714D02*
X82504531Y-95067619D01*
X82504531Y-95067619D02*
X82456912Y-94972381D01*
X82456912Y-94972381D02*
X82361673Y-94924762D01*
X82361673Y-94924762D02*
X82266435Y-94924762D01*
X82266435Y-94924762D02*
X82171197Y-94972381D01*
X82171197Y-94972381D02*
X82123578Y-95067619D01*
X82123578Y-95067619D02*
X82123578Y-95305714D01*
X82123578Y-95305714D02*
X82075959Y-95400952D01*
X82504531Y-96305714D02*
X81504531Y-96305714D01*
X82456912Y-96305714D02*
X82504531Y-96210476D01*
X82504531Y-96210476D02*
X82504531Y-96020000D01*
X82504531Y-96020000D02*
X82456912Y-95924762D01*
X82456912Y-95924762D02*
X82409292Y-95877143D01*
X82409292Y-95877143D02*
X82314054Y-95829524D01*
X82314054Y-95829524D02*
X82028340Y-95829524D01*
X82028340Y-95829524D02*
X81933102Y-95877143D01*
X81933102Y-95877143D02*
X81885483Y-95924762D01*
X81885483Y-95924762D02*
X81837864Y-96020000D01*
X81837864Y-96020000D02*
X81837864Y-96210476D01*
X81837864Y-96210476D02*
X81885483Y-96305714D01*
X82504531Y-96781905D02*
X81504531Y-96781905D01*
X81885483Y-96781905D02*
X81837864Y-96877143D01*
X81837864Y-96877143D02*
X81837864Y-97067619D01*
X81837864Y-97067619D02*
X81885483Y-97162857D01*
X81885483Y-97162857D02*
X81933102Y-97210476D01*
X81933102Y-97210476D02*
X82028340Y-97258095D01*
X82028340Y-97258095D02*
X82314054Y-97258095D01*
X82314054Y-97258095D02*
X82409292Y-97210476D01*
X82409292Y-97210476D02*
X82456912Y-97162857D01*
X82456912Y-97162857D02*
X82504531Y-97067619D01*
X82504531Y-97067619D02*
X82504531Y-96877143D01*
X82504531Y-96877143D02*
X82456912Y-96781905D01*
X82504531Y-97829524D02*
X82456912Y-97734286D01*
X82456912Y-97734286D02*
X82409292Y-97686667D01*
X82409292Y-97686667D02*
X82314054Y-97639048D01*
X82314054Y-97639048D02*
X82028340Y-97639048D01*
X82028340Y-97639048D02*
X81933102Y-97686667D01*
X81933102Y-97686667D02*
X81885483Y-97734286D01*
X81885483Y-97734286D02*
X81837864Y-97829524D01*
X81837864Y-97829524D02*
X81837864Y-97972381D01*
X81837864Y-97972381D02*
X81885483Y-98067619D01*
X81885483Y-98067619D02*
X81933102Y-98115238D01*
X81933102Y-98115238D02*
X82028340Y-98162857D01*
X82028340Y-98162857D02*
X82314054Y-98162857D01*
X82314054Y-98162857D02*
X82409292Y-98115238D01*
X82409292Y-98115238D02*
X82456912Y-98067619D01*
X82456912Y-98067619D02*
X82504531Y-97972381D01*
X82504531Y-97972381D02*
X82504531Y-97829524D01*
X82504531Y-99020000D02*
X81980721Y-99020000D01*
X81980721Y-99020000D02*
X81885483Y-98972381D01*
X81885483Y-98972381D02*
X81837864Y-98877143D01*
X81837864Y-98877143D02*
X81837864Y-98686667D01*
X81837864Y-98686667D02*
X81885483Y-98591429D01*
X82456912Y-99020000D02*
X82504531Y-98924762D01*
X82504531Y-98924762D02*
X82504531Y-98686667D01*
X82504531Y-98686667D02*
X82456912Y-98591429D01*
X82456912Y-98591429D02*
X82361673Y-98543810D01*
X82361673Y-98543810D02*
X82266435Y-98543810D01*
X82266435Y-98543810D02*
X82171197Y-98591429D01*
X82171197Y-98591429D02*
X82123578Y-98686667D01*
X82123578Y-98686667D02*
X82123578Y-98924762D01*
X82123578Y-98924762D02*
X82075959Y-99020000D01*
X82504531Y-99496191D02*
X81837864Y-99496191D01*
X82028340Y-99496191D02*
X81933102Y-99543810D01*
X81933102Y-99543810D02*
X81885483Y-99591429D01*
X81885483Y-99591429D02*
X81837864Y-99686667D01*
X81837864Y-99686667D02*
X81837864Y-99781905D01*
X82504531Y-100543810D02*
X81504531Y-100543810D01*
X82456912Y-100543810D02*
X82504531Y-100448572D01*
X82504531Y-100448572D02*
X82504531Y-100258096D01*
X82504531Y-100258096D02*
X82456912Y-100162858D01*
X82456912Y-100162858D02*
X82409292Y-100115239D01*
X82409292Y-100115239D02*
X82314054Y-100067620D01*
X82314054Y-100067620D02*
X82028340Y-100067620D01*
X82028340Y-100067620D02*
X81933102Y-100115239D01*
X81933102Y-100115239D02*
X81885483Y-100162858D01*
X81885483Y-100162858D02*
X81837864Y-100258096D01*
X81837864Y-100258096D02*
X81837864Y-100448572D01*
X81837864Y-100448572D02*
X81885483Y-100543810D01*
X84114475Y-94543809D02*
X83114475Y-94543809D01*
X83114475Y-94543809D02*
X83114475Y-94924761D01*
X83114475Y-94924761D02*
X83162094Y-95019999D01*
X83162094Y-95019999D02*
X83209713Y-95067618D01*
X83209713Y-95067618D02*
X83304951Y-95115237D01*
X83304951Y-95115237D02*
X83447808Y-95115237D01*
X83447808Y-95115237D02*
X83543046Y-95067618D01*
X83543046Y-95067618D02*
X83590665Y-95019999D01*
X83590665Y-95019999D02*
X83638284Y-94924761D01*
X83638284Y-94924761D02*
X83638284Y-94543809D01*
X84114475Y-95686666D02*
X84066856Y-95591428D01*
X84066856Y-95591428D02*
X84019236Y-95543809D01*
X84019236Y-95543809D02*
X83923998Y-95496190D01*
X83923998Y-95496190D02*
X83638284Y-95496190D01*
X83638284Y-95496190D02*
X83543046Y-95543809D01*
X83543046Y-95543809D02*
X83495427Y-95591428D01*
X83495427Y-95591428D02*
X83447808Y-95686666D01*
X83447808Y-95686666D02*
X83447808Y-95829523D01*
X83447808Y-95829523D02*
X83495427Y-95924761D01*
X83495427Y-95924761D02*
X83543046Y-95972380D01*
X83543046Y-95972380D02*
X83638284Y-96019999D01*
X83638284Y-96019999D02*
X83923998Y-96019999D01*
X83923998Y-96019999D02*
X84019236Y-95972380D01*
X84019236Y-95972380D02*
X84066856Y-95924761D01*
X84066856Y-95924761D02*
X84114475Y-95829523D01*
X84114475Y-95829523D02*
X84114475Y-95686666D01*
X83447808Y-96353333D02*
X84114475Y-96543809D01*
X84114475Y-96543809D02*
X83638284Y-96734285D01*
X83638284Y-96734285D02*
X84114475Y-96924761D01*
X84114475Y-96924761D02*
X83447808Y-97115237D01*
X84066856Y-97877142D02*
X84114475Y-97781904D01*
X84114475Y-97781904D02*
X84114475Y-97591428D01*
X84114475Y-97591428D02*
X84066856Y-97496190D01*
X84066856Y-97496190D02*
X83971617Y-97448571D01*
X83971617Y-97448571D02*
X83590665Y-97448571D01*
X83590665Y-97448571D02*
X83495427Y-97496190D01*
X83495427Y-97496190D02*
X83447808Y-97591428D01*
X83447808Y-97591428D02*
X83447808Y-97781904D01*
X83447808Y-97781904D02*
X83495427Y-97877142D01*
X83495427Y-97877142D02*
X83590665Y-97924761D01*
X83590665Y-97924761D02*
X83685903Y-97924761D01*
X83685903Y-97924761D02*
X83781141Y-97448571D01*
X84114475Y-98353333D02*
X83447808Y-98353333D01*
X83638284Y-98353333D02*
X83543046Y-98400952D01*
X83543046Y-98400952D02*
X83495427Y-98448571D01*
X83495427Y-98448571D02*
X83447808Y-98543809D01*
X83447808Y-98543809D02*
X83447808Y-98639047D01*
X85676800Y-94234285D02*
X85724419Y-94377142D01*
X85724419Y-94377142D02*
X85724419Y-94615237D01*
X85724419Y-94615237D02*
X85676800Y-94710475D01*
X85676800Y-94710475D02*
X85629180Y-94758094D01*
X85629180Y-94758094D02*
X85533942Y-94805713D01*
X85533942Y-94805713D02*
X85438704Y-94805713D01*
X85438704Y-94805713D02*
X85343466Y-94758094D01*
X85343466Y-94758094D02*
X85295847Y-94710475D01*
X85295847Y-94710475D02*
X85248228Y-94615237D01*
X85248228Y-94615237D02*
X85200609Y-94424761D01*
X85200609Y-94424761D02*
X85152990Y-94329523D01*
X85152990Y-94329523D02*
X85105371Y-94281904D01*
X85105371Y-94281904D02*
X85010133Y-94234285D01*
X85010133Y-94234285D02*
X84914895Y-94234285D01*
X84914895Y-94234285D02*
X84819657Y-94281904D01*
X84819657Y-94281904D02*
X84772038Y-94329523D01*
X84772038Y-94329523D02*
X84724419Y-94424761D01*
X84724419Y-94424761D02*
X84724419Y-94662856D01*
X84724419Y-94662856D02*
X84772038Y-94805713D01*
X85057752Y-95662856D02*
X85724419Y-95662856D01*
X85057752Y-95234285D02*
X85581561Y-95234285D01*
X85581561Y-95234285D02*
X85676800Y-95281904D01*
X85676800Y-95281904D02*
X85724419Y-95377142D01*
X85724419Y-95377142D02*
X85724419Y-95519999D01*
X85724419Y-95519999D02*
X85676800Y-95615237D01*
X85676800Y-95615237D02*
X85629180Y-95662856D01*
X85057752Y-96139047D02*
X86057752Y-96139047D01*
X85105371Y-96139047D02*
X85057752Y-96234285D01*
X85057752Y-96234285D02*
X85057752Y-96424761D01*
X85057752Y-96424761D02*
X85105371Y-96519999D01*
X85105371Y-96519999D02*
X85152990Y-96567618D01*
X85152990Y-96567618D02*
X85248228Y-96615237D01*
X85248228Y-96615237D02*
X85533942Y-96615237D01*
X85533942Y-96615237D02*
X85629180Y-96567618D01*
X85629180Y-96567618D02*
X85676800Y-96519999D01*
X85676800Y-96519999D02*
X85724419Y-96424761D01*
X85724419Y-96424761D02*
X85724419Y-96234285D01*
X85724419Y-96234285D02*
X85676800Y-96139047D01*
X85057752Y-97043809D02*
X86057752Y-97043809D01*
X85105371Y-97043809D02*
X85057752Y-97139047D01*
X85057752Y-97139047D02*
X85057752Y-97329523D01*
X85057752Y-97329523D02*
X85105371Y-97424761D01*
X85105371Y-97424761D02*
X85152990Y-97472380D01*
X85152990Y-97472380D02*
X85248228Y-97519999D01*
X85248228Y-97519999D02*
X85533942Y-97519999D01*
X85533942Y-97519999D02*
X85629180Y-97472380D01*
X85629180Y-97472380D02*
X85676800Y-97424761D01*
X85676800Y-97424761D02*
X85724419Y-97329523D01*
X85724419Y-97329523D02*
X85724419Y-97139047D01*
X85724419Y-97139047D02*
X85676800Y-97043809D01*
X85724419Y-98091428D02*
X85676800Y-97996190D01*
X85676800Y-97996190D02*
X85581561Y-97948571D01*
X85581561Y-97948571D02*
X84724419Y-97948571D01*
X85057752Y-98377143D02*
X85724419Y-98615238D01*
X85057752Y-98853333D02*
X85724419Y-98615238D01*
X85724419Y-98615238D02*
X85962514Y-98520000D01*
X85962514Y-98520000D02*
X86010133Y-98472381D01*
X86010133Y-98472381D02*
X86057752Y-98377143D01*
X81418177Y-96658177D02*
G75*
G02*
X77077823Y-96658177I-2170177J0D01*
G01*
X77077823Y-96658177D02*
G75*
G02*
X81418177Y-96658177I2170177J0D01*
G01*
D12*
%TO.C,REF\u002A\u002A*%
X100172304Y-103183095D02*
X100189779Y-103214455D01*
X100190615Y-103250256D01*
X100170122Y-103281694D01*
X100165456Y-103285570D01*
X100155989Y-103291036D01*
X100142307Y-103295243D01*
X100121788Y-103298355D01*
X100091808Y-103300535D01*
X100049744Y-103301946D01*
X99992972Y-103302751D01*
X99918870Y-103303115D01*
X99824813Y-103303200D01*
X99503267Y-103303200D01*
X99481687Y-103276549D01*
X99466917Y-103252836D01*
X99460107Y-103229822D01*
X99465989Y-103208816D01*
X99481687Y-103183095D01*
X99503267Y-103156444D01*
X100150724Y-103156444D01*
X100172304Y-103183095D01*
G36*
X100172304Y-103183095D02*
G01*
X100189779Y-103214455D01*
X100190615Y-103250256D01*
X100170122Y-103281694D01*
X100165456Y-103285570D01*
X100155989Y-103291036D01*
X100142307Y-103295243D01*
X100121788Y-103298355D01*
X100091808Y-103300535D01*
X100049744Y-103301946D01*
X99992972Y-103302751D01*
X99918870Y-103303115D01*
X99824813Y-103303200D01*
X99503267Y-103303200D01*
X99481687Y-103276549D01*
X99466917Y-103252836D01*
X99460107Y-103229822D01*
X99465989Y-103208816D01*
X99481687Y-103183095D01*
X99503267Y-103156444D01*
X100150724Y-103156444D01*
X100172304Y-103183095D01*
G37*
X99912607Y-96016263D02*
X99986829Y-96016521D01*
X100043581Y-96017192D01*
X100085552Y-96018470D01*
X100115429Y-96020549D01*
X100135901Y-96023623D01*
X100149654Y-96027888D01*
X100159377Y-96033538D01*
X100167757Y-96040767D01*
X100189221Y-96072231D01*
X100190987Y-96107396D01*
X100171307Y-96140400D01*
X100165438Y-96145706D01*
X100156354Y-96151156D01*
X100143013Y-96155322D01*
X100122797Y-96158376D01*
X100093089Y-96160490D01*
X100051272Y-96161836D01*
X99994729Y-96162584D01*
X99920842Y-96162908D01*
X99826996Y-96162977D01*
X99751334Y-96162938D01*
X99673425Y-96162683D01*
X99613415Y-96162039D01*
X99568688Y-96160835D01*
X99536625Y-96158898D01*
X99514611Y-96156058D01*
X99500027Y-96152143D01*
X99490258Y-96146980D01*
X99482685Y-96140400D01*
X99463663Y-96111216D01*
X99464503Y-96078085D01*
X99487816Y-96043931D01*
X99515525Y-96016222D01*
X99828577Y-96016222D01*
X99912607Y-96016263D01*
G36*
X99912607Y-96016263D02*
G01*
X99986829Y-96016521D01*
X100043581Y-96017192D01*
X100085552Y-96018470D01*
X100115429Y-96020549D01*
X100135901Y-96023623D01*
X100149654Y-96027888D01*
X100159377Y-96033538D01*
X100167757Y-96040767D01*
X100189221Y-96072231D01*
X100190987Y-96107396D01*
X100171307Y-96140400D01*
X100165438Y-96145706D01*
X100156354Y-96151156D01*
X100143013Y-96155322D01*
X100122797Y-96158376D01*
X100093089Y-96160490D01*
X100051272Y-96161836D01*
X99994729Y-96162584D01*
X99920842Y-96162908D01*
X99826996Y-96162977D01*
X99751334Y-96162938D01*
X99673425Y-96162683D01*
X99613415Y-96162039D01*
X99568688Y-96160835D01*
X99536625Y-96158898D01*
X99514611Y-96156058D01*
X99500027Y-96152143D01*
X99490258Y-96146980D01*
X99482685Y-96140400D01*
X99463663Y-96111216D01*
X99464503Y-96078085D01*
X99487816Y-96043931D01*
X99515525Y-96016222D01*
X99828577Y-96016222D01*
X99912607Y-96016263D01*
G37*
X93470229Y-95627409D02*
X93520728Y-95630195D01*
X93560128Y-95637027D01*
X93597476Y-95649610D01*
X93641821Y-95669650D01*
X93653639Y-95675448D01*
X93761849Y-95743969D01*
X93850881Y-95830149D01*
X93918645Y-95931542D01*
X93963054Y-96045703D01*
X93975446Y-96104280D01*
X93981245Y-96223115D01*
X93962482Y-96338214D01*
X93921080Y-96446202D01*
X93858963Y-96543705D01*
X93778055Y-96627346D01*
X93680280Y-96693751D01*
X93567562Y-96739545D01*
X93475319Y-96756300D01*
X93373525Y-96757809D01*
X93274508Y-96744182D01*
X93188740Y-96716069D01*
X93127421Y-96683584D01*
X93030136Y-96611267D01*
X92953355Y-96525536D01*
X92897086Y-96429541D01*
X92861338Y-96326435D01*
X92846116Y-96219372D01*
X92851429Y-96111502D01*
X92877284Y-96005978D01*
X92923689Y-95905954D01*
X92990651Y-95814580D01*
X93078176Y-95735009D01*
X93186274Y-95670394D01*
X93224354Y-95653071D01*
X93262951Y-95639037D01*
X93301537Y-95631162D01*
X93349263Y-95627711D01*
X93415281Y-95626946D01*
X93470229Y-95627409D01*
G36*
X93470229Y-95627409D02*
G01*
X93520728Y-95630195D01*
X93560128Y-95637027D01*
X93597476Y-95649610D01*
X93641821Y-95669650D01*
X93653639Y-95675448D01*
X93761849Y-95743969D01*
X93850881Y-95830149D01*
X93918645Y-95931542D01*
X93963054Y-96045703D01*
X93975446Y-96104280D01*
X93981245Y-96223115D01*
X93962482Y-96338214D01*
X93921080Y-96446202D01*
X93858963Y-96543705D01*
X93778055Y-96627346D01*
X93680280Y-96693751D01*
X93567562Y-96739545D01*
X93475319Y-96756300D01*
X93373525Y-96757809D01*
X93274508Y-96744182D01*
X93188740Y-96716069D01*
X93127421Y-96683584D01*
X93030136Y-96611267D01*
X92953355Y-96525536D01*
X92897086Y-96429541D01*
X92861338Y-96326435D01*
X92846116Y-96219372D01*
X92851429Y-96111502D01*
X92877284Y-96005978D01*
X92923689Y-95905954D01*
X92990651Y-95814580D01*
X93078176Y-95735009D01*
X93186274Y-95670394D01*
X93224354Y-95653071D01*
X93262951Y-95639037D01*
X93301537Y-95631162D01*
X93349263Y-95627711D01*
X93415281Y-95626946D01*
X93470229Y-95627409D01*
G37*
X99586218Y-103553305D02*
X99587671Y-103554665D01*
X99596032Y-103565868D01*
X99601587Y-103582970D01*
X99604880Y-103610140D01*
X99606458Y-103651544D01*
X99606862Y-103711349D01*
X99606862Y-103850711D01*
X99870629Y-103850711D01*
X99946457Y-103850786D01*
X100013123Y-103851194D01*
X100062907Y-103852176D01*
X100098824Y-103853972D01*
X100123890Y-103856823D01*
X100141121Y-103860969D01*
X100153532Y-103866651D01*
X100164140Y-103874108D01*
X100166946Y-103876398D01*
X100189588Y-103907576D01*
X100191152Y-103941956D01*
X100171307Y-103974888D01*
X100163231Y-103981867D01*
X100152633Y-103987339D01*
X100136789Y-103991359D01*
X100112813Y-103994150D01*
X100077814Y-103995934D01*
X100028904Y-103996933D01*
X99963194Y-103997370D01*
X99877796Y-103997466D01*
X99606862Y-103997466D01*
X99606862Y-104143402D01*
X99606861Y-104154502D01*
X99606636Y-104211020D01*
X99605497Y-104249864D01*
X99602697Y-104275257D01*
X99597490Y-104291418D01*
X99589129Y-104302570D01*
X99576866Y-104312933D01*
X99546178Y-104328781D01*
X99512398Y-104325679D01*
X99479862Y-104300035D01*
X99476145Y-104295093D01*
X99471309Y-104284884D01*
X99467546Y-104269458D01*
X99464723Y-104246336D01*
X99462710Y-104213039D01*
X99461373Y-104167085D01*
X99460582Y-104105994D01*
X99460203Y-104027287D01*
X99460107Y-103928482D01*
X99460108Y-103908455D01*
X99460198Y-103814332D01*
X99460538Y-103739817D01*
X99461279Y-103682411D01*
X99462575Y-103639611D01*
X99464577Y-103608918D01*
X99467436Y-103587831D01*
X99471306Y-103573849D01*
X99476338Y-103564472D01*
X99482685Y-103557200D01*
X99515402Y-103538394D01*
X99552979Y-103536947D01*
X99586218Y-103553305D01*
G36*
X99586218Y-103553305D02*
G01*
X99587671Y-103554665D01*
X99596032Y-103565868D01*
X99601587Y-103582970D01*
X99604880Y-103610140D01*
X99606458Y-103651544D01*
X99606862Y-103711349D01*
X99606862Y-103850711D01*
X99870629Y-103850711D01*
X99946457Y-103850786D01*
X100013123Y-103851194D01*
X100062907Y-103852176D01*
X100098824Y-103853972D01*
X100123890Y-103856823D01*
X100141121Y-103860969D01*
X100153532Y-103866651D01*
X100164140Y-103874108D01*
X100166946Y-103876398D01*
X100189588Y-103907576D01*
X100191152Y-103941956D01*
X100171307Y-103974888D01*
X100163231Y-103981867D01*
X100152633Y-103987339D01*
X100136789Y-103991359D01*
X100112813Y-103994150D01*
X100077814Y-103995934D01*
X100028904Y-103996933D01*
X99963194Y-103997370D01*
X99877796Y-103997466D01*
X99606862Y-103997466D01*
X99606862Y-104143402D01*
X99606861Y-104154502D01*
X99606636Y-104211020D01*
X99605497Y-104249864D01*
X99602697Y-104275257D01*
X99597490Y-104291418D01*
X99589129Y-104302570D01*
X99576866Y-104312933D01*
X99546178Y-104328781D01*
X99512398Y-104325679D01*
X99479862Y-104300035D01*
X99476145Y-104295093D01*
X99471309Y-104284884D01*
X99467546Y-104269458D01*
X99464723Y-104246336D01*
X99462710Y-104213039D01*
X99461373Y-104167085D01*
X99460582Y-104105994D01*
X99460203Y-104027287D01*
X99460107Y-103928482D01*
X99460108Y-103908455D01*
X99460198Y-103814332D01*
X99460538Y-103739817D01*
X99461279Y-103682411D01*
X99462575Y-103639611D01*
X99464577Y-103608918D01*
X99467436Y-103587831D01*
X99471306Y-103573849D01*
X99476338Y-103564472D01*
X99482685Y-103557200D01*
X99515402Y-103538394D01*
X99552979Y-103536947D01*
X99586218Y-103553305D01*
G37*
X99868671Y-104561113D02*
X99985040Y-104561597D01*
X99999215Y-104561665D01*
X100060977Y-104562251D01*
X100104660Y-104563574D01*
X100134041Y-104566119D01*
X100152895Y-104570374D01*
X100164999Y-104576826D01*
X100174129Y-104585960D01*
X100191546Y-104619418D01*
X100188644Y-104654366D01*
X100164140Y-104685269D01*
X100150937Y-104694278D01*
X100132401Y-104701730D01*
X100106373Y-104706098D01*
X100067827Y-104708153D01*
X100011740Y-104708666D01*
X99889085Y-104708666D01*
X99889085Y-105205377D01*
X100023911Y-105205377D01*
X100059702Y-105205450D01*
X100106032Y-105206213D01*
X100136566Y-105208389D01*
X100155597Y-105212686D01*
X100167414Y-105219810D01*
X100176311Y-105230467D01*
X100191381Y-105262718D01*
X100188713Y-105298005D01*
X100164140Y-105328736D01*
X100157885Y-105333391D01*
X100147361Y-105339327D01*
X100133431Y-105343858D01*
X100113357Y-105347174D01*
X100084400Y-105349463D01*
X100043820Y-105350914D01*
X99988880Y-105351717D01*
X99916839Y-105352060D01*
X99824960Y-105352133D01*
X99515525Y-105352133D01*
X99487816Y-105324424D01*
X99465573Y-105293045D01*
X99462884Y-105259816D01*
X99482685Y-105227955D01*
X99492455Y-105219669D01*
X99508347Y-105212257D01*
X99532315Y-105207920D01*
X99569188Y-105205884D01*
X99623796Y-105205377D01*
X99742329Y-105205377D01*
X99742329Y-104708666D01*
X99626816Y-104708666D01*
X99575118Y-104708228D01*
X99540594Y-104706264D01*
X99518018Y-104701748D01*
X99502166Y-104693655D01*
X99487816Y-104680957D01*
X99465573Y-104649579D01*
X99462884Y-104616350D01*
X99482685Y-104584488D01*
X99488875Y-104578856D01*
X99497081Y-104573766D01*
X99508857Y-104569679D01*
X99526316Y-104566501D01*
X99551570Y-104564135D01*
X99586730Y-104562484D01*
X99633909Y-104561453D01*
X99695217Y-104560945D01*
X99772767Y-104560863D01*
X99868671Y-104561113D01*
G36*
X99868671Y-104561113D02*
G01*
X99985040Y-104561597D01*
X99999215Y-104561665D01*
X100060977Y-104562251D01*
X100104660Y-104563574D01*
X100134041Y-104566119D01*
X100152895Y-104570374D01*
X100164999Y-104576826D01*
X100174129Y-104585960D01*
X100191546Y-104619418D01*
X100188644Y-104654366D01*
X100164140Y-104685269D01*
X100150937Y-104694278D01*
X100132401Y-104701730D01*
X100106373Y-104706098D01*
X100067827Y-104708153D01*
X100011740Y-104708666D01*
X99889085Y-104708666D01*
X99889085Y-105205377D01*
X100023911Y-105205377D01*
X100059702Y-105205450D01*
X100106032Y-105206213D01*
X100136566Y-105208389D01*
X100155597Y-105212686D01*
X100167414Y-105219810D01*
X100176311Y-105230467D01*
X100191381Y-105262718D01*
X100188713Y-105298005D01*
X100164140Y-105328736D01*
X100157885Y-105333391D01*
X100147361Y-105339327D01*
X100133431Y-105343858D01*
X100113357Y-105347174D01*
X100084400Y-105349463D01*
X100043820Y-105350914D01*
X99988880Y-105351717D01*
X99916839Y-105352060D01*
X99824960Y-105352133D01*
X99515525Y-105352133D01*
X99487816Y-105324424D01*
X99465573Y-105293045D01*
X99462884Y-105259816D01*
X99482685Y-105227955D01*
X99492455Y-105219669D01*
X99508347Y-105212257D01*
X99532315Y-105207920D01*
X99569188Y-105205884D01*
X99623796Y-105205377D01*
X99742329Y-105205377D01*
X99742329Y-104708666D01*
X99626816Y-104708666D01*
X99575118Y-104708228D01*
X99540594Y-104706264D01*
X99518018Y-104701748D01*
X99502166Y-104693655D01*
X99487816Y-104680957D01*
X99465573Y-104649579D01*
X99462884Y-104616350D01*
X99482685Y-104584488D01*
X99488875Y-104578856D01*
X99497081Y-104573766D01*
X99508857Y-104569679D01*
X99526316Y-104566501D01*
X99551570Y-104564135D01*
X99586730Y-104562484D01*
X99633909Y-104561453D01*
X99695217Y-104560945D01*
X99772767Y-104560863D01*
X99868671Y-104561113D01*
G37*
X99886566Y-99877047D02*
X99965351Y-99877272D01*
X100026061Y-99877890D01*
X100047129Y-99878447D01*
X100071436Y-99879089D01*
X100104215Y-99881059D01*
X100127135Y-99883987D01*
X100142937Y-99888064D01*
X100154359Y-99893479D01*
X100164140Y-99900419D01*
X100193885Y-99923816D01*
X100193291Y-100089508D01*
X100192993Y-100124304D01*
X100189562Y-100222787D01*
X100181879Y-100303749D01*
X100169322Y-100370843D01*
X100151267Y-100427726D01*
X100127092Y-100478053D01*
X100125175Y-100481412D01*
X100088457Y-100539224D01*
X100051491Y-100581578D01*
X100008006Y-100614394D01*
X99951729Y-100643594D01*
X99942113Y-100647876D01*
X99878927Y-100670453D01*
X99823549Y-100677425D01*
X99768523Y-100668823D01*
X99706391Y-100644681D01*
X99704698Y-100643885D01*
X99635276Y-100603434D01*
X99578678Y-100552749D01*
X99534110Y-100490024D01*
X99500781Y-100413448D01*
X99477901Y-100321213D01*
X99464676Y-100211510D01*
X99460315Y-100082531D01*
X99460310Y-100078959D01*
X99460412Y-100035066D01*
X99606862Y-100035066D01*
X99607310Y-100122555D01*
X99609786Y-100189475D01*
X99621038Y-100281873D01*
X99640577Y-100361188D01*
X99667551Y-100423162D01*
X99688280Y-100454102D01*
X99718046Y-100482222D01*
X99760474Y-100505562D01*
X99776440Y-100512689D01*
X99808942Y-100524513D01*
X99833373Y-100526943D01*
X99858101Y-100521330D01*
X99873979Y-100515604D01*
X99933887Y-100482674D01*
X99979640Y-100435336D01*
X100012776Y-100371570D01*
X100034830Y-100289361D01*
X100035332Y-100286567D01*
X100041295Y-100240282D01*
X100045523Y-100183886D01*
X100047129Y-100128948D01*
X100047129Y-100035066D01*
X99606862Y-100035066D01*
X99460412Y-100035066D01*
X99460450Y-100018939D01*
X99461486Y-99977008D01*
X99464080Y-99948894D01*
X99468893Y-99930325D01*
X99476584Y-99917028D01*
X99487816Y-99904731D01*
X99515525Y-99877022D01*
X99824960Y-99877022D01*
X99886566Y-99877047D01*
G36*
X99886566Y-99877047D02*
G01*
X99965351Y-99877272D01*
X100026061Y-99877890D01*
X100047129Y-99878447D01*
X100071436Y-99879089D01*
X100104215Y-99881059D01*
X100127135Y-99883987D01*
X100142937Y-99888064D01*
X100154359Y-99893479D01*
X100164140Y-99900419D01*
X100193885Y-99923816D01*
X100193291Y-100089508D01*
X100192993Y-100124304D01*
X100189562Y-100222787D01*
X100181879Y-100303749D01*
X100169322Y-100370843D01*
X100151267Y-100427726D01*
X100127092Y-100478053D01*
X100125175Y-100481412D01*
X100088457Y-100539224D01*
X100051491Y-100581578D01*
X100008006Y-100614394D01*
X99951729Y-100643594D01*
X99942113Y-100647876D01*
X99878927Y-100670453D01*
X99823549Y-100677425D01*
X99768523Y-100668823D01*
X99706391Y-100644681D01*
X99704698Y-100643885D01*
X99635276Y-100603434D01*
X99578678Y-100552749D01*
X99534110Y-100490024D01*
X99500781Y-100413448D01*
X99477901Y-100321213D01*
X99464676Y-100211510D01*
X99460315Y-100082531D01*
X99460310Y-100078959D01*
X99460412Y-100035066D01*
X99606862Y-100035066D01*
X99607310Y-100122555D01*
X99609786Y-100189475D01*
X99621038Y-100281873D01*
X99640577Y-100361188D01*
X99667551Y-100423162D01*
X99688280Y-100454102D01*
X99718046Y-100482222D01*
X99760474Y-100505562D01*
X99776440Y-100512689D01*
X99808942Y-100524513D01*
X99833373Y-100526943D01*
X99858101Y-100521330D01*
X99873979Y-100515604D01*
X99933887Y-100482674D01*
X99979640Y-100435336D01*
X100012776Y-100371570D01*
X100034830Y-100289361D01*
X100035332Y-100286567D01*
X100041295Y-100240282D01*
X100045523Y-100183886D01*
X100047129Y-100128948D01*
X100047129Y-100035066D01*
X99606862Y-100035066D01*
X99460412Y-100035066D01*
X99460450Y-100018939D01*
X99461486Y-99977008D01*
X99464080Y-99948894D01*
X99468893Y-99930325D01*
X99476584Y-99917028D01*
X99487816Y-99904731D01*
X99515525Y-99877022D01*
X99824960Y-99877022D01*
X99886566Y-99877047D01*
G37*
X99826996Y-92787600D02*
X99902657Y-92787639D01*
X99980566Y-92787894D01*
X100040576Y-92788538D01*
X100085304Y-92789742D01*
X100117366Y-92791679D01*
X100139380Y-92794519D01*
X100153964Y-92798434D01*
X100163734Y-92803596D01*
X100171307Y-92810177D01*
X100177541Y-92817145D01*
X100184841Y-92830143D01*
X100189594Y-92849291D01*
X100192332Y-92878694D01*
X100193585Y-92922460D01*
X100193885Y-92984694D01*
X100193509Y-93033640D01*
X100189081Y-93140500D01*
X100178993Y-93229728D01*
X100162405Y-93304526D01*
X100138475Y-93368097D01*
X100106361Y-93423643D01*
X100065222Y-93474368D01*
X100059370Y-93480356D01*
X100010861Y-93517223D01*
X99950053Y-93548323D01*
X99885809Y-93569805D01*
X99826996Y-93577822D01*
X99805779Y-93576543D01*
X99748363Y-93564231D01*
X99688453Y-93541702D01*
X99634403Y-93512472D01*
X99594572Y-93480055D01*
X99577550Y-93460514D01*
X99538362Y-93405802D01*
X99508233Y-93345499D01*
X99486272Y-93276303D01*
X99471590Y-93194911D01*
X99463299Y-93098022D01*
X99461188Y-93010555D01*
X99606848Y-93010555D01*
X99606857Y-93013583D01*
X99608822Y-93064703D01*
X99613547Y-93124806D01*
X99620075Y-93181514D01*
X99629371Y-93231472D01*
X99655640Y-93306224D01*
X99694939Y-93363733D01*
X99747973Y-93405234D01*
X99799240Y-93426451D01*
X99847066Y-93427869D01*
X99898001Y-93409587D01*
X99943918Y-93379917D01*
X99986327Y-93333220D01*
X100016130Y-93271830D01*
X100035266Y-93192684D01*
X100035504Y-93191194D01*
X100041296Y-93142223D01*
X100045436Y-93083529D01*
X100047044Y-93027488D01*
X100047129Y-92934355D01*
X99606862Y-92934355D01*
X99606848Y-93010555D01*
X99461188Y-93010555D01*
X99460507Y-92982333D01*
X99460106Y-92942851D01*
X99459693Y-92897140D01*
X99461497Y-92861339D01*
X99467779Y-92834248D01*
X99480799Y-92814666D01*
X99502818Y-92801392D01*
X99536095Y-92793224D01*
X99582891Y-92788962D01*
X99606862Y-92788365D01*
X99645467Y-92787405D01*
X99726081Y-92787352D01*
X99826996Y-92787600D01*
G36*
X99826996Y-92787600D02*
G01*
X99902657Y-92787639D01*
X99980566Y-92787894D01*
X100040576Y-92788538D01*
X100085304Y-92789742D01*
X100117366Y-92791679D01*
X100139380Y-92794519D01*
X100153964Y-92798434D01*
X100163734Y-92803596D01*
X100171307Y-92810177D01*
X100177541Y-92817145D01*
X100184841Y-92830143D01*
X100189594Y-92849291D01*
X100192332Y-92878694D01*
X100193585Y-92922460D01*
X100193885Y-92984694D01*
X100193509Y-93033640D01*
X100189081Y-93140500D01*
X100178993Y-93229728D01*
X100162405Y-93304526D01*
X100138475Y-93368097D01*
X100106361Y-93423643D01*
X100065222Y-93474368D01*
X100059370Y-93480356D01*
X100010861Y-93517223D01*
X99950053Y-93548323D01*
X99885809Y-93569805D01*
X99826996Y-93577822D01*
X99805779Y-93576543D01*
X99748363Y-93564231D01*
X99688453Y-93541702D01*
X99634403Y-93512472D01*
X99594572Y-93480055D01*
X99577550Y-93460514D01*
X99538362Y-93405802D01*
X99508233Y-93345499D01*
X99486272Y-93276303D01*
X99471590Y-93194911D01*
X99463299Y-93098022D01*
X99461188Y-93010555D01*
X99606848Y-93010555D01*
X99606857Y-93013583D01*
X99608822Y-93064703D01*
X99613547Y-93124806D01*
X99620075Y-93181514D01*
X99629371Y-93231472D01*
X99655640Y-93306224D01*
X99694939Y-93363733D01*
X99747973Y-93405234D01*
X99799240Y-93426451D01*
X99847066Y-93427869D01*
X99898001Y-93409587D01*
X99943918Y-93379917D01*
X99986327Y-93333220D01*
X100016130Y-93271830D01*
X100035266Y-93192684D01*
X100035504Y-93191194D01*
X100041296Y-93142223D01*
X100045436Y-93083529D01*
X100047044Y-93027488D01*
X100047129Y-92934355D01*
X99606862Y-92934355D01*
X99606848Y-93010555D01*
X99461188Y-93010555D01*
X99460507Y-92982333D01*
X99460106Y-92942851D01*
X99459693Y-92897140D01*
X99461497Y-92861339D01*
X99467779Y-92834248D01*
X99480799Y-92814666D01*
X99502818Y-92801392D01*
X99536095Y-92793224D01*
X99582891Y-92788962D01*
X99606862Y-92788365D01*
X99645467Y-92787405D01*
X99726081Y-92787352D01*
X99826996Y-92787600D01*
G37*
X99885526Y-97675711D02*
X99964613Y-97675930D01*
X100025556Y-97676539D01*
X100071102Y-97677730D01*
X100104003Y-97679693D01*
X100127008Y-97682619D01*
X100142866Y-97686699D01*
X100154326Y-97692125D01*
X100164140Y-97699086D01*
X100188533Y-97729514D01*
X100191412Y-97764457D01*
X100172322Y-97801438D01*
X100168847Y-97805622D01*
X100160319Y-97813798D01*
X100148768Y-97819858D01*
X100130936Y-97824241D01*
X100103564Y-97827383D01*
X100063394Y-97829720D01*
X100007168Y-97831691D01*
X99931629Y-97833733D01*
X99712498Y-97839377D01*
X99953139Y-98104666D01*
X100019915Y-98178500D01*
X100078031Y-98243680D01*
X100122989Y-98295874D01*
X100155911Y-98336949D01*
X100177919Y-98368767D01*
X100190134Y-98393196D01*
X100193679Y-98412098D01*
X100189676Y-98427339D01*
X100179247Y-98440783D01*
X100163514Y-98454295D01*
X100155031Y-98460540D01*
X100144453Y-98466172D01*
X100130295Y-98470383D01*
X100109843Y-98473335D01*
X100080382Y-98475190D01*
X100039201Y-98476109D01*
X99983584Y-98476254D01*
X99910819Y-98475787D01*
X99818191Y-98474870D01*
X99503239Y-98471555D01*
X99481673Y-98444904D01*
X99465481Y-98418839D01*
X99462710Y-98385981D01*
X99481663Y-98351450D01*
X99485248Y-98347138D01*
X99493777Y-98339006D01*
X99505369Y-98332977D01*
X99523275Y-98328616D01*
X99550746Y-98325488D01*
X99591034Y-98323159D01*
X99647391Y-98321193D01*
X99723069Y-98319155D01*
X99942918Y-98313511D01*
X99779124Y-98132888D01*
X99700491Y-98046150D01*
X99632098Y-97970379D01*
X99576748Y-97908242D01*
X99533378Y-97858144D01*
X99500921Y-97818487D01*
X99478313Y-97787674D01*
X99464488Y-97764108D01*
X99458383Y-97746192D01*
X99458932Y-97732329D01*
X99465069Y-97720921D01*
X99475731Y-97710372D01*
X99489851Y-97699086D01*
X99495812Y-97694633D01*
X99506308Y-97688634D01*
X99520133Y-97684055D01*
X99540038Y-97680703D01*
X99568772Y-97678389D01*
X99609085Y-97676921D01*
X99663727Y-97676109D01*
X99735447Y-97675762D01*
X99826996Y-97675688D01*
X99885526Y-97675711D01*
G36*
X99885526Y-97675711D02*
G01*
X99964613Y-97675930D01*
X100025556Y-97676539D01*
X100071102Y-97677730D01*
X100104003Y-97679693D01*
X100127008Y-97682619D01*
X100142866Y-97686699D01*
X100154326Y-97692125D01*
X100164140Y-97699086D01*
X100188533Y-97729514D01*
X100191412Y-97764457D01*
X100172322Y-97801438D01*
X100168847Y-97805622D01*
X100160319Y-97813798D01*
X100148768Y-97819858D01*
X100130936Y-97824241D01*
X100103564Y-97827383D01*
X100063394Y-97829720D01*
X100007168Y-97831691D01*
X99931629Y-97833733D01*
X99712498Y-97839377D01*
X99953139Y-98104666D01*
X100019915Y-98178500D01*
X100078031Y-98243680D01*
X100122989Y-98295874D01*
X100155911Y-98336949D01*
X100177919Y-98368767D01*
X100190134Y-98393196D01*
X100193679Y-98412098D01*
X100189676Y-98427339D01*
X100179247Y-98440783D01*
X100163514Y-98454295D01*
X100155031Y-98460540D01*
X100144453Y-98466172D01*
X100130295Y-98470383D01*
X100109843Y-98473335D01*
X100080382Y-98475190D01*
X100039201Y-98476109D01*
X99983584Y-98476254D01*
X99910819Y-98475787D01*
X99818191Y-98474870D01*
X99503239Y-98471555D01*
X99481673Y-98444904D01*
X99465481Y-98418839D01*
X99462710Y-98385981D01*
X99481663Y-98351450D01*
X99485248Y-98347138D01*
X99493777Y-98339006D01*
X99505369Y-98332977D01*
X99523275Y-98328616D01*
X99550746Y-98325488D01*
X99591034Y-98323159D01*
X99647391Y-98321193D01*
X99723069Y-98319155D01*
X99942918Y-98313511D01*
X99779124Y-98132888D01*
X99700491Y-98046150D01*
X99632098Y-97970379D01*
X99576748Y-97908242D01*
X99533378Y-97858144D01*
X99500921Y-97818487D01*
X99478313Y-97787674D01*
X99464488Y-97764108D01*
X99458383Y-97746192D01*
X99458932Y-97732329D01*
X99465069Y-97720921D01*
X99475731Y-97710372D01*
X99489851Y-97699086D01*
X99495812Y-97694633D01*
X99506308Y-97688634D01*
X99520133Y-97684055D01*
X99540038Y-97680703D01*
X99568772Y-97678389D01*
X99609085Y-97676921D01*
X99663727Y-97676109D01*
X99735447Y-97675762D01*
X99826996Y-97675688D01*
X99885526Y-97675711D01*
G37*
X99845299Y-96491924D02*
X99896632Y-96504865D01*
X99953158Y-96528028D01*
X100007075Y-96557920D01*
X100050579Y-96591049D01*
X100060927Y-96601245D01*
X100112702Y-96668330D01*
X100152594Y-96748456D01*
X100176996Y-96834666D01*
X100185108Y-96889630D01*
X100191713Y-96983083D01*
X100189626Y-97072864D01*
X100179380Y-97155353D01*
X100161510Y-97226936D01*
X100136548Y-97283994D01*
X100105028Y-97322911D01*
X100103052Y-97324286D01*
X100077826Y-97331374D01*
X100030575Y-97335613D01*
X99961111Y-97337022D01*
X99898878Y-97336162D01*
X99851496Y-97331442D01*
X99819393Y-97319752D01*
X99799840Y-97297983D01*
X99790110Y-97263024D01*
X99787473Y-97211766D01*
X99789201Y-97141099D01*
X99792213Y-97092479D01*
X99800406Y-97042283D01*
X99814459Y-97009789D01*
X99835694Y-96992330D01*
X99865434Y-96987239D01*
X99869976Y-96987345D01*
X99904770Y-96996047D01*
X99928187Y-97020057D01*
X99941387Y-97061322D01*
X99945529Y-97121791D01*
X99945529Y-97190266D01*
X99983881Y-97190266D01*
X99993016Y-97190216D01*
X100010267Y-97187995D01*
X100020561Y-97178728D01*
X100027499Y-97157347D01*
X100034681Y-97118786D01*
X100035615Y-97113312D01*
X100045518Y-97016362D01*
X100042599Y-96926370D01*
X100027869Y-96845462D01*
X100002339Y-96775763D01*
X99967018Y-96719398D01*
X99922919Y-96678493D01*
X99871052Y-96655171D01*
X99812428Y-96651559D01*
X99783534Y-96657077D01*
X99727644Y-96683761D01*
X99681985Y-96729949D01*
X99647148Y-96794931D01*
X99623730Y-96877993D01*
X99619281Y-96902667D01*
X99608782Y-96991996D01*
X99610011Y-97071803D01*
X99622946Y-97149896D01*
X99629736Y-97185039D01*
X99630753Y-97230477D01*
X99618222Y-97261792D01*
X99591435Y-97281945D01*
X99563188Y-97288329D01*
X99531964Y-97278843D01*
X99518539Y-97269514D01*
X99495007Y-97235279D01*
X99477135Y-97182657D01*
X99465639Y-97114141D01*
X99461232Y-97032222D01*
X99465219Y-96935072D01*
X99481534Y-96829065D01*
X99509585Y-96735253D01*
X99548492Y-96656457D01*
X99597374Y-96595503D01*
X99630235Y-96569433D01*
X99679434Y-96539925D01*
X99733292Y-96514654D01*
X99784459Y-96497004D01*
X99825584Y-96490364D01*
X99845299Y-96491924D01*
G36*
X99845299Y-96491924D02*
G01*
X99896632Y-96504865D01*
X99953158Y-96528028D01*
X100007075Y-96557920D01*
X100050579Y-96591049D01*
X100060927Y-96601245D01*
X100112702Y-96668330D01*
X100152594Y-96748456D01*
X100176996Y-96834666D01*
X100185108Y-96889630D01*
X100191713Y-96983083D01*
X100189626Y-97072864D01*
X100179380Y-97155353D01*
X100161510Y-97226936D01*
X100136548Y-97283994D01*
X100105028Y-97322911D01*
X100103052Y-97324286D01*
X100077826Y-97331374D01*
X100030575Y-97335613D01*
X99961111Y-97337022D01*
X99898878Y-97336162D01*
X99851496Y-97331442D01*
X99819393Y-97319752D01*
X99799840Y-97297983D01*
X99790110Y-97263024D01*
X99787473Y-97211766D01*
X99789201Y-97141099D01*
X99792213Y-97092479D01*
X99800406Y-97042283D01*
X99814459Y-97009789D01*
X99835694Y-96992330D01*
X99865434Y-96987239D01*
X99869976Y-96987345D01*
X99904770Y-96996047D01*
X99928187Y-97020057D01*
X99941387Y-97061322D01*
X99945529Y-97121791D01*
X99945529Y-97190266D01*
X99983881Y-97190266D01*
X99993016Y-97190216D01*
X100010267Y-97187995D01*
X100020561Y-97178728D01*
X100027499Y-97157347D01*
X100034681Y-97118786D01*
X100035615Y-97113312D01*
X100045518Y-97016362D01*
X100042599Y-96926370D01*
X100027869Y-96845462D01*
X100002339Y-96775763D01*
X99967018Y-96719398D01*
X99922919Y-96678493D01*
X99871052Y-96655171D01*
X99812428Y-96651559D01*
X99783534Y-96657077D01*
X99727644Y-96683761D01*
X99681985Y-96729949D01*
X99647148Y-96794931D01*
X99623730Y-96877993D01*
X99619281Y-96902667D01*
X99608782Y-96991996D01*
X99610011Y-97071803D01*
X99622946Y-97149896D01*
X99629736Y-97185039D01*
X99630753Y-97230477D01*
X99618222Y-97261792D01*
X99591435Y-97281945D01*
X99563188Y-97288329D01*
X99531964Y-97278843D01*
X99518539Y-97269514D01*
X99495007Y-97235279D01*
X99477135Y-97182657D01*
X99465639Y-97114141D01*
X99461232Y-97032222D01*
X99465219Y-96935072D01*
X99481534Y-96829065D01*
X99509585Y-96735253D01*
X99548492Y-96656457D01*
X99597374Y-96595503D01*
X99630235Y-96569433D01*
X99679434Y-96539925D01*
X99733292Y-96514654D01*
X99784459Y-96497004D01*
X99825584Y-96490364D01*
X99845299Y-96491924D01*
G37*
X99897951Y-98861051D02*
X99976268Y-98861283D01*
X100036536Y-98861903D01*
X100081433Y-98863096D01*
X100113642Y-98865043D01*
X100135840Y-98867928D01*
X100150709Y-98871934D01*
X100160929Y-98877243D01*
X100169178Y-98884039D01*
X100173835Y-98888554D01*
X100180322Y-98896784D01*
X100185234Y-98908144D01*
X100188789Y-98925412D01*
X100191207Y-98951367D01*
X100192707Y-98988786D01*
X100193507Y-99040449D01*
X100193827Y-99109133D01*
X100193885Y-99197616D01*
X100193878Y-99217291D01*
X100193612Y-99304316D01*
X100192846Y-99371968D01*
X100191432Y-99422923D01*
X100189220Y-99459855D01*
X100186062Y-99485439D01*
X100181809Y-99502351D01*
X100176311Y-99513265D01*
X100166325Y-99523758D01*
X100135208Y-99537019D01*
X100099320Y-99535836D01*
X100067773Y-99519672D01*
X100065497Y-99517483D01*
X100059229Y-99508795D01*
X100054563Y-99495453D01*
X100051267Y-99474470D01*
X100049108Y-99442859D01*
X100047854Y-99397632D01*
X100047271Y-99335802D01*
X100047129Y-99254383D01*
X100047129Y-99007777D01*
X99889085Y-99007777D01*
X99889085Y-99170216D01*
X99889004Y-99205884D01*
X99888207Y-99261654D01*
X99886202Y-99300792D01*
X99882561Y-99327246D01*
X99876852Y-99344963D01*
X99868647Y-99357893D01*
X99865463Y-99361536D01*
X99834488Y-99379944D01*
X99798152Y-99380578D01*
X99764533Y-99363039D01*
X99764464Y-99362977D01*
X99755838Y-99353306D01*
X99749782Y-99340013D01*
X99745851Y-99319305D01*
X99743596Y-99287394D01*
X99742571Y-99240488D01*
X99742329Y-99174798D01*
X99742329Y-99006651D01*
X99677418Y-99010036D01*
X99612507Y-99013422D01*
X99609454Y-99255499D01*
X99609126Y-99280515D01*
X99607646Y-99362135D01*
X99605262Y-99424454D01*
X99601267Y-99470068D01*
X99594953Y-99501570D01*
X99585614Y-99521555D01*
X99572543Y-99532618D01*
X99555032Y-99537353D01*
X99532375Y-99538355D01*
X99530010Y-99538349D01*
X99509979Y-99537195D01*
X99494186Y-99532398D01*
X99482130Y-99521590D01*
X99473307Y-99502405D01*
X99467215Y-99472477D01*
X99463351Y-99429439D01*
X99461214Y-99370923D01*
X99460300Y-99294565D01*
X99460107Y-99197996D01*
X99460107Y-98907816D01*
X99489851Y-98884419D01*
X99496535Y-98879470D01*
X99507106Y-98873626D01*
X99521193Y-98869165D01*
X99541518Y-98865901D01*
X99570805Y-98863648D01*
X99611777Y-98862220D01*
X99667157Y-98861430D01*
X99739668Y-98861093D01*
X99832034Y-98861022D01*
X99897951Y-98861051D01*
G36*
X99897951Y-98861051D02*
G01*
X99976268Y-98861283D01*
X100036536Y-98861903D01*
X100081433Y-98863096D01*
X100113642Y-98865043D01*
X100135840Y-98867928D01*
X100150709Y-98871934D01*
X100160929Y-98877243D01*
X100169178Y-98884039D01*
X100173835Y-98888554D01*
X100180322Y-98896784D01*
X100185234Y-98908144D01*
X100188789Y-98925412D01*
X100191207Y-98951367D01*
X100192707Y-98988786D01*
X100193507Y-99040449D01*
X100193827Y-99109133D01*
X100193885Y-99197616D01*
X100193878Y-99217291D01*
X100193612Y-99304316D01*
X100192846Y-99371968D01*
X100191432Y-99422923D01*
X100189220Y-99459855D01*
X100186062Y-99485439D01*
X100181809Y-99502351D01*
X100176311Y-99513265D01*
X100166325Y-99523758D01*
X100135208Y-99537019D01*
X100099320Y-99535836D01*
X100067773Y-99519672D01*
X100065497Y-99517483D01*
X100059229Y-99508795D01*
X100054563Y-99495453D01*
X100051267Y-99474470D01*
X100049108Y-99442859D01*
X100047854Y-99397632D01*
X100047271Y-99335802D01*
X100047129Y-99254383D01*
X100047129Y-99007777D01*
X99889085Y-99007777D01*
X99889085Y-99170216D01*
X99889004Y-99205884D01*
X99888207Y-99261654D01*
X99886202Y-99300792D01*
X99882561Y-99327246D01*
X99876852Y-99344963D01*
X99868647Y-99357893D01*
X99865463Y-99361536D01*
X99834488Y-99379944D01*
X99798152Y-99380578D01*
X99764533Y-99363039D01*
X99764464Y-99362977D01*
X99755838Y-99353306D01*
X99749782Y-99340013D01*
X99745851Y-99319305D01*
X99743596Y-99287394D01*
X99742571Y-99240488D01*
X99742329Y-99174798D01*
X99742329Y-99006651D01*
X99677418Y-99010036D01*
X99612507Y-99013422D01*
X99609454Y-99255499D01*
X99609126Y-99280515D01*
X99607646Y-99362135D01*
X99605262Y-99424454D01*
X99601267Y-99470068D01*
X99594953Y-99501570D01*
X99585614Y-99521555D01*
X99572543Y-99532618D01*
X99555032Y-99537353D01*
X99532375Y-99538355D01*
X99530010Y-99538349D01*
X99509979Y-99537195D01*
X99494186Y-99532398D01*
X99482130Y-99521590D01*
X99473307Y-99502405D01*
X99467215Y-99472477D01*
X99463351Y-99429439D01*
X99461214Y-99370923D01*
X99460300Y-99294565D01*
X99460107Y-99197996D01*
X99460107Y-98907816D01*
X99489851Y-98884419D01*
X99496535Y-98879470D01*
X99507106Y-98873626D01*
X99521193Y-98869165D01*
X99541518Y-98865901D01*
X99570805Y-98863648D01*
X99611777Y-98862220D01*
X99667157Y-98861430D01*
X99739668Y-98861093D01*
X99832034Y-98861022D01*
X99897951Y-98861051D01*
G37*
X99901753Y-93916525D02*
X99979929Y-93916774D01*
X100040143Y-93917410D01*
X100085022Y-93918607D01*
X100117192Y-93920538D01*
X100139279Y-93923376D01*
X100153910Y-93927295D01*
X100163710Y-93932467D01*
X100171307Y-93939066D01*
X100174484Y-93942400D01*
X100180594Y-93950922D01*
X100185269Y-93962924D01*
X100188699Y-93981135D01*
X100191076Y-94008282D01*
X100192592Y-94047093D01*
X100193438Y-94100298D01*
X100193805Y-94170624D01*
X100193885Y-94260800D01*
X100193873Y-94302908D01*
X100193691Y-94384055D01*
X100193138Y-94446547D01*
X100192022Y-94493113D01*
X100190153Y-94526481D01*
X100187338Y-94549378D01*
X100183386Y-94564534D01*
X100178106Y-94574676D01*
X100171307Y-94582533D01*
X100149707Y-94597259D01*
X100120507Y-94605111D01*
X100096600Y-94599612D01*
X100069707Y-94582533D01*
X100065099Y-94577554D01*
X100058812Y-94567779D01*
X100054186Y-94553663D01*
X100050970Y-94532168D01*
X100048910Y-94500254D01*
X100047752Y-94454880D01*
X100047242Y-94393009D01*
X100047129Y-94311600D01*
X100047129Y-94063244D01*
X99889085Y-94063244D01*
X99889085Y-94224421D01*
X99888939Y-94260239D01*
X99887216Y-94325863D01*
X99882781Y-94373104D01*
X99874677Y-94404839D01*
X99861946Y-94423945D01*
X99843632Y-94433299D01*
X99818778Y-94435777D01*
X99798522Y-94434980D01*
X99776696Y-94429728D01*
X99761344Y-94416934D01*
X99751349Y-94393594D01*
X99745593Y-94356705D01*
X99742959Y-94303263D01*
X99742329Y-94230264D01*
X99742329Y-94062117D01*
X99677418Y-94065503D01*
X99612507Y-94068888D01*
X99609458Y-94316605D01*
X99608579Y-94379196D01*
X99607135Y-94447657D01*
X99605204Y-94498561D01*
X99602554Y-94534814D01*
X99598950Y-94559321D01*
X99594161Y-94574987D01*
X99587953Y-94584716D01*
X99581550Y-94590731D01*
X99549868Y-94603740D01*
X99514182Y-94600179D01*
X99483124Y-94580404D01*
X99480201Y-94577153D01*
X99473850Y-94568173D01*
X99468997Y-94556069D01*
X99465443Y-94538063D01*
X99462986Y-94511375D01*
X99461425Y-94473225D01*
X99460558Y-94420836D01*
X99460186Y-94351428D01*
X99460107Y-94262221D01*
X99460123Y-94207488D01*
X99460315Y-94130391D01*
X99460900Y-94071445D01*
X99462091Y-94027858D01*
X99464104Y-93996839D01*
X99467152Y-93975597D01*
X99471449Y-93961340D01*
X99477212Y-93951277D01*
X99484652Y-93942616D01*
X99486333Y-93940831D01*
X99493872Y-93933587D01*
X99502890Y-93927945D01*
X99516024Y-93923705D01*
X99535912Y-93920666D01*
X99565191Y-93918628D01*
X99606498Y-93917392D01*
X99662471Y-93916757D01*
X99735747Y-93916522D01*
X99828963Y-93916488D01*
X99901753Y-93916525D01*
G36*
X99901753Y-93916525D02*
G01*
X99979929Y-93916774D01*
X100040143Y-93917410D01*
X100085022Y-93918607D01*
X100117192Y-93920538D01*
X100139279Y-93923376D01*
X100153910Y-93927295D01*
X100163710Y-93932467D01*
X100171307Y-93939066D01*
X100174484Y-93942400D01*
X100180594Y-93950922D01*
X100185269Y-93962924D01*
X100188699Y-93981135D01*
X100191076Y-94008282D01*
X100192592Y-94047093D01*
X100193438Y-94100298D01*
X100193805Y-94170624D01*
X100193885Y-94260800D01*
X100193873Y-94302908D01*
X100193691Y-94384055D01*
X100193138Y-94446547D01*
X100192022Y-94493113D01*
X100190153Y-94526481D01*
X100187338Y-94549378D01*
X100183386Y-94564534D01*
X100178106Y-94574676D01*
X100171307Y-94582533D01*
X100149707Y-94597259D01*
X100120507Y-94605111D01*
X100096600Y-94599612D01*
X100069707Y-94582533D01*
X100065099Y-94577554D01*
X100058812Y-94567779D01*
X100054186Y-94553663D01*
X100050970Y-94532168D01*
X100048910Y-94500254D01*
X100047752Y-94454880D01*
X100047242Y-94393009D01*
X100047129Y-94311600D01*
X100047129Y-94063244D01*
X99889085Y-94063244D01*
X99889085Y-94224421D01*
X99888939Y-94260239D01*
X99887216Y-94325863D01*
X99882781Y-94373104D01*
X99874677Y-94404839D01*
X99861946Y-94423945D01*
X99843632Y-94433299D01*
X99818778Y-94435777D01*
X99798522Y-94434980D01*
X99776696Y-94429728D01*
X99761344Y-94416934D01*
X99751349Y-94393594D01*
X99745593Y-94356705D01*
X99742959Y-94303263D01*
X99742329Y-94230264D01*
X99742329Y-94062117D01*
X99677418Y-94065503D01*
X99612507Y-94068888D01*
X99609458Y-94316605D01*
X99608579Y-94379196D01*
X99607135Y-94447657D01*
X99605204Y-94498561D01*
X99602554Y-94534814D01*
X99598950Y-94559321D01*
X99594161Y-94574987D01*
X99587953Y-94584716D01*
X99581550Y-94590731D01*
X99549868Y-94603740D01*
X99514182Y-94600179D01*
X99483124Y-94580404D01*
X99480201Y-94577153D01*
X99473850Y-94568173D01*
X99468997Y-94556069D01*
X99465443Y-94538063D01*
X99462986Y-94511375D01*
X99461425Y-94473225D01*
X99460558Y-94420836D01*
X99460186Y-94351428D01*
X99460107Y-94262221D01*
X99460123Y-94207488D01*
X99460315Y-94130391D01*
X99460900Y-94071445D01*
X99462091Y-94027858D01*
X99464104Y-93996839D01*
X99467152Y-93975597D01*
X99471449Y-93961340D01*
X99477212Y-93951277D01*
X99484652Y-93942616D01*
X99486333Y-93940831D01*
X99493872Y-93933587D01*
X99502890Y-93927945D01*
X99516024Y-93923705D01*
X99535912Y-93920666D01*
X99565191Y-93918628D01*
X99606498Y-93917392D01*
X99662471Y-93916757D01*
X99735747Y-93916522D01*
X99828963Y-93916488D01*
X99901753Y-93916525D01*
G37*
X99542955Y-101768994D02*
X99577521Y-101781858D01*
X99625866Y-101801617D01*
X99684865Y-101826841D01*
X99751395Y-101856103D01*
X99822331Y-101887972D01*
X99894547Y-101921021D01*
X99964920Y-101953821D01*
X100030325Y-101984942D01*
X100087637Y-102012957D01*
X100133732Y-102036436D01*
X100165486Y-102053950D01*
X100179773Y-102064071D01*
X100193142Y-102098479D01*
X100186781Y-102140176D01*
X100182084Y-102145541D01*
X100159933Y-102161370D01*
X100123172Y-102183572D01*
X100075455Y-102209989D01*
X100020433Y-102238462D01*
X99861190Y-102318236D01*
X100007782Y-102391423D01*
X100027072Y-102401119D01*
X100079420Y-102428097D01*
X100124210Y-102452126D01*
X100157194Y-102470890D01*
X100174129Y-102482076D01*
X100175372Y-102483222D01*
X100190659Y-102511343D01*
X100192342Y-102546405D01*
X100179773Y-102577446D01*
X100176924Y-102579872D01*
X100156299Y-102592132D01*
X100118748Y-102611870D01*
X100066920Y-102637774D01*
X100003463Y-102668537D01*
X99931025Y-102702847D01*
X99852256Y-102739397D01*
X99808133Y-102759637D01*
X99727405Y-102796410D01*
X99663727Y-102824867D01*
X99614792Y-102845891D01*
X99578297Y-102860368D01*
X99551935Y-102869183D01*
X99533401Y-102873218D01*
X99520392Y-102873360D01*
X99510601Y-102870492D01*
X99489718Y-102855835D01*
X99469417Y-102829232D01*
X99469075Y-102828477D01*
X99462074Y-102808887D01*
X99461544Y-102791432D01*
X99469518Y-102774520D01*
X99488029Y-102756559D01*
X99519111Y-102735959D01*
X99564796Y-102711127D01*
X99627118Y-102680472D01*
X99708111Y-102642402D01*
X99739494Y-102627768D01*
X99802678Y-102598019D01*
X99857284Y-102571925D01*
X99900330Y-102550930D01*
X99928833Y-102536483D01*
X99939810Y-102530031D01*
X99939229Y-102528672D01*
X99925282Y-102518680D01*
X99895744Y-102501389D01*
X99854127Y-102478792D01*
X99803943Y-102452884D01*
X99772454Y-102436911D01*
X99717101Y-102407961D01*
X99678084Y-102385473D01*
X99652606Y-102367257D01*
X99637871Y-102351126D01*
X99631082Y-102334892D01*
X99629440Y-102316365D01*
X99629915Y-102305862D01*
X99634122Y-102289746D01*
X99644986Y-102274432D01*
X99665259Y-102257834D01*
X99697694Y-102237865D01*
X99745044Y-102212439D01*
X99810062Y-102179470D01*
X99829317Y-102169737D01*
X99875986Y-102145279D01*
X99912149Y-102125044D01*
X99934537Y-102110911D01*
X99939885Y-102104762D01*
X99936613Y-102103395D01*
X99915704Y-102094020D01*
X99878765Y-102077160D01*
X99828914Y-102054243D01*
X99769266Y-102026702D01*
X99702938Y-101995967D01*
X99645717Y-101969252D01*
X99583728Y-101939629D01*
X99537989Y-101916558D01*
X99505948Y-101898579D01*
X99485054Y-101884232D01*
X99472758Y-101872056D01*
X99466506Y-101860590D01*
X99463614Y-101851180D01*
X99463465Y-101826075D01*
X99478808Y-101798932D01*
X99479793Y-101797632D01*
X99502428Y-101775548D01*
X99524653Y-101764499D01*
X99525293Y-101764453D01*
X99542955Y-101768994D01*
G36*
X99542955Y-101768994D02*
G01*
X99577521Y-101781858D01*
X99625866Y-101801617D01*
X99684865Y-101826841D01*
X99751395Y-101856103D01*
X99822331Y-101887972D01*
X99894547Y-101921021D01*
X99964920Y-101953821D01*
X100030325Y-101984942D01*
X100087637Y-102012957D01*
X100133732Y-102036436D01*
X100165486Y-102053950D01*
X100179773Y-102064071D01*
X100193142Y-102098479D01*
X100186781Y-102140176D01*
X100182084Y-102145541D01*
X100159933Y-102161370D01*
X100123172Y-102183572D01*
X100075455Y-102209989D01*
X100020433Y-102238462D01*
X99861190Y-102318236D01*
X100007782Y-102391423D01*
X100027072Y-102401119D01*
X100079420Y-102428097D01*
X100124210Y-102452126D01*
X100157194Y-102470890D01*
X100174129Y-102482076D01*
X100175372Y-102483222D01*
X100190659Y-102511343D01*
X100192342Y-102546405D01*
X100179773Y-102577446D01*
X100176924Y-102579872D01*
X100156299Y-102592132D01*
X100118748Y-102611870D01*
X100066920Y-102637774D01*
X100003463Y-102668537D01*
X99931025Y-102702847D01*
X99852256Y-102739397D01*
X99808133Y-102759637D01*
X99727405Y-102796410D01*
X99663727Y-102824867D01*
X99614792Y-102845891D01*
X99578297Y-102860368D01*
X99551935Y-102869183D01*
X99533401Y-102873218D01*
X99520392Y-102873360D01*
X99510601Y-102870492D01*
X99489718Y-102855835D01*
X99469417Y-102829232D01*
X99469075Y-102828477D01*
X99462074Y-102808887D01*
X99461544Y-102791432D01*
X99469518Y-102774520D01*
X99488029Y-102756559D01*
X99519111Y-102735959D01*
X99564796Y-102711127D01*
X99627118Y-102680472D01*
X99708111Y-102642402D01*
X99739494Y-102627768D01*
X99802678Y-102598019D01*
X99857284Y-102571925D01*
X99900330Y-102550930D01*
X99928833Y-102536483D01*
X99939810Y-102530031D01*
X99939229Y-102528672D01*
X99925282Y-102518680D01*
X99895744Y-102501389D01*
X99854127Y-102478792D01*
X99803943Y-102452884D01*
X99772454Y-102436911D01*
X99717101Y-102407961D01*
X99678084Y-102385473D01*
X99652606Y-102367257D01*
X99637871Y-102351126D01*
X99631082Y-102334892D01*
X99629440Y-102316365D01*
X99629915Y-102305862D01*
X99634122Y-102289746D01*
X99644986Y-102274432D01*
X99665259Y-102257834D01*
X99697694Y-102237865D01*
X99745044Y-102212439D01*
X99810062Y-102179470D01*
X99829317Y-102169737D01*
X99875986Y-102145279D01*
X99912149Y-102125044D01*
X99934537Y-102110911D01*
X99939885Y-102104762D01*
X99936613Y-102103395D01*
X99915704Y-102094020D01*
X99878765Y-102077160D01*
X99828914Y-102054243D01*
X99769266Y-102026702D01*
X99702938Y-101995967D01*
X99645717Y-101969252D01*
X99583728Y-101939629D01*
X99537989Y-101916558D01*
X99505948Y-101898579D01*
X99485054Y-101884232D01*
X99472758Y-101872056D01*
X99466506Y-101860590D01*
X99463614Y-101851180D01*
X99463465Y-101826075D01*
X99478808Y-101798932D01*
X99479793Y-101797632D01*
X99502428Y-101775548D01*
X99524653Y-101764499D01*
X99525293Y-101764453D01*
X99542955Y-101768994D01*
G37*
X99711272Y-94888270D02*
X99736069Y-94894062D01*
X99757739Y-94908869D01*
X99785089Y-94936842D01*
X99792418Y-94944820D01*
X99813321Y-94968530D01*
X99830291Y-94990924D01*
X99844245Y-95014957D01*
X99856096Y-95043585D01*
X99866760Y-95079762D01*
X99877151Y-95126442D01*
X99888186Y-95186581D01*
X99900778Y-95263132D01*
X99915844Y-95359051D01*
X99918878Y-95377414D01*
X99932498Y-95439744D01*
X99948232Y-95484962D01*
X99965303Y-95511246D01*
X99982937Y-95516775D01*
X99987208Y-95514154D01*
X100002273Y-95496222D01*
X100018907Y-95468096D01*
X100024897Y-95455296D01*
X100032090Y-95433998D01*
X100036867Y-95407612D01*
X100039686Y-95371768D01*
X100041004Y-95322094D01*
X100041277Y-95254222D01*
X100041204Y-95236437D01*
X100040093Y-95168816D01*
X100037868Y-95103877D01*
X100034802Y-95048252D01*
X100031167Y-95008571D01*
X100027099Y-94973060D01*
X100026316Y-94943807D01*
X100030916Y-94924907D01*
X100041591Y-94909793D01*
X100045184Y-94906137D01*
X100076958Y-94889795D01*
X100112612Y-94891115D01*
X100143230Y-94910072D01*
X100154836Y-94930442D01*
X100167531Y-94966426D01*
X100177581Y-95008850D01*
X100178180Y-95012300D01*
X100183396Y-95054970D01*
X100187770Y-95112356D01*
X100190858Y-95177373D01*
X100192217Y-95242933D01*
X100192258Y-95259165D01*
X100189781Y-95357478D01*
X100181775Y-95437530D01*
X100167243Y-95502709D01*
X100145189Y-95556405D01*
X100114616Y-95602006D01*
X100074526Y-95642899D01*
X100048299Y-95663020D01*
X100018752Y-95674646D01*
X99979035Y-95677555D01*
X99967066Y-95677414D01*
X99934385Y-95673541D01*
X99907859Y-95661157D01*
X99877011Y-95635992D01*
X99854871Y-95614780D01*
X99832325Y-95588384D01*
X99813957Y-95558667D01*
X99798701Y-95522437D01*
X99785489Y-95476505D01*
X99773254Y-95417678D01*
X99760929Y-95342766D01*
X99747446Y-95248577D01*
X99740436Y-95203265D01*
X99725877Y-95135311D01*
X99709377Y-95086175D01*
X99691479Y-95056608D01*
X99672725Y-95047358D01*
X99653655Y-95059174D01*
X99634811Y-95092806D01*
X99633597Y-95095852D01*
X99621519Y-95142211D01*
X99613319Y-95204861D01*
X99609159Y-95278295D01*
X99609201Y-95357005D01*
X99613609Y-95435483D01*
X99622545Y-95508222D01*
X99623194Y-95512149D01*
X99630901Y-95560965D01*
X99634513Y-95593217D01*
X99633916Y-95614214D01*
X99628994Y-95629268D01*
X99619636Y-95643688D01*
X99618765Y-95644858D01*
X99588391Y-95669375D01*
X99552890Y-95674168D01*
X99518309Y-95658362D01*
X99513853Y-95653816D01*
X99498713Y-95624202D01*
X99485590Y-95577220D01*
X99474790Y-95516916D01*
X99466621Y-95447334D01*
X99461391Y-95372519D01*
X99459407Y-95296516D01*
X99460976Y-95223369D01*
X99466406Y-95157122D01*
X99476004Y-95101822D01*
X99490865Y-95050939D01*
X99523998Y-94979627D01*
X99566680Y-94928470D01*
X99618745Y-94897647D01*
X99680023Y-94887333D01*
X99711272Y-94888270D01*
G36*
X99711272Y-94888270D02*
G01*
X99736069Y-94894062D01*
X99757739Y-94908869D01*
X99785089Y-94936842D01*
X99792418Y-94944820D01*
X99813321Y-94968530D01*
X99830291Y-94990924D01*
X99844245Y-95014957D01*
X99856096Y-95043585D01*
X99866760Y-95079762D01*
X99877151Y-95126442D01*
X99888186Y-95186581D01*
X99900778Y-95263132D01*
X99915844Y-95359051D01*
X99918878Y-95377414D01*
X99932498Y-95439744D01*
X99948232Y-95484962D01*
X99965303Y-95511246D01*
X99982937Y-95516775D01*
X99987208Y-95514154D01*
X100002273Y-95496222D01*
X100018907Y-95468096D01*
X100024897Y-95455296D01*
X100032090Y-95433998D01*
X100036867Y-95407612D01*
X100039686Y-95371768D01*
X100041004Y-95322094D01*
X100041277Y-95254222D01*
X100041204Y-95236437D01*
X100040093Y-95168816D01*
X100037868Y-95103877D01*
X100034802Y-95048252D01*
X100031167Y-95008571D01*
X100027099Y-94973060D01*
X100026316Y-94943807D01*
X100030916Y-94924907D01*
X100041591Y-94909793D01*
X100045184Y-94906137D01*
X100076958Y-94889795D01*
X100112612Y-94891115D01*
X100143230Y-94910072D01*
X100154836Y-94930442D01*
X100167531Y-94966426D01*
X100177581Y-95008850D01*
X100178180Y-95012300D01*
X100183396Y-95054970D01*
X100187770Y-95112356D01*
X100190858Y-95177373D01*
X100192217Y-95242933D01*
X100192258Y-95259165D01*
X100189781Y-95357478D01*
X100181775Y-95437530D01*
X100167243Y-95502709D01*
X100145189Y-95556405D01*
X100114616Y-95602006D01*
X100074526Y-95642899D01*
X100048299Y-95663020D01*
X100018752Y-95674646D01*
X99979035Y-95677555D01*
X99967066Y-95677414D01*
X99934385Y-95673541D01*
X99907859Y-95661157D01*
X99877011Y-95635992D01*
X99854871Y-95614780D01*
X99832325Y-95588384D01*
X99813957Y-95558667D01*
X99798701Y-95522437D01*
X99785489Y-95476505D01*
X99773254Y-95417678D01*
X99760929Y-95342766D01*
X99747446Y-95248577D01*
X99740436Y-95203265D01*
X99725877Y-95135311D01*
X99709377Y-95086175D01*
X99691479Y-95056608D01*
X99672725Y-95047358D01*
X99653655Y-95059174D01*
X99634811Y-95092806D01*
X99633597Y-95095852D01*
X99621519Y-95142211D01*
X99613319Y-95204861D01*
X99609159Y-95278295D01*
X99609201Y-95357005D01*
X99613609Y-95435483D01*
X99622545Y-95508222D01*
X99623194Y-95512149D01*
X99630901Y-95560965D01*
X99634513Y-95593217D01*
X99633916Y-95614214D01*
X99628994Y-95629268D01*
X99619636Y-95643688D01*
X99618765Y-95644858D01*
X99588391Y-95669375D01*
X99552890Y-95674168D01*
X99518309Y-95658362D01*
X99513853Y-95653816D01*
X99498713Y-95624202D01*
X99485590Y-95577220D01*
X99474790Y-95516916D01*
X99466621Y-95447334D01*
X99461391Y-95372519D01*
X99459407Y-95296516D01*
X99460976Y-95223369D01*
X99466406Y-95157122D01*
X99476004Y-95101822D01*
X99490865Y-95050939D01*
X99523998Y-94979627D01*
X99566680Y-94928470D01*
X99618745Y-94897647D01*
X99680023Y-94887333D01*
X99711272Y-94888270D01*
G37*
X96384491Y-97455715D02*
X96631760Y-97485270D01*
X96863231Y-97535527D01*
X97080547Y-97606937D01*
X97285350Y-97699948D01*
X97479281Y-97815010D01*
X97627442Y-97923092D01*
X97794148Y-98072330D01*
X97936937Y-98234993D01*
X98055762Y-98411009D01*
X98150577Y-98600307D01*
X98221335Y-98802817D01*
X98267990Y-99018466D01*
X98268353Y-99020927D01*
X98271997Y-99062456D01*
X98274700Y-99125126D01*
X98276335Y-99203141D01*
X98276778Y-99290706D01*
X98275900Y-99382027D01*
X98274615Y-99446030D01*
X98271638Y-99540991D01*
X98267376Y-99617086D01*
X98261374Y-99679802D01*
X98253177Y-99734629D01*
X98242330Y-99787054D01*
X98228313Y-99846037D01*
X98212351Y-99907574D01*
X98195606Y-99963228D01*
X98176116Y-100018051D01*
X98151921Y-100077092D01*
X98121058Y-100145403D01*
X98081567Y-100228036D01*
X98031487Y-100330041D01*
X97892063Y-100612162D01*
X97520915Y-100386201D01*
X97472338Y-100356618D01*
X97385137Y-100303471D01*
X97307179Y-100255900D01*
X97241306Y-100215646D01*
X97190364Y-100184446D01*
X97157195Y-100164038D01*
X97144643Y-100156162D01*
X97145018Y-100153972D01*
X97157302Y-100136326D01*
X97182795Y-100105325D01*
X97217542Y-100065867D01*
X97277577Y-99995594D01*
X97366354Y-99870143D01*
X97428242Y-99748425D01*
X97459148Y-99660469D01*
X97490733Y-99511697D01*
X97496332Y-99365525D01*
X97476325Y-99224071D01*
X97431094Y-99089456D01*
X97361021Y-98963800D01*
X97266487Y-98849221D01*
X97196859Y-98785465D01*
X97068072Y-98695647D01*
X96918621Y-98621947D01*
X96747740Y-98564013D01*
X96554665Y-98521493D01*
X96542679Y-98519563D01*
X96464991Y-98510651D01*
X96368465Y-98504017D01*
X96259697Y-98499714D01*
X96145282Y-98497795D01*
X96031816Y-98498316D01*
X95925894Y-98501329D01*
X95834111Y-98506888D01*
X95763065Y-98515047D01*
X95602128Y-98546320D01*
X95414134Y-98598940D01*
X95249548Y-98665119D01*
X95108497Y-98744767D01*
X94991108Y-98837797D01*
X94897511Y-98944120D01*
X94827830Y-99063647D01*
X94782195Y-99196290D01*
X94776531Y-99225719D01*
X94769136Y-99299470D01*
X94766722Y-99385658D01*
X94769156Y-99474630D01*
X94776308Y-99556728D01*
X94788043Y-99622297D01*
X94825409Y-99731528D01*
X94893626Y-99858287D01*
X94983398Y-99971156D01*
X95002309Y-99991077D01*
X95035766Y-100027174D01*
X95058286Y-100052685D01*
X95065776Y-100063050D01*
X95062194Y-100065601D01*
X95039571Y-100081308D01*
X94998495Y-100109682D01*
X94941684Y-100148850D01*
X94871860Y-100196936D01*
X94791741Y-100252066D01*
X94704049Y-100312365D01*
X94345250Y-100559000D01*
X94328743Y-100503903D01*
X94326872Y-100498154D01*
X94312014Y-100460729D01*
X94288056Y-100406770D01*
X94257879Y-100342612D01*
X94224365Y-100274585D01*
X94209548Y-100244942D01*
X94133049Y-100080338D01*
X94073893Y-99928624D01*
X94030566Y-99783966D01*
X94001555Y-99640528D01*
X93985347Y-99492476D01*
X93980428Y-99333973D01*
X93982926Y-99223667D01*
X93999863Y-99039166D01*
X94034022Y-98867765D01*
X94086839Y-98703087D01*
X94159753Y-98538758D01*
X94252849Y-98376090D01*
X94379762Y-98201515D01*
X94526498Y-98039626D01*
X94689424Y-97893986D01*
X94864907Y-97768162D01*
X95049316Y-97665717D01*
X95069044Y-97656418D01*
X95259461Y-97578541D01*
X95457325Y-97519366D01*
X95666418Y-97478127D01*
X95890518Y-97454062D01*
X96133407Y-97446403D01*
X96384491Y-97455715D01*
G36*
X96384491Y-97455715D02*
G01*
X96631760Y-97485270D01*
X96863231Y-97535527D01*
X97080547Y-97606937D01*
X97285350Y-97699948D01*
X97479281Y-97815010D01*
X97627442Y-97923092D01*
X97794148Y-98072330D01*
X97936937Y-98234993D01*
X98055762Y-98411009D01*
X98150577Y-98600307D01*
X98221335Y-98802817D01*
X98267990Y-99018466D01*
X98268353Y-99020927D01*
X98271997Y-99062456D01*
X98274700Y-99125126D01*
X98276335Y-99203141D01*
X98276778Y-99290706D01*
X98275900Y-99382027D01*
X98274615Y-99446030D01*
X98271638Y-99540991D01*
X98267376Y-99617086D01*
X98261374Y-99679802D01*
X98253177Y-99734629D01*
X98242330Y-99787054D01*
X98228313Y-99846037D01*
X98212351Y-99907574D01*
X98195606Y-99963228D01*
X98176116Y-100018051D01*
X98151921Y-100077092D01*
X98121058Y-100145403D01*
X98081567Y-100228036D01*
X98031487Y-100330041D01*
X97892063Y-100612162D01*
X97520915Y-100386201D01*
X97472338Y-100356618D01*
X97385137Y-100303471D01*
X97307179Y-100255900D01*
X97241306Y-100215646D01*
X97190364Y-100184446D01*
X97157195Y-100164038D01*
X97144643Y-100156162D01*
X97145018Y-100153972D01*
X97157302Y-100136326D01*
X97182795Y-100105325D01*
X97217542Y-100065867D01*
X97277577Y-99995594D01*
X97366354Y-99870143D01*
X97428242Y-99748425D01*
X97459148Y-99660469D01*
X97490733Y-99511697D01*
X97496332Y-99365525D01*
X97476325Y-99224071D01*
X97431094Y-99089456D01*
X97361021Y-98963800D01*
X97266487Y-98849221D01*
X97196859Y-98785465D01*
X97068072Y-98695647D01*
X96918621Y-98621947D01*
X96747740Y-98564013D01*
X96554665Y-98521493D01*
X96542679Y-98519563D01*
X96464991Y-98510651D01*
X96368465Y-98504017D01*
X96259697Y-98499714D01*
X96145282Y-98497795D01*
X96031816Y-98498316D01*
X95925894Y-98501329D01*
X95834111Y-98506888D01*
X95763065Y-98515047D01*
X95602128Y-98546320D01*
X95414134Y-98598940D01*
X95249548Y-98665119D01*
X95108497Y-98744767D01*
X94991108Y-98837797D01*
X94897511Y-98944120D01*
X94827830Y-99063647D01*
X94782195Y-99196290D01*
X94776531Y-99225719D01*
X94769136Y-99299470D01*
X94766722Y-99385658D01*
X94769156Y-99474630D01*
X94776308Y-99556728D01*
X94788043Y-99622297D01*
X94825409Y-99731528D01*
X94893626Y-99858287D01*
X94983398Y-99971156D01*
X95002309Y-99991077D01*
X95035766Y-100027174D01*
X95058286Y-100052685D01*
X95065776Y-100063050D01*
X95062194Y-100065601D01*
X95039571Y-100081308D01*
X94998495Y-100109682D01*
X94941684Y-100148850D01*
X94871860Y-100196936D01*
X94791741Y-100252066D01*
X94704049Y-100312365D01*
X94345250Y-100559000D01*
X94328743Y-100503903D01*
X94326872Y-100498154D01*
X94312014Y-100460729D01*
X94288056Y-100406770D01*
X94257879Y-100342612D01*
X94224365Y-100274585D01*
X94209548Y-100244942D01*
X94133049Y-100080338D01*
X94073893Y-99928624D01*
X94030566Y-99783966D01*
X94001555Y-99640528D01*
X93985347Y-99492476D01*
X93980428Y-99333973D01*
X93982926Y-99223667D01*
X93999863Y-99039166D01*
X94034022Y-98867765D01*
X94086839Y-98703087D01*
X94159753Y-98538758D01*
X94252849Y-98376090D01*
X94379762Y-98201515D01*
X94526498Y-98039626D01*
X94689424Y-97893986D01*
X94864907Y-97768162D01*
X95049316Y-97665717D01*
X95069044Y-97656418D01*
X95259461Y-97578541D01*
X95457325Y-97519366D01*
X95666418Y-97478127D01*
X95890518Y-97454062D01*
X96133407Y-97446403D01*
X96384491Y-97455715D01*
G37*
X96970905Y-103711672D02*
X97082957Y-103720002D01*
X97186100Y-103734394D01*
X97286429Y-103755493D01*
X97390038Y-103783944D01*
X97513881Y-103827086D01*
X97681064Y-103906324D01*
X97830809Y-104003521D01*
X97961700Y-104117189D01*
X98072322Y-104245842D01*
X98161260Y-104387993D01*
X98227098Y-104542155D01*
X98268422Y-104706840D01*
X98268754Y-104708822D01*
X98280334Y-104829177D01*
X98278789Y-104961415D01*
X98265070Y-105096110D01*
X98240131Y-105223830D01*
X98204925Y-105335148D01*
X98183501Y-105382663D01*
X98150938Y-105444545D01*
X98113694Y-105508134D01*
X98075869Y-105566793D01*
X98041562Y-105613888D01*
X98014872Y-105642784D01*
X98007544Y-105649417D01*
X98004983Y-105657325D01*
X98017699Y-105662611D01*
X98049747Y-105666506D01*
X98105179Y-105670243D01*
X98220686Y-105677108D01*
X98224282Y-106202945D01*
X98227879Y-106728782D01*
X98165794Y-106692398D01*
X98162124Y-106690229D01*
X98144892Y-106679649D01*
X98129541Y-106670051D01*
X98114737Y-106661383D01*
X98099147Y-106653594D01*
X98081437Y-106646632D01*
X98060272Y-106640445D01*
X98034321Y-106634983D01*
X98002248Y-106630192D01*
X97962720Y-106626022D01*
X97914405Y-106622420D01*
X97855967Y-106619336D01*
X97786074Y-106616717D01*
X97703392Y-106614512D01*
X97606587Y-106612670D01*
X97494325Y-106611138D01*
X97365273Y-106609865D01*
X97218098Y-106608799D01*
X97051466Y-106607889D01*
X96864042Y-106607083D01*
X96654494Y-106606329D01*
X96421488Y-106605576D01*
X96163690Y-106604772D01*
X95879767Y-106603865D01*
X93785983Y-106597000D01*
X93782393Y-106051243D01*
X93782152Y-106011555D01*
X93781673Y-105894784D01*
X93781575Y-105787979D01*
X93781840Y-105694056D01*
X93782447Y-105615930D01*
X93783376Y-105556516D01*
X93784607Y-105518730D01*
X93786120Y-105505487D01*
X93790917Y-105507181D01*
X93813658Y-105519820D01*
X93846729Y-105540754D01*
X93849891Y-105542842D01*
X93875425Y-105559072D01*
X93900269Y-105572681D01*
X93926982Y-105583898D01*
X93958122Y-105592955D01*
X93996250Y-105600083D01*
X94043923Y-105605511D01*
X94103701Y-105609471D01*
X94178143Y-105612194D01*
X94269808Y-105613909D01*
X94381256Y-105614849D01*
X94515044Y-105615244D01*
X94673733Y-105615325D01*
X94797629Y-105615181D01*
X94919267Y-105614740D01*
X95029559Y-105614035D01*
X95125821Y-105613097D01*
X95205367Y-105611957D01*
X95265511Y-105610649D01*
X95303566Y-105609204D01*
X95316848Y-105607655D01*
X95314787Y-105602656D01*
X95300270Y-105580683D01*
X95276429Y-105549303D01*
X95244367Y-105503810D01*
X95197127Y-105418336D01*
X95154988Y-105320642D01*
X95122218Y-105219848D01*
X95121083Y-105214095D01*
X95805643Y-105214095D01*
X95815172Y-105320039D01*
X95845420Y-105427635D01*
X95896566Y-105532946D01*
X95941830Y-105608460D01*
X97369053Y-105608460D01*
X97414081Y-105539811D01*
X97430301Y-105513411D01*
X97462705Y-105452962D01*
X97488509Y-105395649D01*
X97497246Y-105370549D01*
X97514689Y-105290683D01*
X97523596Y-105189703D01*
X97525449Y-105138355D01*
X97525027Y-105090691D01*
X97520267Y-105055210D01*
X97509862Y-105023385D01*
X97492507Y-104986691D01*
X97446017Y-104916172D01*
X97380254Y-104855079D01*
X97295506Y-104806177D01*
X97190445Y-104768999D01*
X97063743Y-104743082D01*
X96914070Y-104727958D01*
X96740100Y-104723164D01*
X96700548Y-104723397D01*
X96517292Y-104730289D01*
X96357833Y-104747026D01*
X96220491Y-104774013D01*
X96103582Y-104811659D01*
X96005425Y-104860370D01*
X95924336Y-104920553D01*
X95899588Y-104945521D01*
X95848029Y-105022901D01*
X95816655Y-105113738D01*
X95805643Y-105214095D01*
X95121083Y-105214095D01*
X95105508Y-105135162D01*
X95094857Y-105029691D01*
X95091166Y-104915543D01*
X95094442Y-104801525D01*
X95104688Y-104696447D01*
X95121908Y-104609118D01*
X95150916Y-104520197D01*
X95221237Y-104371856D01*
X95314725Y-104234504D01*
X95429225Y-104110673D01*
X95562587Y-104002899D01*
X95712656Y-103913715D01*
X95758674Y-103891574D01*
X95913896Y-103829527D01*
X96082361Y-103781018D01*
X96267040Y-103745434D01*
X96470901Y-103722161D01*
X96696915Y-103710587D01*
X96740100Y-103710049D01*
X96843849Y-103708759D01*
X96970905Y-103711672D01*
G36*
X96970905Y-103711672D02*
G01*
X97082957Y-103720002D01*
X97186100Y-103734394D01*
X97286429Y-103755493D01*
X97390038Y-103783944D01*
X97513881Y-103827086D01*
X97681064Y-103906324D01*
X97830809Y-104003521D01*
X97961700Y-104117189D01*
X98072322Y-104245842D01*
X98161260Y-104387993D01*
X98227098Y-104542155D01*
X98268422Y-104706840D01*
X98268754Y-104708822D01*
X98280334Y-104829177D01*
X98278789Y-104961415D01*
X98265070Y-105096110D01*
X98240131Y-105223830D01*
X98204925Y-105335148D01*
X98183501Y-105382663D01*
X98150938Y-105444545D01*
X98113694Y-105508134D01*
X98075869Y-105566793D01*
X98041562Y-105613888D01*
X98014872Y-105642784D01*
X98007544Y-105649417D01*
X98004983Y-105657325D01*
X98017699Y-105662611D01*
X98049747Y-105666506D01*
X98105179Y-105670243D01*
X98220686Y-105677108D01*
X98224282Y-106202945D01*
X98227879Y-106728782D01*
X98165794Y-106692398D01*
X98162124Y-106690229D01*
X98144892Y-106679649D01*
X98129541Y-106670051D01*
X98114737Y-106661383D01*
X98099147Y-106653594D01*
X98081437Y-106646632D01*
X98060272Y-106640445D01*
X98034321Y-106634983D01*
X98002248Y-106630192D01*
X97962720Y-106626022D01*
X97914405Y-106622420D01*
X97855967Y-106619336D01*
X97786074Y-106616717D01*
X97703392Y-106614512D01*
X97606587Y-106612670D01*
X97494325Y-106611138D01*
X97365273Y-106609865D01*
X97218098Y-106608799D01*
X97051466Y-106607889D01*
X96864042Y-106607083D01*
X96654494Y-106606329D01*
X96421488Y-106605576D01*
X96163690Y-106604772D01*
X95879767Y-106603865D01*
X93785983Y-106597000D01*
X93782393Y-106051243D01*
X93782152Y-106011555D01*
X93781673Y-105894784D01*
X93781575Y-105787979D01*
X93781840Y-105694056D01*
X93782447Y-105615930D01*
X93783376Y-105556516D01*
X93784607Y-105518730D01*
X93786120Y-105505487D01*
X93790917Y-105507181D01*
X93813658Y-105519820D01*
X93846729Y-105540754D01*
X93849891Y-105542842D01*
X93875425Y-105559072D01*
X93900269Y-105572681D01*
X93926982Y-105583898D01*
X93958122Y-105592955D01*
X93996250Y-105600083D01*
X94043923Y-105605511D01*
X94103701Y-105609471D01*
X94178143Y-105612194D01*
X94269808Y-105613909D01*
X94381256Y-105614849D01*
X94515044Y-105615244D01*
X94673733Y-105615325D01*
X94797629Y-105615181D01*
X94919267Y-105614740D01*
X95029559Y-105614035D01*
X95125821Y-105613097D01*
X95205367Y-105611957D01*
X95265511Y-105610649D01*
X95303566Y-105609204D01*
X95316848Y-105607655D01*
X95314787Y-105602656D01*
X95300270Y-105580683D01*
X95276429Y-105549303D01*
X95244367Y-105503810D01*
X95197127Y-105418336D01*
X95154988Y-105320642D01*
X95122218Y-105219848D01*
X95121083Y-105214095D01*
X95805643Y-105214095D01*
X95815172Y-105320039D01*
X95845420Y-105427635D01*
X95896566Y-105532946D01*
X95941830Y-105608460D01*
X97369053Y-105608460D01*
X97414081Y-105539811D01*
X97430301Y-105513411D01*
X97462705Y-105452962D01*
X97488509Y-105395649D01*
X97497246Y-105370549D01*
X97514689Y-105290683D01*
X97523596Y-105189703D01*
X97525449Y-105138355D01*
X97525027Y-105090691D01*
X97520267Y-105055210D01*
X97509862Y-105023385D01*
X97492507Y-104986691D01*
X97446017Y-104916172D01*
X97380254Y-104855079D01*
X97295506Y-104806177D01*
X97190445Y-104768999D01*
X97063743Y-104743082D01*
X96914070Y-104727958D01*
X96740100Y-104723164D01*
X96700548Y-104723397D01*
X96517292Y-104730289D01*
X96357833Y-104747026D01*
X96220491Y-104774013D01*
X96103582Y-104811659D01*
X96005425Y-104860370D01*
X95924336Y-104920553D01*
X95899588Y-104945521D01*
X95848029Y-105022901D01*
X95816655Y-105113738D01*
X95805643Y-105214095D01*
X95121083Y-105214095D01*
X95105508Y-105135162D01*
X95094857Y-105029691D01*
X95091166Y-104915543D01*
X95094442Y-104801525D01*
X95104688Y-104696447D01*
X95121908Y-104609118D01*
X95150916Y-104520197D01*
X95221237Y-104371856D01*
X95314725Y-104234504D01*
X95429225Y-104110673D01*
X95562587Y-104002899D01*
X95712656Y-103913715D01*
X95758674Y-103891574D01*
X95913896Y-103829527D01*
X96082361Y-103781018D01*
X96267040Y-103745434D01*
X96470901Y-103722161D01*
X96696915Y-103710587D01*
X96740100Y-103710049D01*
X96843849Y-103708759D01*
X96970905Y-103711672D01*
G37*
X97386584Y-100611552D02*
X97489587Y-100624879D01*
X97575389Y-100644988D01*
X97663666Y-100677074D01*
X97809147Y-100751451D01*
X97937143Y-100846520D01*
X98046781Y-100961296D01*
X98137190Y-101094795D01*
X98207496Y-101246034D01*
X98256829Y-101414027D01*
X98267956Y-101482531D01*
X98275689Y-101580421D01*
X98277428Y-101687030D01*
X98273313Y-101793449D01*
X98263485Y-101890769D01*
X98248084Y-101970081D01*
X98235958Y-102009935D01*
X98200474Y-102100451D01*
X98155423Y-102192462D01*
X98105691Y-102276476D01*
X98056164Y-102342999D01*
X98055449Y-102343817D01*
X98024540Y-102380271D01*
X98002531Y-102408318D01*
X97994146Y-102421945D01*
X97996148Y-102423435D01*
X98017774Y-102426806D01*
X98058108Y-102429149D01*
X98110848Y-102430027D01*
X98227551Y-102430027D01*
X98227551Y-102944892D01*
X98227549Y-102958598D01*
X98227348Y-103073549D01*
X98226847Y-103179050D01*
X98226085Y-103272100D01*
X98225097Y-103349697D01*
X98223922Y-103408840D01*
X98222597Y-103446528D01*
X98221159Y-103459757D01*
X98219902Y-103459449D01*
X98201349Y-103450794D01*
X98166493Y-103432651D01*
X98121618Y-103408270D01*
X98028470Y-103356784D01*
X97060524Y-103348838D01*
X96919543Y-103347657D01*
X96739741Y-103346005D01*
X96583647Y-103344271D01*
X96449053Y-103342314D01*
X96333753Y-103339995D01*
X96235537Y-103337174D01*
X96152200Y-103333710D01*
X96081533Y-103329464D01*
X96021328Y-103324294D01*
X95969379Y-103318062D01*
X95923478Y-103310627D01*
X95881417Y-103301848D01*
X95840989Y-103291587D01*
X95799985Y-103279701D01*
X95756200Y-103266053D01*
X95618933Y-103212284D01*
X95492070Y-103138649D01*
X95383456Y-103046948D01*
X95292522Y-102936339D01*
X95218701Y-102805984D01*
X95161423Y-102655043D01*
X95120121Y-102482677D01*
X95094226Y-102288045D01*
X95089077Y-102220019D01*
X95085312Y-102105452D01*
X95088702Y-101991898D01*
X95099820Y-101874041D01*
X95119236Y-101746564D01*
X95147522Y-101604151D01*
X95185251Y-101441487D01*
X95194380Y-101403887D01*
X95216844Y-101309465D01*
X95237527Y-101219971D01*
X95255209Y-101140833D01*
X95268668Y-101077478D01*
X95276681Y-101035334D01*
X95292651Y-100938100D01*
X95623966Y-101074798D01*
X95706688Y-101108991D01*
X95787744Y-101142629D01*
X95856949Y-101171491D01*
X95910916Y-101194159D01*
X95946260Y-101209217D01*
X95959594Y-101215247D01*
X95959785Y-101216195D01*
X95953832Y-101233670D01*
X95938576Y-101268031D01*
X95916731Y-101313080D01*
X95874191Y-101406712D01*
X95827678Y-101535556D01*
X95792058Y-101667428D01*
X95768226Y-101797170D01*
X95757075Y-101919625D01*
X95759502Y-102029637D01*
X95776400Y-102122049D01*
X95803212Y-102186545D01*
X95858158Y-102259794D01*
X95932700Y-102316181D01*
X96024543Y-102354093D01*
X96131395Y-102371915D01*
X96229875Y-102378191D01*
X96230522Y-102141703D01*
X96861830Y-102141703D01*
X96861831Y-102156710D01*
X96862675Y-102225825D01*
X96864714Y-102285194D01*
X96867681Y-102328914D01*
X96871309Y-102351081D01*
X96872487Y-102353632D01*
X96879883Y-102361879D01*
X96894747Y-102367720D01*
X96921075Y-102371559D01*
X96962866Y-102373801D01*
X97024118Y-102374849D01*
X97108829Y-102375108D01*
X97181488Y-102374725D01*
X97257833Y-102372870D01*
X97313016Y-102369235D01*
X97350630Y-102363556D01*
X97374269Y-102355568D01*
X97391149Y-102345292D01*
X97437165Y-102306596D01*
X97485069Y-102254749D01*
X97527752Y-102197922D01*
X97558101Y-102144289D01*
X97569237Y-102114532D01*
X97584064Y-102046015D01*
X97591644Y-101956526D01*
X97590496Y-101862176D01*
X97574904Y-101772580D01*
X97542694Y-101697796D01*
X97492415Y-101633093D01*
X97473818Y-101614892D01*
X97410394Y-101567503D01*
X97342032Y-101541862D01*
X97259773Y-101534162D01*
X97216315Y-101536248D01*
X97126853Y-101556879D01*
X97050067Y-101600219D01*
X96985091Y-101667057D01*
X96931063Y-101758183D01*
X96887118Y-101874386D01*
X96875586Y-101921233D01*
X96867690Y-101977946D01*
X96863305Y-102049319D01*
X96861830Y-102141703D01*
X96230522Y-102141703D01*
X96230772Y-102050569D01*
X96231699Y-101940082D01*
X96234989Y-101817876D01*
X96241199Y-101713479D01*
X96250932Y-101621490D01*
X96264791Y-101536510D01*
X96283381Y-101453137D01*
X96307306Y-101365973D01*
X96352844Y-101235554D01*
X96427836Y-101082154D01*
X96519695Y-100947526D01*
X96627128Y-100832998D01*
X96748843Y-100739898D01*
X96883549Y-100669553D01*
X97029953Y-100623291D01*
X97069384Y-100616046D01*
X97166981Y-100606758D01*
X97259773Y-100605588D01*
X97275882Y-100605386D01*
X97386584Y-100611552D01*
G36*
X97386584Y-100611552D02*
G01*
X97489587Y-100624879D01*
X97575389Y-100644988D01*
X97663666Y-100677074D01*
X97809147Y-100751451D01*
X97937143Y-100846520D01*
X98046781Y-100961296D01*
X98137190Y-101094795D01*
X98207496Y-101246034D01*
X98256829Y-101414027D01*
X98267956Y-101482531D01*
X98275689Y-101580421D01*
X98277428Y-101687030D01*
X98273313Y-101793449D01*
X98263485Y-101890769D01*
X98248084Y-101970081D01*
X98235958Y-102009935D01*
X98200474Y-102100451D01*
X98155423Y-102192462D01*
X98105691Y-102276476D01*
X98056164Y-102342999D01*
X98055449Y-102343817D01*
X98024540Y-102380271D01*
X98002531Y-102408318D01*
X97994146Y-102421945D01*
X97996148Y-102423435D01*
X98017774Y-102426806D01*
X98058108Y-102429149D01*
X98110848Y-102430027D01*
X98227551Y-102430027D01*
X98227551Y-102944892D01*
X98227549Y-102958598D01*
X98227348Y-103073549D01*
X98226847Y-103179050D01*
X98226085Y-103272100D01*
X98225097Y-103349697D01*
X98223922Y-103408840D01*
X98222597Y-103446528D01*
X98221159Y-103459757D01*
X98219902Y-103459449D01*
X98201349Y-103450794D01*
X98166493Y-103432651D01*
X98121618Y-103408270D01*
X98028470Y-103356784D01*
X97060524Y-103348838D01*
X96919543Y-103347657D01*
X96739741Y-103346005D01*
X96583647Y-103344271D01*
X96449053Y-103342314D01*
X96333753Y-103339995D01*
X96235537Y-103337174D01*
X96152200Y-103333710D01*
X96081533Y-103329464D01*
X96021328Y-103324294D01*
X95969379Y-103318062D01*
X95923478Y-103310627D01*
X95881417Y-103301848D01*
X95840989Y-103291587D01*
X95799985Y-103279701D01*
X95756200Y-103266053D01*
X95618933Y-103212284D01*
X95492070Y-103138649D01*
X95383456Y-103046948D01*
X95292522Y-102936339D01*
X95218701Y-102805984D01*
X95161423Y-102655043D01*
X95120121Y-102482677D01*
X95094226Y-102288045D01*
X95089077Y-102220019D01*
X95085312Y-102105452D01*
X95088702Y-101991898D01*
X95099820Y-101874041D01*
X95119236Y-101746564D01*
X95147522Y-101604151D01*
X95185251Y-101441487D01*
X95194380Y-101403887D01*
X95216844Y-101309465D01*
X95237527Y-101219971D01*
X95255209Y-101140833D01*
X95268668Y-101077478D01*
X95276681Y-101035334D01*
X95292651Y-100938100D01*
X95623966Y-101074798D01*
X95706688Y-101108991D01*
X95787744Y-101142629D01*
X95856949Y-101171491D01*
X95910916Y-101194159D01*
X95946260Y-101209217D01*
X95959594Y-101215247D01*
X95959785Y-101216195D01*
X95953832Y-101233670D01*
X95938576Y-101268031D01*
X95916731Y-101313080D01*
X95874191Y-101406712D01*
X95827678Y-101535556D01*
X95792058Y-101667428D01*
X95768226Y-101797170D01*
X95757075Y-101919625D01*
X95759502Y-102029637D01*
X95776400Y-102122049D01*
X95803212Y-102186545D01*
X95858158Y-102259794D01*
X95932700Y-102316181D01*
X96024543Y-102354093D01*
X96131395Y-102371915D01*
X96229875Y-102378191D01*
X96230522Y-102141703D01*
X96861830Y-102141703D01*
X96861831Y-102156710D01*
X96862675Y-102225825D01*
X96864714Y-102285194D01*
X96867681Y-102328914D01*
X96871309Y-102351081D01*
X96872487Y-102353632D01*
X96879883Y-102361879D01*
X96894747Y-102367720D01*
X96921075Y-102371559D01*
X96962866Y-102373801D01*
X97024118Y-102374849D01*
X97108829Y-102375108D01*
X97181488Y-102374725D01*
X97257833Y-102372870D01*
X97313016Y-102369235D01*
X97350630Y-102363556D01*
X97374269Y-102355568D01*
X97391149Y-102345292D01*
X97437165Y-102306596D01*
X97485069Y-102254749D01*
X97527752Y-102197922D01*
X97558101Y-102144289D01*
X97569237Y-102114532D01*
X97584064Y-102046015D01*
X97591644Y-101956526D01*
X97590496Y-101862176D01*
X97574904Y-101772580D01*
X97542694Y-101697796D01*
X97492415Y-101633093D01*
X97473818Y-101614892D01*
X97410394Y-101567503D01*
X97342032Y-101541862D01*
X97259773Y-101534162D01*
X97216315Y-101536248D01*
X97126853Y-101556879D01*
X97050067Y-101600219D01*
X96985091Y-101667057D01*
X96931063Y-101758183D01*
X96887118Y-101874386D01*
X96875586Y-101921233D01*
X96867690Y-101977946D01*
X96863305Y-102049319D01*
X96861830Y-102141703D01*
X96230522Y-102141703D01*
X96230772Y-102050569D01*
X96231699Y-101940082D01*
X96234989Y-101817876D01*
X96241199Y-101713479D01*
X96250932Y-101621490D01*
X96264791Y-101536510D01*
X96283381Y-101453137D01*
X96307306Y-101365973D01*
X96352844Y-101235554D01*
X96427836Y-101082154D01*
X96519695Y-100947526D01*
X96627128Y-100832998D01*
X96748843Y-100739898D01*
X96883549Y-100669553D01*
X97029953Y-100623291D01*
X97069384Y-100616046D01*
X97166981Y-100606758D01*
X97259773Y-100605588D01*
X97275882Y-100605386D01*
X97386584Y-100611552D01*
G37*
X97242408Y-91391247D02*
X97461258Y-91391364D01*
X97658539Y-91391609D01*
X97835387Y-91392016D01*
X97992938Y-91392621D01*
X98132327Y-91393460D01*
X98213821Y-91394199D01*
X98254688Y-91394569D01*
X98361158Y-91395982D01*
X98452872Y-91397737D01*
X98530965Y-91399868D01*
X98596572Y-91402412D01*
X98650829Y-91405403D01*
X98694871Y-91408879D01*
X98729833Y-91412874D01*
X98756851Y-91417425D01*
X98777060Y-91422567D01*
X98791595Y-91428335D01*
X98801592Y-91434766D01*
X98808186Y-91441895D01*
X98812513Y-91449759D01*
X98815707Y-91458392D01*
X98818904Y-91467830D01*
X98823239Y-91478110D01*
X98825411Y-91483894D01*
X98827784Y-91494504D01*
X98829958Y-91510269D01*
X98831941Y-91532304D01*
X98833744Y-91561724D01*
X98835373Y-91599645D01*
X98836839Y-91647182D01*
X98838149Y-91705450D01*
X98839313Y-91775564D01*
X98840339Y-91858640D01*
X98841236Y-91955793D01*
X98842013Y-92068138D01*
X98842678Y-92196789D01*
X98843240Y-92342864D01*
X98843708Y-92507476D01*
X98844090Y-92691741D01*
X98844396Y-92896774D01*
X98844633Y-93123690D01*
X98844811Y-93373605D01*
X98844939Y-93647633D01*
X98845024Y-93946891D01*
X98845076Y-94272493D01*
X98845086Y-94375675D01*
X98845093Y-94694211D01*
X98845053Y-94986727D01*
X98844958Y-95254326D01*
X98844801Y-95498110D01*
X98844573Y-95719182D01*
X98844267Y-95918642D01*
X98843873Y-96097593D01*
X98843386Y-96257138D01*
X98842795Y-96398378D01*
X98842095Y-96522415D01*
X98841275Y-96630351D01*
X98840329Y-96723288D01*
X98839248Y-96802329D01*
X98838025Y-96868575D01*
X98836651Y-96923129D01*
X98835119Y-96967092D01*
X98833420Y-97001567D01*
X98831546Y-97027655D01*
X98829490Y-97046458D01*
X98827244Y-97059079D01*
X98824798Y-97066620D01*
X98823710Y-97069019D01*
X98820135Y-97078841D01*
X98817524Y-97087848D01*
X98814741Y-97096077D01*
X98810648Y-97103564D01*
X98804108Y-97110346D01*
X98793985Y-97116459D01*
X98779141Y-97121939D01*
X98758439Y-97126824D01*
X98730743Y-97131150D01*
X98694916Y-97134953D01*
X98649821Y-97138270D01*
X98594320Y-97141138D01*
X98527277Y-97143592D01*
X98447555Y-97145670D01*
X98354018Y-97147407D01*
X98245527Y-97148841D01*
X98120946Y-97150008D01*
X97979138Y-97150944D01*
X97818967Y-97151686D01*
X97639295Y-97152271D01*
X97438985Y-97152735D01*
X97216900Y-97153114D01*
X96971904Y-97153445D01*
X96702860Y-97153765D01*
X96408630Y-97154110D01*
X96088078Y-97154516D01*
X96049272Y-97154569D01*
X95730751Y-97155022D01*
X95438420Y-97155455D01*
X95171141Y-97155837D01*
X94927777Y-97156134D01*
X94707190Y-97156316D01*
X94508243Y-97156349D01*
X94329798Y-97156203D01*
X94170719Y-97155844D01*
X94029867Y-97155240D01*
X93906105Y-97154360D01*
X93798295Y-97153172D01*
X93705301Y-97151643D01*
X93625985Y-97149742D01*
X93559208Y-97147436D01*
X93503835Y-97144693D01*
X93458727Y-97141482D01*
X93422747Y-97137769D01*
X93394757Y-97133524D01*
X93373620Y-97128713D01*
X93358199Y-97123306D01*
X93347356Y-97117269D01*
X93339954Y-97110571D01*
X93334855Y-97103179D01*
X93330921Y-97095063D01*
X93327016Y-97086189D01*
X93322002Y-97076525D01*
X93320404Y-97073697D01*
X93304937Y-97030910D01*
X93298580Y-96984071D01*
X93298582Y-96931270D01*
X93418715Y-96930390D01*
X93432540Y-96930167D01*
X93573063Y-96913385D01*
X93705283Y-96870641D01*
X93827800Y-96802531D01*
X93939211Y-96709646D01*
X93984651Y-96659802D01*
X94059968Y-96548819D01*
X94112491Y-96427726D01*
X94142190Y-96300049D01*
X94149038Y-96169317D01*
X94133007Y-96039054D01*
X94094069Y-95912789D01*
X94032196Y-95794048D01*
X93947359Y-95686357D01*
X93917450Y-95656420D01*
X93838254Y-95593141D01*
X95152092Y-95593141D01*
X95152092Y-96676303D01*
X98001010Y-96684135D01*
X98083016Y-96722533D01*
X98123663Y-96742778D01*
X98164380Y-96765701D01*
X98189422Y-96783013D01*
X98189470Y-96783056D01*
X98195288Y-96787259D01*
X98200099Y-96786862D01*
X98203998Y-96779579D01*
X98207080Y-96763125D01*
X98209442Y-96735213D01*
X98211178Y-96693557D01*
X98212384Y-96635872D01*
X98213156Y-96559872D01*
X98213589Y-96463270D01*
X98213779Y-96343780D01*
X98213821Y-96199118D01*
X98213821Y-95593141D01*
X98121146Y-95644368D01*
X98028470Y-95695595D01*
X95337443Y-95695595D01*
X95244767Y-95644368D01*
X95152092Y-95593141D01*
X93838254Y-95593141D01*
X93806710Y-95567937D01*
X93686532Y-95505150D01*
X93556139Y-95467725D01*
X93414758Y-95455325D01*
X93298578Y-95455325D01*
X93298578Y-93484426D01*
X93298573Y-93361294D01*
X93298537Y-93096771D01*
X93298511Y-92857812D01*
X93298547Y-92643096D01*
X93298697Y-92451301D01*
X93298765Y-92414600D01*
X94039983Y-92414600D01*
X94039983Y-93068792D01*
X94080958Y-93034314D01*
X94109101Y-93014332D01*
X94175456Y-92981071D01*
X94257983Y-92951923D01*
X94349527Y-92929676D01*
X94358217Y-92928258D01*
X94404031Y-92924040D01*
X94474837Y-92920845D01*
X94571123Y-92918665D01*
X94693380Y-92917493D01*
X94842099Y-92917319D01*
X95017770Y-92918136D01*
X95604260Y-92922189D01*
X95074707Y-93340946D01*
X95059538Y-93352940D01*
X94925103Y-93459133D01*
X94809972Y-93549793D01*
X94712187Y-93626363D01*
X94629791Y-93690287D01*
X94560826Y-93743007D01*
X94503334Y-93785965D01*
X94455358Y-93820605D01*
X94414941Y-93848369D01*
X94380124Y-93870700D01*
X94348951Y-93889042D01*
X94319463Y-93904836D01*
X94289703Y-93919526D01*
X94237025Y-93942124D01*
X94181454Y-93956723D01*
X94121514Y-93960606D01*
X94039983Y-93960216D01*
X94039983Y-95349607D01*
X94083447Y-95289195D01*
X94124296Y-95238104D01*
X94190924Y-95166111D01*
X94274428Y-95084454D01*
X94371626Y-94996224D01*
X94479335Y-94904514D01*
X94508138Y-94880897D01*
X94557540Y-94840687D01*
X94622353Y-94788127D01*
X94700414Y-94724958D01*
X94789559Y-94652922D01*
X94887626Y-94573760D01*
X94992452Y-94489212D01*
X95101872Y-94401021D01*
X95152092Y-94360570D01*
X95213724Y-94310928D01*
X95325845Y-94220674D01*
X95436072Y-94131999D01*
X95542240Y-94046646D01*
X95642188Y-93966356D01*
X95733751Y-93892870D01*
X95814767Y-93827929D01*
X95883072Y-93773274D01*
X95936503Y-93730648D01*
X95972896Y-93701790D01*
X95990090Y-93688443D01*
X95996551Y-93687341D01*
X96008840Y-93691006D01*
X96028173Y-93700501D01*
X96055922Y-93716776D01*
X96093458Y-93740778D01*
X96142152Y-93773454D01*
X96203377Y-93815753D01*
X96278502Y-93868623D01*
X96368900Y-93933011D01*
X96475942Y-94009866D01*
X96601000Y-94100134D01*
X96745444Y-94204765D01*
X96910646Y-94324705D01*
X97042145Y-94420272D01*
X97202453Y-94536866D01*
X97343235Y-94639426D01*
X97466052Y-94729145D01*
X97572467Y-94807214D01*
X97664043Y-94874826D01*
X97742342Y-94933176D01*
X97808927Y-94983454D01*
X97865359Y-95026853D01*
X97913202Y-95064568D01*
X97954017Y-95097789D01*
X97989368Y-95127711D01*
X98020816Y-95155525D01*
X98049924Y-95182424D01*
X98078254Y-95209601D01*
X98107370Y-95238249D01*
X98213821Y-95343822D01*
X98213879Y-93924460D01*
X98127867Y-93928919D01*
X98123545Y-93929135D01*
X98089161Y-93929982D01*
X98056216Y-93928377D01*
X98022906Y-93923248D01*
X97987426Y-93913521D01*
X97947973Y-93898123D01*
X97902741Y-93875980D01*
X97849925Y-93846019D01*
X97787722Y-93807166D01*
X97714325Y-93758348D01*
X97627932Y-93698492D01*
X97526738Y-93626524D01*
X97408936Y-93541371D01*
X97272724Y-93441960D01*
X97116297Y-93327216D01*
X96564889Y-92922189D01*
X97204230Y-92918621D01*
X97263868Y-92918305D01*
X97424505Y-92917747D01*
X97561137Y-92918001D01*
X97676350Y-92919364D01*
X97772731Y-92922137D01*
X97852864Y-92926616D01*
X97919335Y-92933101D01*
X97974731Y-92941891D01*
X98021636Y-92953284D01*
X98062636Y-92967579D01*
X98100317Y-92985074D01*
X98137265Y-93006067D01*
X98176065Y-93030859D01*
X98213821Y-93055780D01*
X98213821Y-91760630D01*
X98169200Y-91794085D01*
X98162141Y-91799324D01*
X98097442Y-91841212D01*
X98032038Y-91870087D01*
X97957096Y-91889048D01*
X97863781Y-91901193D01*
X97859713Y-91901527D01*
X97821223Y-91903289D01*
X97757004Y-91904881D01*
X97668524Y-91906294D01*
X97557251Y-91907522D01*
X97424651Y-91908558D01*
X97272193Y-91909396D01*
X97101344Y-91910028D01*
X96913570Y-91910447D01*
X96710341Y-91910646D01*
X96493122Y-91910619D01*
X96263383Y-91910359D01*
X96022589Y-91909859D01*
X95806596Y-91909329D01*
X95571483Y-91908762D01*
X95361127Y-91908203D01*
X95174054Y-91907584D01*
X95008790Y-91906833D01*
X94863861Y-91905880D01*
X94737795Y-91904656D01*
X94629116Y-91903091D01*
X94536352Y-91901113D01*
X94458028Y-91898654D01*
X94392670Y-91895643D01*
X94338806Y-91892010D01*
X94294961Y-91887685D01*
X94259661Y-91882598D01*
X94231433Y-91876679D01*
X94208803Y-91869857D01*
X94190297Y-91862063D01*
X94174442Y-91853226D01*
X94159763Y-91843277D01*
X94144788Y-91832145D01*
X94128041Y-91819760D01*
X94111260Y-91807782D01*
X94078079Y-91784629D01*
X94057146Y-91770761D01*
X94056269Y-91770426D01*
X94052310Y-91775268D01*
X94049007Y-91792357D01*
X94046309Y-91823593D01*
X94044165Y-91870879D01*
X94042524Y-91936116D01*
X94041337Y-92021204D01*
X94040551Y-92128047D01*
X94040117Y-92258545D01*
X94039983Y-92414600D01*
X93298765Y-92414600D01*
X93299014Y-92281107D01*
X93299550Y-92131191D01*
X93300356Y-92000232D01*
X93301486Y-91886909D01*
X93302992Y-91789900D01*
X93304925Y-91707885D01*
X93307339Y-91639540D01*
X93310284Y-91583546D01*
X93313814Y-91538581D01*
X93317981Y-91503323D01*
X93322837Y-91476451D01*
X93328434Y-91456643D01*
X93334824Y-91442579D01*
X93342060Y-91432936D01*
X93350194Y-91426393D01*
X93359279Y-91421629D01*
X93369366Y-91417322D01*
X93380507Y-91412151D01*
X93380689Y-91412059D01*
X93387982Y-91409548D01*
X93400195Y-91407246D01*
X93418453Y-91405142D01*
X93443885Y-91403228D01*
X93477617Y-91401496D01*
X93520776Y-91399936D01*
X93574489Y-91398541D01*
X93639883Y-91397301D01*
X93718086Y-91396207D01*
X93810224Y-91395251D01*
X93917424Y-91394424D01*
X94040814Y-91393717D01*
X94181519Y-91393121D01*
X94340668Y-91392629D01*
X94519388Y-91392230D01*
X94718805Y-91391917D01*
X94940046Y-91391681D01*
X95184238Y-91391512D01*
X95452509Y-91391402D01*
X95745985Y-91391342D01*
X96065794Y-91391325D01*
X96128621Y-91391324D01*
X96445097Y-91391294D01*
X96735463Y-91391247D01*
X97000855Y-91391219D01*
X97242408Y-91391247D01*
G36*
X97242408Y-91391247D02*
G01*
X97461258Y-91391364D01*
X97658539Y-91391609D01*
X97835387Y-91392016D01*
X97992938Y-91392621D01*
X98132327Y-91393460D01*
X98213821Y-91394199D01*
X98254688Y-91394569D01*
X98361158Y-91395982D01*
X98452872Y-91397737D01*
X98530965Y-91399868D01*
X98596572Y-91402412D01*
X98650829Y-91405403D01*
X98694871Y-91408879D01*
X98729833Y-91412874D01*
X98756851Y-91417425D01*
X98777060Y-91422567D01*
X98791595Y-91428335D01*
X98801592Y-91434766D01*
X98808186Y-91441895D01*
X98812513Y-91449759D01*
X98815707Y-91458392D01*
X98818904Y-91467830D01*
X98823239Y-91478110D01*
X98825411Y-91483894D01*
X98827784Y-91494504D01*
X98829958Y-91510269D01*
X98831941Y-91532304D01*
X98833744Y-91561724D01*
X98835373Y-91599645D01*
X98836839Y-91647182D01*
X98838149Y-91705450D01*
X98839313Y-91775564D01*
X98840339Y-91858640D01*
X98841236Y-91955793D01*
X98842013Y-92068138D01*
X98842678Y-92196789D01*
X98843240Y-92342864D01*
X98843708Y-92507476D01*
X98844090Y-92691741D01*
X98844396Y-92896774D01*
X98844633Y-93123690D01*
X98844811Y-93373605D01*
X98844939Y-93647633D01*
X98845024Y-93946891D01*
X98845076Y-94272493D01*
X98845086Y-94375675D01*
X98845093Y-94694211D01*
X98845053Y-94986727D01*
X98844958Y-95254326D01*
X98844801Y-95498110D01*
X98844573Y-95719182D01*
X98844267Y-95918642D01*
X98843873Y-96097593D01*
X98843386Y-96257138D01*
X98842795Y-96398378D01*
X98842095Y-96522415D01*
X98841275Y-96630351D01*
X98840329Y-96723288D01*
X98839248Y-96802329D01*
X98838025Y-96868575D01*
X98836651Y-96923129D01*
X98835119Y-96967092D01*
X98833420Y-97001567D01*
X98831546Y-97027655D01*
X98829490Y-97046458D01*
X98827244Y-97059079D01*
X98824798Y-97066620D01*
X98823710Y-97069019D01*
X98820135Y-97078841D01*
X98817524Y-97087848D01*
X98814741Y-97096077D01*
X98810648Y-97103564D01*
X98804108Y-97110346D01*
X98793985Y-97116459D01*
X98779141Y-97121939D01*
X98758439Y-97126824D01*
X98730743Y-97131150D01*
X98694916Y-97134953D01*
X98649821Y-97138270D01*
X98594320Y-97141138D01*
X98527277Y-97143592D01*
X98447555Y-97145670D01*
X98354018Y-97147407D01*
X98245527Y-97148841D01*
X98120946Y-97150008D01*
X97979138Y-97150944D01*
X97818967Y-97151686D01*
X97639295Y-97152271D01*
X97438985Y-97152735D01*
X97216900Y-97153114D01*
X96971904Y-97153445D01*
X96702860Y-97153765D01*
X96408630Y-97154110D01*
X96088078Y-97154516D01*
X96049272Y-97154569D01*
X95730751Y-97155022D01*
X95438420Y-97155455D01*
X95171141Y-97155837D01*
X94927777Y-97156134D01*
X94707190Y-97156316D01*
X94508243Y-97156349D01*
X94329798Y-97156203D01*
X94170719Y-97155844D01*
X94029867Y-97155240D01*
X93906105Y-97154360D01*
X93798295Y-97153172D01*
X93705301Y-97151643D01*
X93625985Y-97149742D01*
X93559208Y-97147436D01*
X93503835Y-97144693D01*
X93458727Y-97141482D01*
X93422747Y-97137769D01*
X93394757Y-97133524D01*
X93373620Y-97128713D01*
X93358199Y-97123306D01*
X93347356Y-97117269D01*
X93339954Y-97110571D01*
X93334855Y-97103179D01*
X93330921Y-97095063D01*
X93327016Y-97086189D01*
X93322002Y-97076525D01*
X93320404Y-97073697D01*
X93304937Y-97030910D01*
X93298580Y-96984071D01*
X93298582Y-96931270D01*
X93418715Y-96930390D01*
X93432540Y-96930167D01*
X93573063Y-96913385D01*
X93705283Y-96870641D01*
X93827800Y-96802531D01*
X93939211Y-96709646D01*
X93984651Y-96659802D01*
X94059968Y-96548819D01*
X94112491Y-96427726D01*
X94142190Y-96300049D01*
X94149038Y-96169317D01*
X94133007Y-96039054D01*
X94094069Y-95912789D01*
X94032196Y-95794048D01*
X93947359Y-95686357D01*
X93917450Y-95656420D01*
X93838254Y-95593141D01*
X95152092Y-95593141D01*
X95152092Y-96676303D01*
X98001010Y-96684135D01*
X98083016Y-96722533D01*
X98123663Y-96742778D01*
X98164380Y-96765701D01*
X98189422Y-96783013D01*
X98189470Y-96783056D01*
X98195288Y-96787259D01*
X98200099Y-96786862D01*
X98203998Y-96779579D01*
X98207080Y-96763125D01*
X98209442Y-96735213D01*
X98211178Y-96693557D01*
X98212384Y-96635872D01*
X98213156Y-96559872D01*
X98213589Y-96463270D01*
X98213779Y-96343780D01*
X98213821Y-96199118D01*
X98213821Y-95593141D01*
X98121146Y-95644368D01*
X98028470Y-95695595D01*
X95337443Y-95695595D01*
X95244767Y-95644368D01*
X95152092Y-95593141D01*
X93838254Y-95593141D01*
X93806710Y-95567937D01*
X93686532Y-95505150D01*
X93556139Y-95467725D01*
X93414758Y-95455325D01*
X93298578Y-95455325D01*
X93298578Y-93484426D01*
X93298573Y-93361294D01*
X93298537Y-93096771D01*
X93298511Y-92857812D01*
X93298547Y-92643096D01*
X93298697Y-92451301D01*
X93298765Y-92414600D01*
X94039983Y-92414600D01*
X94039983Y-93068792D01*
X94080958Y-93034314D01*
X94109101Y-93014332D01*
X94175456Y-92981071D01*
X94257983Y-92951923D01*
X94349527Y-92929676D01*
X94358217Y-92928258D01*
X94404031Y-92924040D01*
X94474837Y-92920845D01*
X94571123Y-92918665D01*
X94693380Y-92917493D01*
X94842099Y-92917319D01*
X95017770Y-92918136D01*
X95604260Y-92922189D01*
X95074707Y-93340946D01*
X95059538Y-93352940D01*
X94925103Y-93459133D01*
X94809972Y-93549793D01*
X94712187Y-93626363D01*
X94629791Y-93690287D01*
X94560826Y-93743007D01*
X94503334Y-93785965D01*
X94455358Y-93820605D01*
X94414941Y-93848369D01*
X94380124Y-93870700D01*
X94348951Y-93889042D01*
X94319463Y-93904836D01*
X94289703Y-93919526D01*
X94237025Y-93942124D01*
X94181454Y-93956723D01*
X94121514Y-93960606D01*
X94039983Y-93960216D01*
X94039983Y-95349607D01*
X94083447Y-95289195D01*
X94124296Y-95238104D01*
X94190924Y-95166111D01*
X94274428Y-95084454D01*
X94371626Y-94996224D01*
X94479335Y-94904514D01*
X94508138Y-94880897D01*
X94557540Y-94840687D01*
X94622353Y-94788127D01*
X94700414Y-94724958D01*
X94789559Y-94652922D01*
X94887626Y-94573760D01*
X94992452Y-94489212D01*
X95101872Y-94401021D01*
X95152092Y-94360570D01*
X95213724Y-94310928D01*
X95325845Y-94220674D01*
X95436072Y-94131999D01*
X95542240Y-94046646D01*
X95642188Y-93966356D01*
X95733751Y-93892870D01*
X95814767Y-93827929D01*
X95883072Y-93773274D01*
X95936503Y-93730648D01*
X95972896Y-93701790D01*
X95990090Y-93688443D01*
X95996551Y-93687341D01*
X96008840Y-93691006D01*
X96028173Y-93700501D01*
X96055922Y-93716776D01*
X96093458Y-93740778D01*
X96142152Y-93773454D01*
X96203377Y-93815753D01*
X96278502Y-93868623D01*
X96368900Y-93933011D01*
X96475942Y-94009866D01*
X96601000Y-94100134D01*
X96745444Y-94204765D01*
X96910646Y-94324705D01*
X97042145Y-94420272D01*
X97202453Y-94536866D01*
X97343235Y-94639426D01*
X97466052Y-94729145D01*
X97572467Y-94807214D01*
X97664043Y-94874826D01*
X97742342Y-94933176D01*
X97808927Y-94983454D01*
X97865359Y-95026853D01*
X97913202Y-95064568D01*
X97954017Y-95097789D01*
X97989368Y-95127711D01*
X98020816Y-95155525D01*
X98049924Y-95182424D01*
X98078254Y-95209601D01*
X98107370Y-95238249D01*
X98213821Y-95343822D01*
X98213879Y-93924460D01*
X98127867Y-93928919D01*
X98123545Y-93929135D01*
X98089161Y-93929982D01*
X98056216Y-93928377D01*
X98022906Y-93923248D01*
X97987426Y-93913521D01*
X97947973Y-93898123D01*
X97902741Y-93875980D01*
X97849925Y-93846019D01*
X97787722Y-93807166D01*
X97714325Y-93758348D01*
X97627932Y-93698492D01*
X97526738Y-93626524D01*
X97408936Y-93541371D01*
X97272724Y-93441960D01*
X97116297Y-93327216D01*
X96564889Y-92922189D01*
X97204230Y-92918621D01*
X97263868Y-92918305D01*
X97424505Y-92917747D01*
X97561137Y-92918001D01*
X97676350Y-92919364D01*
X97772731Y-92922137D01*
X97852864Y-92926616D01*
X97919335Y-92933101D01*
X97974731Y-92941891D01*
X98021636Y-92953284D01*
X98062636Y-92967579D01*
X98100317Y-92985074D01*
X98137265Y-93006067D01*
X98176065Y-93030859D01*
X98213821Y-93055780D01*
X98213821Y-91760630D01*
X98169200Y-91794085D01*
X98162141Y-91799324D01*
X98097442Y-91841212D01*
X98032038Y-91870087D01*
X97957096Y-91889048D01*
X97863781Y-91901193D01*
X97859713Y-91901527D01*
X97821223Y-91903289D01*
X97757004Y-91904881D01*
X97668524Y-91906294D01*
X97557251Y-91907522D01*
X97424651Y-91908558D01*
X97272193Y-91909396D01*
X97101344Y-91910028D01*
X96913570Y-91910447D01*
X96710341Y-91910646D01*
X96493122Y-91910619D01*
X96263383Y-91910359D01*
X96022589Y-91909859D01*
X95806596Y-91909329D01*
X95571483Y-91908762D01*
X95361127Y-91908203D01*
X95174054Y-91907584D01*
X95008790Y-91906833D01*
X94863861Y-91905880D01*
X94737795Y-91904656D01*
X94629116Y-91903091D01*
X94536352Y-91901113D01*
X94458028Y-91898654D01*
X94392670Y-91895643D01*
X94338806Y-91892010D01*
X94294961Y-91887685D01*
X94259661Y-91882598D01*
X94231433Y-91876679D01*
X94208803Y-91869857D01*
X94190297Y-91862063D01*
X94174442Y-91853226D01*
X94159763Y-91843277D01*
X94144788Y-91832145D01*
X94128041Y-91819760D01*
X94111260Y-91807782D01*
X94078079Y-91784629D01*
X94057146Y-91770761D01*
X94056269Y-91770426D01*
X94052310Y-91775268D01*
X94049007Y-91792357D01*
X94046309Y-91823593D01*
X94044165Y-91870879D01*
X94042524Y-91936116D01*
X94041337Y-92021204D01*
X94040551Y-92128047D01*
X94040117Y-92258545D01*
X94039983Y-92414600D01*
X93298765Y-92414600D01*
X93299014Y-92281107D01*
X93299550Y-92131191D01*
X93300356Y-92000232D01*
X93301486Y-91886909D01*
X93302992Y-91789900D01*
X93304925Y-91707885D01*
X93307339Y-91639540D01*
X93310284Y-91583546D01*
X93313814Y-91538581D01*
X93317981Y-91503323D01*
X93322837Y-91476451D01*
X93328434Y-91456643D01*
X93334824Y-91442579D01*
X93342060Y-91432936D01*
X93350194Y-91426393D01*
X93359279Y-91421629D01*
X93369366Y-91417322D01*
X93380507Y-91412151D01*
X93380689Y-91412059D01*
X93387982Y-91409548D01*
X93400195Y-91407246D01*
X93418453Y-91405142D01*
X93443885Y-91403228D01*
X93477617Y-91401496D01*
X93520776Y-91399936D01*
X93574489Y-91398541D01*
X93639883Y-91397301D01*
X93718086Y-91396207D01*
X93810224Y-91395251D01*
X93917424Y-91394424D01*
X94040814Y-91393717D01*
X94181519Y-91393121D01*
X94340668Y-91392629D01*
X94519388Y-91392230D01*
X94718805Y-91391917D01*
X94940046Y-91391681D01*
X95184238Y-91391512D01*
X95452509Y-91391402D01*
X95745985Y-91391342D01*
X96065794Y-91391325D01*
X96128621Y-91391324D01*
X96445097Y-91391294D01*
X96735463Y-91391247D01*
X97000855Y-91391219D01*
X97242408Y-91391247D01*
G37*
%TD*%
M02*
