%TF.GenerationSoftware,KiCad,Pcbnew,9.0.2*%
%TF.CreationDate,2025-06-18T23:28:51+06:00*%
%TF.ProjectId,Breadboardpower_Supply,42726561-6462-46f6-9172-64706f776572,rev?*%
%TF.SameCoordinates,Original*%
%TF.FileFunction,Soldermask,Top*%
%TF.FilePolarity,Negative*%
%FSLAX46Y46*%
G04 Gerber Fmt 4.6, Leading zero omitted, Abs format (unit mm)*
G04 Created by KiCad (PCBNEW 9.0.2) date 2025-06-18 23:28:51*
%MOMM*%
%LPD*%
G01*
G04 APERTURE LIST*
G04 Aperture macros list*
%AMRoundRect*
0 Rectangle with rounded corners*
0 $1 Rounding radius*
0 $2 $3 $4 $5 $6 $7 $8 $9 X,Y pos of 4 corners*
0 Add a 4 corners polygon primitive as box body*
4,1,4,$2,$3,$4,$5,$6,$7,$8,$9,$2,$3,0*
0 Add four circle primitives for the rounded corners*
1,1,$1+$1,$2,$3*
1,1,$1+$1,$4,$5*
1,1,$1+$1,$6,$7*
1,1,$1+$1,$8,$9*
0 Add four rect primitives between the rounded corners*
20,1,$1+$1,$2,$3,$4,$5,0*
20,1,$1+$1,$4,$5,$6,$7,0*
20,1,$1+$1,$6,$7,$8,$9,0*
20,1,$1+$1,$8,$9,$2,$3,0*%
G04 Aperture macros list end*
%ADD10C,1.700000*%
%ADD11R,1.700000X1.700000*%
%ADD12C,3.000000*%
%ADD13R,3.000000X3.000000*%
%ADD14R,1.905000X2.000000*%
%ADD15O,1.905000X2.000000*%
%ADD16R,1.900000X1.900000*%
%ADD17C,1.900000*%
%ADD18C,1.400000*%
%ADD19R,3.500000X3.500000*%
%ADD20RoundRect,0.750000X-0.750000X-1.000000X0.750000X-1.000000X0.750000X1.000000X-0.750000X1.000000X0*%
%ADD21RoundRect,0.875000X-0.875000X-0.875000X0.875000X-0.875000X0.875000X0.875000X-0.875000X0.875000X0*%
%ADD22R,1.800000X1.800000*%
%ADD23C,1.800000*%
%ADD24C,1.600000*%
G04 APERTURE END LIST*
D10*
%TO.C,J1*%
X106172000Y-72136000D03*
D11*
X106172000Y-69596000D03*
%TD*%
D12*
%TO.C,J4*%
X97282000Y-71628000D03*
D13*
X92202000Y-71628000D03*
%TD*%
D14*
%TO.C,U2*%
X80518000Y-113030000D03*
D15*
X83058000Y-113030000D03*
X85598000Y-113030000D03*
%TD*%
D14*
%TO.C,U1*%
X85344000Y-89154000D03*
D15*
X82804000Y-89154000D03*
X80264000Y-89154000D03*
%TD*%
D16*
%TO.C,S1*%
X95758000Y-82804000D03*
D17*
X93258000Y-82804000D03*
X90758000Y-82804000D03*
%TD*%
D18*
%TO.C,R3*%
X91422000Y-111760000D03*
X99042000Y-111760000D03*
%TD*%
%TO.C,R2*%
X99060000Y-106934000D03*
X91440000Y-106934000D03*
%TD*%
%TO.C,R1*%
X90932000Y-90424000D03*
X98552000Y-90424000D03*
%TD*%
D11*
%TO.C,J7*%
X79502000Y-124399000D03*
D10*
X82042000Y-124399000D03*
X84582000Y-124399000D03*
%TD*%
D13*
%TO.C,J6*%
X92202000Y-121666000D03*
D12*
X97282000Y-121666000D03*
%TD*%
D19*
%TO.C,J5*%
X90582000Y-100134500D03*
D20*
X84582000Y-100134500D03*
D21*
X87582000Y-104834500D03*
%TD*%
D11*
%TO.C,J3*%
X79248000Y-69850000D03*
D10*
X81788000Y-69850000D03*
X84328000Y-69850000D03*
%TD*%
D11*
%TO.C,J2*%
X106172000Y-121666000D03*
D10*
X106172000Y-124206000D03*
%TD*%
D22*
%TO.C,D1*%
X97282000Y-97536000D03*
D23*
X94742000Y-97536000D03*
%TD*%
D24*
%TO.C,C3*%
X80812000Y-118872000D03*
X83312000Y-118872000D03*
%TD*%
%TO.C,C2*%
X80812000Y-82550000D03*
X83312000Y-82550000D03*
%TD*%
%TO.C,C1*%
X80812000Y-77216000D03*
X83312000Y-77216000D03*
%TD*%
M02*
