%TF.GenerationSoftware,KiCad,Pcbnew,9.0.2*%
%TF.CreationDate,2025-06-18T23:28:51+06:00*%
%TF.ProjectId,Breadboardpower_Supply,42726561-6462-46f6-9172-64706f776572,rev?*%
%TF.SameCoordinates,Original*%
%TF.FileFunction,Legend,Top*%
%TF.FilePolarity,Positive*%
%FSLAX46Y46*%
G04 Gerber Fmt 4.6, Leading zero omitted, Abs format (unit mm)*
G04 Created by KiCad (PCBNEW 9.0.2) date 2025-06-18 23:28:51*
%MOMM*%
%LPD*%
G01*
G04 APERTURE LIST*
%ADD10C,0.200000*%
%ADD11C,0.150000*%
%ADD12C,0.120000*%
%ADD13C,0.100000*%
G04 APERTURE END LIST*
D10*
X95048149Y-85735219D02*
X95238625Y-85735219D01*
X95238625Y-85735219D02*
X95333863Y-85782838D01*
X95333863Y-85782838D02*
X95429101Y-85878076D01*
X95429101Y-85878076D02*
X95476720Y-86068552D01*
X95476720Y-86068552D02*
X95476720Y-86401885D01*
X95476720Y-86401885D02*
X95429101Y-86592361D01*
X95429101Y-86592361D02*
X95333863Y-86687600D01*
X95333863Y-86687600D02*
X95238625Y-86735219D01*
X95238625Y-86735219D02*
X95048149Y-86735219D01*
X95048149Y-86735219D02*
X94952911Y-86687600D01*
X94952911Y-86687600D02*
X94857673Y-86592361D01*
X94857673Y-86592361D02*
X94810054Y-86401885D01*
X94810054Y-86401885D02*
X94810054Y-86068552D01*
X94810054Y-86068552D02*
X94857673Y-85878076D01*
X94857673Y-85878076D02*
X94952911Y-85782838D01*
X94952911Y-85782838D02*
X95048149Y-85735219D01*
X95905292Y-86735219D02*
X95905292Y-85735219D01*
X95905292Y-85735219D02*
X96476720Y-86735219D01*
X96476720Y-86735219D02*
X96476720Y-85735219D01*
X89714149Y-85735219D02*
X89904625Y-85735219D01*
X89904625Y-85735219D02*
X89999863Y-85782838D01*
X89999863Y-85782838D02*
X90095101Y-85878076D01*
X90095101Y-85878076D02*
X90142720Y-86068552D01*
X90142720Y-86068552D02*
X90142720Y-86401885D01*
X90142720Y-86401885D02*
X90095101Y-86592361D01*
X90095101Y-86592361D02*
X89999863Y-86687600D01*
X89999863Y-86687600D02*
X89904625Y-86735219D01*
X89904625Y-86735219D02*
X89714149Y-86735219D01*
X89714149Y-86735219D02*
X89618911Y-86687600D01*
X89618911Y-86687600D02*
X89523673Y-86592361D01*
X89523673Y-86592361D02*
X89476054Y-86401885D01*
X89476054Y-86401885D02*
X89476054Y-86068552D01*
X89476054Y-86068552D02*
X89523673Y-85878076D01*
X89523673Y-85878076D02*
X89618911Y-85782838D01*
X89618911Y-85782838D02*
X89714149Y-85735219D01*
X90904625Y-86211409D02*
X90571292Y-86211409D01*
X90571292Y-86735219D02*
X90571292Y-85735219D01*
X90571292Y-85735219D02*
X91047482Y-85735219D01*
X91761768Y-86211409D02*
X91428435Y-86211409D01*
X91428435Y-86735219D02*
X91428435Y-85735219D01*
X91428435Y-85735219D02*
X91904625Y-85735219D01*
X98159673Y-94736266D02*
X98921578Y-94736266D01*
X93079673Y-94736266D02*
X93841578Y-94736266D01*
X93460625Y-95117219D02*
X93460625Y-94355314D01*
X76591219Y-125709564D02*
X76591219Y-125090517D01*
X76591219Y-125090517D02*
X76972171Y-125423850D01*
X76972171Y-125423850D02*
X76972171Y-125280993D01*
X76972171Y-125280993D02*
X77019790Y-125185755D01*
X77019790Y-125185755D02*
X77067409Y-125138136D01*
X77067409Y-125138136D02*
X77162647Y-125090517D01*
X77162647Y-125090517D02*
X77400742Y-125090517D01*
X77400742Y-125090517D02*
X77495980Y-125138136D01*
X77495980Y-125138136D02*
X77543600Y-125185755D01*
X77543600Y-125185755D02*
X77591219Y-125280993D01*
X77591219Y-125280993D02*
X77591219Y-125566707D01*
X77591219Y-125566707D02*
X77543600Y-125661945D01*
X77543600Y-125661945D02*
X77495980Y-125709564D01*
X77495980Y-124661945D02*
X77543600Y-124614326D01*
X77543600Y-124614326D02*
X77591219Y-124661945D01*
X77591219Y-124661945D02*
X77543600Y-124709564D01*
X77543600Y-124709564D02*
X77495980Y-124661945D01*
X77495980Y-124661945D02*
X77591219Y-124661945D01*
X76591219Y-124280993D02*
X76591219Y-123661946D01*
X76591219Y-123661946D02*
X76972171Y-123995279D01*
X76972171Y-123995279D02*
X76972171Y-123852422D01*
X76972171Y-123852422D02*
X77019790Y-123757184D01*
X77019790Y-123757184D02*
X77067409Y-123709565D01*
X77067409Y-123709565D02*
X77162647Y-123661946D01*
X77162647Y-123661946D02*
X77400742Y-123661946D01*
X77400742Y-123661946D02*
X77495980Y-123709565D01*
X77495980Y-123709565D02*
X77543600Y-123757184D01*
X77543600Y-123757184D02*
X77591219Y-123852422D01*
X77591219Y-123852422D02*
X77591219Y-124138136D01*
X77591219Y-124138136D02*
X77543600Y-124233374D01*
X77543600Y-124233374D02*
X77495980Y-124280993D01*
X76591219Y-123376231D02*
X77591219Y-123042898D01*
X77591219Y-123042898D02*
X76591219Y-122709565D01*
X79776435Y-120025219D02*
X80395482Y-120025219D01*
X80395482Y-120025219D02*
X80062149Y-120406171D01*
X80062149Y-120406171D02*
X80205006Y-120406171D01*
X80205006Y-120406171D02*
X80300244Y-120453790D01*
X80300244Y-120453790D02*
X80347863Y-120501409D01*
X80347863Y-120501409D02*
X80395482Y-120596647D01*
X80395482Y-120596647D02*
X80395482Y-120834742D01*
X80395482Y-120834742D02*
X80347863Y-120929980D01*
X80347863Y-120929980D02*
X80300244Y-120977600D01*
X80300244Y-120977600D02*
X80205006Y-121025219D01*
X80205006Y-121025219D02*
X79919292Y-121025219D01*
X79919292Y-121025219D02*
X79824054Y-120977600D01*
X79824054Y-120977600D02*
X79776435Y-120929980D01*
X80824054Y-120929980D02*
X80871673Y-120977600D01*
X80871673Y-120977600D02*
X80824054Y-121025219D01*
X80824054Y-121025219D02*
X80776435Y-120977600D01*
X80776435Y-120977600D02*
X80824054Y-120929980D01*
X80824054Y-120929980D02*
X80824054Y-121025219D01*
X81205006Y-120025219D02*
X81824053Y-120025219D01*
X81824053Y-120025219D02*
X81490720Y-120406171D01*
X81490720Y-120406171D02*
X81633577Y-120406171D01*
X81633577Y-120406171D02*
X81728815Y-120453790D01*
X81728815Y-120453790D02*
X81776434Y-120501409D01*
X81776434Y-120501409D02*
X81824053Y-120596647D01*
X81824053Y-120596647D02*
X81824053Y-120834742D01*
X81824053Y-120834742D02*
X81776434Y-120929980D01*
X81776434Y-120929980D02*
X81728815Y-120977600D01*
X81728815Y-120977600D02*
X81633577Y-121025219D01*
X81633577Y-121025219D02*
X81347863Y-121025219D01*
X81347863Y-121025219D02*
X81252625Y-120977600D01*
X81252625Y-120977600D02*
X81205006Y-120929980D01*
X82109768Y-120025219D02*
X82443101Y-121025219D01*
X82443101Y-121025219D02*
X82776434Y-120025219D01*
X81808435Y-109865219D02*
X82427482Y-109865219D01*
X82427482Y-109865219D02*
X82094149Y-110246171D01*
X82094149Y-110246171D02*
X82237006Y-110246171D01*
X82237006Y-110246171D02*
X82332244Y-110293790D01*
X82332244Y-110293790D02*
X82379863Y-110341409D01*
X82379863Y-110341409D02*
X82427482Y-110436647D01*
X82427482Y-110436647D02*
X82427482Y-110674742D01*
X82427482Y-110674742D02*
X82379863Y-110769980D01*
X82379863Y-110769980D02*
X82332244Y-110817600D01*
X82332244Y-110817600D02*
X82237006Y-110865219D01*
X82237006Y-110865219D02*
X81951292Y-110865219D01*
X81951292Y-110865219D02*
X81856054Y-110817600D01*
X81856054Y-110817600D02*
X81808435Y-110769980D01*
X82856054Y-110769980D02*
X82903673Y-110817600D01*
X82903673Y-110817600D02*
X82856054Y-110865219D01*
X82856054Y-110865219D02*
X82808435Y-110817600D01*
X82808435Y-110817600D02*
X82856054Y-110769980D01*
X82856054Y-110769980D02*
X82856054Y-110865219D01*
X83237006Y-109865219D02*
X83856053Y-109865219D01*
X83856053Y-109865219D02*
X83522720Y-110246171D01*
X83522720Y-110246171D02*
X83665577Y-110246171D01*
X83665577Y-110246171D02*
X83760815Y-110293790D01*
X83760815Y-110293790D02*
X83808434Y-110341409D01*
X83808434Y-110341409D02*
X83856053Y-110436647D01*
X83856053Y-110436647D02*
X83856053Y-110674742D01*
X83856053Y-110674742D02*
X83808434Y-110769980D01*
X83808434Y-110769980D02*
X83760815Y-110817600D01*
X83760815Y-110817600D02*
X83665577Y-110865219D01*
X83665577Y-110865219D02*
X83379863Y-110865219D01*
X83379863Y-110865219D02*
X83284625Y-110817600D01*
X83284625Y-110817600D02*
X83237006Y-110769980D01*
X84141768Y-109865219D02*
X84475101Y-110865219D01*
X84475101Y-110865219D02*
X84808434Y-109865219D01*
X76735219Y-70955564D02*
X76735219Y-70336517D01*
X76735219Y-70336517D02*
X77116171Y-70669850D01*
X77116171Y-70669850D02*
X77116171Y-70526993D01*
X77116171Y-70526993D02*
X77163790Y-70431755D01*
X77163790Y-70431755D02*
X77211409Y-70384136D01*
X77211409Y-70384136D02*
X77306647Y-70336517D01*
X77306647Y-70336517D02*
X77544742Y-70336517D01*
X77544742Y-70336517D02*
X77639980Y-70384136D01*
X77639980Y-70384136D02*
X77687600Y-70431755D01*
X77687600Y-70431755D02*
X77735219Y-70526993D01*
X77735219Y-70526993D02*
X77735219Y-70812707D01*
X77735219Y-70812707D02*
X77687600Y-70907945D01*
X77687600Y-70907945D02*
X77639980Y-70955564D01*
X77639980Y-69907945D02*
X77687600Y-69860326D01*
X77687600Y-69860326D02*
X77735219Y-69907945D01*
X77735219Y-69907945D02*
X77687600Y-69955564D01*
X77687600Y-69955564D02*
X77639980Y-69907945D01*
X77639980Y-69907945D02*
X77735219Y-69907945D01*
X76735219Y-69526993D02*
X76735219Y-68907946D01*
X76735219Y-68907946D02*
X77116171Y-69241279D01*
X77116171Y-69241279D02*
X77116171Y-69098422D01*
X77116171Y-69098422D02*
X77163790Y-69003184D01*
X77163790Y-69003184D02*
X77211409Y-68955565D01*
X77211409Y-68955565D02*
X77306647Y-68907946D01*
X77306647Y-68907946D02*
X77544742Y-68907946D01*
X77544742Y-68907946D02*
X77639980Y-68955565D01*
X77639980Y-68955565D02*
X77687600Y-69003184D01*
X77687600Y-69003184D02*
X77735219Y-69098422D01*
X77735219Y-69098422D02*
X77735219Y-69384136D01*
X77735219Y-69384136D02*
X77687600Y-69479374D01*
X77687600Y-69479374D02*
X77639980Y-69526993D01*
X76735219Y-68622231D02*
X77735219Y-68288898D01*
X77735219Y-68288898D02*
X76735219Y-67955565D01*
X90444435Y-108087219D02*
X91063482Y-108087219D01*
X91063482Y-108087219D02*
X90730149Y-108468171D01*
X90730149Y-108468171D02*
X90873006Y-108468171D01*
X90873006Y-108468171D02*
X90968244Y-108515790D01*
X90968244Y-108515790D02*
X91015863Y-108563409D01*
X91015863Y-108563409D02*
X91063482Y-108658647D01*
X91063482Y-108658647D02*
X91063482Y-108896742D01*
X91063482Y-108896742D02*
X91015863Y-108991980D01*
X91015863Y-108991980D02*
X90968244Y-109039600D01*
X90968244Y-109039600D02*
X90873006Y-109087219D01*
X90873006Y-109087219D02*
X90587292Y-109087219D01*
X90587292Y-109087219D02*
X90492054Y-109039600D01*
X90492054Y-109039600D02*
X90444435Y-108991980D01*
X91492054Y-108991980D02*
X91539673Y-109039600D01*
X91539673Y-109039600D02*
X91492054Y-109087219D01*
X91492054Y-109087219D02*
X91444435Y-109039600D01*
X91444435Y-109039600D02*
X91492054Y-108991980D01*
X91492054Y-108991980D02*
X91492054Y-109087219D01*
X91873006Y-108087219D02*
X92492053Y-108087219D01*
X92492053Y-108087219D02*
X92158720Y-108468171D01*
X92158720Y-108468171D02*
X92301577Y-108468171D01*
X92301577Y-108468171D02*
X92396815Y-108515790D01*
X92396815Y-108515790D02*
X92444434Y-108563409D01*
X92444434Y-108563409D02*
X92492053Y-108658647D01*
X92492053Y-108658647D02*
X92492053Y-108896742D01*
X92492053Y-108896742D02*
X92444434Y-108991980D01*
X92444434Y-108991980D02*
X92396815Y-109039600D01*
X92396815Y-109039600D02*
X92301577Y-109087219D01*
X92301577Y-109087219D02*
X92015863Y-109087219D01*
X92015863Y-109087219D02*
X91920625Y-109039600D01*
X91920625Y-109039600D02*
X91873006Y-108991980D01*
X92777768Y-108087219D02*
X93111101Y-109087219D01*
X93111101Y-109087219D02*
X93444434Y-108087219D01*
X85427863Y-71765219D02*
X84951673Y-71765219D01*
X84951673Y-71765219D02*
X84904054Y-72241409D01*
X84904054Y-72241409D02*
X84951673Y-72193790D01*
X84951673Y-72193790D02*
X85046911Y-72146171D01*
X85046911Y-72146171D02*
X85285006Y-72146171D01*
X85285006Y-72146171D02*
X85380244Y-72193790D01*
X85380244Y-72193790D02*
X85427863Y-72241409D01*
X85427863Y-72241409D02*
X85475482Y-72336647D01*
X85475482Y-72336647D02*
X85475482Y-72574742D01*
X85475482Y-72574742D02*
X85427863Y-72669980D01*
X85427863Y-72669980D02*
X85380244Y-72717600D01*
X85380244Y-72717600D02*
X85285006Y-72765219D01*
X85285006Y-72765219D02*
X85046911Y-72765219D01*
X85046911Y-72765219D02*
X84951673Y-72717600D01*
X84951673Y-72717600D02*
X84904054Y-72669980D01*
X85761197Y-71765219D02*
X86094530Y-72765219D01*
X86094530Y-72765219D02*
X86427863Y-71765219D01*
X78569863Y-82179219D02*
X78093673Y-82179219D01*
X78093673Y-82179219D02*
X78046054Y-82655409D01*
X78046054Y-82655409D02*
X78093673Y-82607790D01*
X78093673Y-82607790D02*
X78188911Y-82560171D01*
X78188911Y-82560171D02*
X78427006Y-82560171D01*
X78427006Y-82560171D02*
X78522244Y-82607790D01*
X78522244Y-82607790D02*
X78569863Y-82655409D01*
X78569863Y-82655409D02*
X78617482Y-82750647D01*
X78617482Y-82750647D02*
X78617482Y-82988742D01*
X78617482Y-82988742D02*
X78569863Y-83083980D01*
X78569863Y-83083980D02*
X78522244Y-83131600D01*
X78522244Y-83131600D02*
X78427006Y-83179219D01*
X78427006Y-83179219D02*
X78188911Y-83179219D01*
X78188911Y-83179219D02*
X78093673Y-83131600D01*
X78093673Y-83131600D02*
X78046054Y-83083980D01*
X78903197Y-82179219D02*
X79236530Y-83179219D01*
X79236530Y-83179219D02*
X79569863Y-82179219D01*
X78823863Y-91069219D02*
X78347673Y-91069219D01*
X78347673Y-91069219D02*
X78300054Y-91545409D01*
X78300054Y-91545409D02*
X78347673Y-91497790D01*
X78347673Y-91497790D02*
X78442911Y-91450171D01*
X78442911Y-91450171D02*
X78681006Y-91450171D01*
X78681006Y-91450171D02*
X78776244Y-91497790D01*
X78776244Y-91497790D02*
X78823863Y-91545409D01*
X78823863Y-91545409D02*
X78871482Y-91640647D01*
X78871482Y-91640647D02*
X78871482Y-91878742D01*
X78871482Y-91878742D02*
X78823863Y-91973980D01*
X78823863Y-91973980D02*
X78776244Y-92021600D01*
X78776244Y-92021600D02*
X78681006Y-92069219D01*
X78681006Y-92069219D02*
X78442911Y-92069219D01*
X78442911Y-92069219D02*
X78347673Y-92021600D01*
X78347673Y-92021600D02*
X78300054Y-91973980D01*
X79157197Y-91069219D02*
X79490530Y-92069219D01*
X79490530Y-92069219D02*
X79823863Y-91069219D01*
X84665863Y-121295219D02*
X84189673Y-121295219D01*
X84189673Y-121295219D02*
X84142054Y-121771409D01*
X84142054Y-121771409D02*
X84189673Y-121723790D01*
X84189673Y-121723790D02*
X84284911Y-121676171D01*
X84284911Y-121676171D02*
X84523006Y-121676171D01*
X84523006Y-121676171D02*
X84618244Y-121723790D01*
X84618244Y-121723790D02*
X84665863Y-121771409D01*
X84665863Y-121771409D02*
X84713482Y-121866647D01*
X84713482Y-121866647D02*
X84713482Y-122104742D01*
X84713482Y-122104742D02*
X84665863Y-122199980D01*
X84665863Y-122199980D02*
X84618244Y-122247600D01*
X84618244Y-122247600D02*
X84523006Y-122295219D01*
X84523006Y-122295219D02*
X84284911Y-122295219D01*
X84284911Y-122295219D02*
X84189673Y-122247600D01*
X84189673Y-122247600D02*
X84142054Y-122199980D01*
X84999197Y-121295219D02*
X85332530Y-122295219D01*
X85332530Y-122295219D02*
X85665863Y-121295219D01*
X90809482Y-118548838D02*
X90714244Y-118501219D01*
X90714244Y-118501219D02*
X90571387Y-118501219D01*
X90571387Y-118501219D02*
X90428530Y-118548838D01*
X90428530Y-118548838D02*
X90333292Y-118644076D01*
X90333292Y-118644076D02*
X90285673Y-118739314D01*
X90285673Y-118739314D02*
X90238054Y-118929790D01*
X90238054Y-118929790D02*
X90238054Y-119072647D01*
X90238054Y-119072647D02*
X90285673Y-119263123D01*
X90285673Y-119263123D02*
X90333292Y-119358361D01*
X90333292Y-119358361D02*
X90428530Y-119453600D01*
X90428530Y-119453600D02*
X90571387Y-119501219D01*
X90571387Y-119501219D02*
X90666625Y-119501219D01*
X90666625Y-119501219D02*
X90809482Y-119453600D01*
X90809482Y-119453600D02*
X90857101Y-119405980D01*
X90857101Y-119405980D02*
X90857101Y-119072647D01*
X90857101Y-119072647D02*
X90666625Y-119072647D01*
X91285673Y-119501219D02*
X91285673Y-118501219D01*
X91285673Y-118501219D02*
X91857101Y-119501219D01*
X91857101Y-119501219D02*
X91857101Y-118501219D01*
X92333292Y-119501219D02*
X92333292Y-118501219D01*
X92333292Y-118501219D02*
X92571387Y-118501219D01*
X92571387Y-118501219D02*
X92714244Y-118548838D01*
X92714244Y-118548838D02*
X92809482Y-118644076D01*
X92809482Y-118644076D02*
X92857101Y-118739314D01*
X92857101Y-118739314D02*
X92904720Y-118929790D01*
X92904720Y-118929790D02*
X92904720Y-119072647D01*
X92904720Y-119072647D02*
X92857101Y-119263123D01*
X92857101Y-119263123D02*
X92809482Y-119358361D01*
X92809482Y-119358361D02*
X92714244Y-119453600D01*
X92714244Y-119453600D02*
X92571387Y-119501219D01*
X92571387Y-119501219D02*
X92333292Y-119501219D01*
X103706838Y-122042517D02*
X103659219Y-122137755D01*
X103659219Y-122137755D02*
X103659219Y-122280612D01*
X103659219Y-122280612D02*
X103706838Y-122423469D01*
X103706838Y-122423469D02*
X103802076Y-122518707D01*
X103802076Y-122518707D02*
X103897314Y-122566326D01*
X103897314Y-122566326D02*
X104087790Y-122613945D01*
X104087790Y-122613945D02*
X104230647Y-122613945D01*
X104230647Y-122613945D02*
X104421123Y-122566326D01*
X104421123Y-122566326D02*
X104516361Y-122518707D01*
X104516361Y-122518707D02*
X104611600Y-122423469D01*
X104611600Y-122423469D02*
X104659219Y-122280612D01*
X104659219Y-122280612D02*
X104659219Y-122185374D01*
X104659219Y-122185374D02*
X104611600Y-122042517D01*
X104611600Y-122042517D02*
X104563980Y-121994898D01*
X104563980Y-121994898D02*
X104230647Y-121994898D01*
X104230647Y-121994898D02*
X104230647Y-122185374D01*
X104659219Y-121566326D02*
X103659219Y-121566326D01*
X103659219Y-121566326D02*
X104659219Y-120994898D01*
X104659219Y-120994898D02*
X103659219Y-120994898D01*
X104659219Y-120518707D02*
X103659219Y-120518707D01*
X103659219Y-120518707D02*
X103659219Y-120280612D01*
X103659219Y-120280612D02*
X103706838Y-120137755D01*
X103706838Y-120137755D02*
X103802076Y-120042517D01*
X103802076Y-120042517D02*
X103897314Y-119994898D01*
X103897314Y-119994898D02*
X104087790Y-119947279D01*
X104087790Y-119947279D02*
X104230647Y-119947279D01*
X104230647Y-119947279D02*
X104421123Y-119994898D01*
X104421123Y-119994898D02*
X104516361Y-120042517D01*
X104516361Y-120042517D02*
X104611600Y-120137755D01*
X104611600Y-120137755D02*
X104659219Y-120280612D01*
X104659219Y-120280612D02*
X104659219Y-120518707D01*
X103706838Y-69972517D02*
X103659219Y-70067755D01*
X103659219Y-70067755D02*
X103659219Y-70210612D01*
X103659219Y-70210612D02*
X103706838Y-70353469D01*
X103706838Y-70353469D02*
X103802076Y-70448707D01*
X103802076Y-70448707D02*
X103897314Y-70496326D01*
X103897314Y-70496326D02*
X104087790Y-70543945D01*
X104087790Y-70543945D02*
X104230647Y-70543945D01*
X104230647Y-70543945D02*
X104421123Y-70496326D01*
X104421123Y-70496326D02*
X104516361Y-70448707D01*
X104516361Y-70448707D02*
X104611600Y-70353469D01*
X104611600Y-70353469D02*
X104659219Y-70210612D01*
X104659219Y-70210612D02*
X104659219Y-70115374D01*
X104659219Y-70115374D02*
X104611600Y-69972517D01*
X104611600Y-69972517D02*
X104563980Y-69924898D01*
X104563980Y-69924898D02*
X104230647Y-69924898D01*
X104230647Y-69924898D02*
X104230647Y-70115374D01*
X104659219Y-69496326D02*
X103659219Y-69496326D01*
X103659219Y-69496326D02*
X104659219Y-68924898D01*
X104659219Y-68924898D02*
X103659219Y-68924898D01*
X104659219Y-68448707D02*
X103659219Y-68448707D01*
X103659219Y-68448707D02*
X103659219Y-68210612D01*
X103659219Y-68210612D02*
X103706838Y-68067755D01*
X103706838Y-68067755D02*
X103802076Y-67972517D01*
X103802076Y-67972517D02*
X103897314Y-67924898D01*
X103897314Y-67924898D02*
X104087790Y-67877279D01*
X104087790Y-67877279D02*
X104230647Y-67877279D01*
X104230647Y-67877279D02*
X104421123Y-67924898D01*
X104421123Y-67924898D02*
X104516361Y-67972517D01*
X104516361Y-67972517D02*
X104611600Y-68067755D01*
X104611600Y-68067755D02*
X104659219Y-68210612D01*
X104659219Y-68210612D02*
X104659219Y-68448707D01*
X91317482Y-76130838D02*
X91222244Y-76083219D01*
X91222244Y-76083219D02*
X91079387Y-76083219D01*
X91079387Y-76083219D02*
X90936530Y-76130838D01*
X90936530Y-76130838D02*
X90841292Y-76226076D01*
X90841292Y-76226076D02*
X90793673Y-76321314D01*
X90793673Y-76321314D02*
X90746054Y-76511790D01*
X90746054Y-76511790D02*
X90746054Y-76654647D01*
X90746054Y-76654647D02*
X90793673Y-76845123D01*
X90793673Y-76845123D02*
X90841292Y-76940361D01*
X90841292Y-76940361D02*
X90936530Y-77035600D01*
X90936530Y-77035600D02*
X91079387Y-77083219D01*
X91079387Y-77083219D02*
X91174625Y-77083219D01*
X91174625Y-77083219D02*
X91317482Y-77035600D01*
X91317482Y-77035600D02*
X91365101Y-76987980D01*
X91365101Y-76987980D02*
X91365101Y-76654647D01*
X91365101Y-76654647D02*
X91174625Y-76654647D01*
X91793673Y-77083219D02*
X91793673Y-76083219D01*
X91793673Y-76083219D02*
X92365101Y-77083219D01*
X92365101Y-77083219D02*
X92365101Y-76083219D01*
X92841292Y-77083219D02*
X92841292Y-76083219D01*
X92841292Y-76083219D02*
X93079387Y-76083219D01*
X93079387Y-76083219D02*
X93222244Y-76130838D01*
X93222244Y-76130838D02*
X93317482Y-76226076D01*
X93317482Y-76226076D02*
X93365101Y-76321314D01*
X93365101Y-76321314D02*
X93412720Y-76511790D01*
X93412720Y-76511790D02*
X93412720Y-76654647D01*
X93412720Y-76654647D02*
X93365101Y-76845123D01*
X93365101Y-76845123D02*
X93317482Y-76940361D01*
X93317482Y-76940361D02*
X93222244Y-77035600D01*
X93222244Y-77035600D02*
X93079387Y-77083219D01*
X93079387Y-77083219D02*
X92841292Y-77083219D01*
D11*
X91614666Y-68796819D02*
X91614666Y-69511104D01*
X91614666Y-69511104D02*
X91567047Y-69653961D01*
X91567047Y-69653961D02*
X91471809Y-69749200D01*
X91471809Y-69749200D02*
X91328952Y-69796819D01*
X91328952Y-69796819D02*
X91233714Y-69796819D01*
X92519428Y-69130152D02*
X92519428Y-69796819D01*
X92281333Y-68749200D02*
X92043238Y-69463485D01*
X92043238Y-69463485D02*
X92662285Y-69463485D01*
X79038951Y-115684819D02*
X78657999Y-115684819D01*
X78657999Y-115684819D02*
X78657999Y-114684819D01*
X79305618Y-115684819D02*
X79305618Y-114684819D01*
X79305618Y-114684819D02*
X79572284Y-115399104D01*
X79572284Y-115399104D02*
X79838951Y-114684819D01*
X79838951Y-114684819D02*
X79838951Y-115684819D01*
X80143713Y-114684819D02*
X80638951Y-114684819D01*
X80638951Y-114684819D02*
X80372285Y-115065771D01*
X80372285Y-115065771D02*
X80486570Y-115065771D01*
X80486570Y-115065771D02*
X80562761Y-115113390D01*
X80562761Y-115113390D02*
X80600856Y-115161009D01*
X80600856Y-115161009D02*
X80638951Y-115256247D01*
X80638951Y-115256247D02*
X80638951Y-115494342D01*
X80638951Y-115494342D02*
X80600856Y-115589580D01*
X80600856Y-115589580D02*
X80562761Y-115637200D01*
X80562761Y-115637200D02*
X80486570Y-115684819D01*
X80486570Y-115684819D02*
X80257999Y-115684819D01*
X80257999Y-115684819D02*
X80181808Y-115637200D01*
X80181808Y-115637200D02*
X80143713Y-115589580D01*
X81400856Y-115684819D02*
X80943713Y-115684819D01*
X81172285Y-115684819D02*
X81172285Y-114684819D01*
X81172285Y-114684819D02*
X81096094Y-114827676D01*
X81096094Y-114827676D02*
X81019904Y-114922914D01*
X81019904Y-114922914D02*
X80943713Y-114970533D01*
X81667523Y-114684819D02*
X82200857Y-114684819D01*
X82200857Y-114684819D02*
X81857999Y-115684819D01*
X82315143Y-115780057D02*
X82924666Y-115780057D01*
X83000857Y-114684819D02*
X83458000Y-114684819D01*
X83229428Y-115684819D02*
X83229428Y-114684819D01*
X83877048Y-114684819D02*
X84029429Y-114684819D01*
X84029429Y-114684819D02*
X84105619Y-114732438D01*
X84105619Y-114732438D02*
X84181810Y-114827676D01*
X84181810Y-114827676D02*
X84219905Y-115018152D01*
X84219905Y-115018152D02*
X84219905Y-115351485D01*
X84219905Y-115351485D02*
X84181810Y-115541961D01*
X84181810Y-115541961D02*
X84105619Y-115637200D01*
X84105619Y-115637200D02*
X84029429Y-115684819D01*
X84029429Y-115684819D02*
X83877048Y-115684819D01*
X83877048Y-115684819D02*
X83800857Y-115637200D01*
X83800857Y-115637200D02*
X83724667Y-115541961D01*
X83724667Y-115541961D02*
X83686571Y-115351485D01*
X83686571Y-115351485D02*
X83686571Y-115018152D01*
X83686571Y-115018152D02*
X83724667Y-114827676D01*
X83724667Y-114827676D02*
X83800857Y-114732438D01*
X83800857Y-114732438D02*
X83877048Y-114684819D01*
X84562762Y-115303866D02*
X85172286Y-115303866D01*
X85515142Y-114780057D02*
X85553238Y-114732438D01*
X85553238Y-114732438D02*
X85629428Y-114684819D01*
X85629428Y-114684819D02*
X85819904Y-114684819D01*
X85819904Y-114684819D02*
X85896095Y-114732438D01*
X85896095Y-114732438D02*
X85934190Y-114780057D01*
X85934190Y-114780057D02*
X85972285Y-114875295D01*
X85972285Y-114875295D02*
X85972285Y-114970533D01*
X85972285Y-114970533D02*
X85934190Y-115113390D01*
X85934190Y-115113390D02*
X85477047Y-115684819D01*
X85477047Y-115684819D02*
X85972285Y-115684819D01*
X86277047Y-114780057D02*
X86315143Y-114732438D01*
X86315143Y-114732438D02*
X86391333Y-114684819D01*
X86391333Y-114684819D02*
X86581809Y-114684819D01*
X86581809Y-114684819D02*
X86658000Y-114732438D01*
X86658000Y-114732438D02*
X86696095Y-114780057D01*
X86696095Y-114780057D02*
X86734190Y-114875295D01*
X86734190Y-114875295D02*
X86734190Y-114970533D01*
X86734190Y-114970533D02*
X86696095Y-115113390D01*
X86696095Y-115113390D02*
X86238952Y-115684819D01*
X86238952Y-115684819D02*
X86734190Y-115684819D01*
X87229429Y-114684819D02*
X87305619Y-114684819D01*
X87305619Y-114684819D02*
X87381810Y-114732438D01*
X87381810Y-114732438D02*
X87419905Y-114780057D01*
X87419905Y-114780057D02*
X87458000Y-114875295D01*
X87458000Y-114875295D02*
X87496095Y-115065771D01*
X87496095Y-115065771D02*
X87496095Y-115303866D01*
X87496095Y-115303866D02*
X87458000Y-115494342D01*
X87458000Y-115494342D02*
X87419905Y-115589580D01*
X87419905Y-115589580D02*
X87381810Y-115637200D01*
X87381810Y-115637200D02*
X87305619Y-115684819D01*
X87305619Y-115684819D02*
X87229429Y-115684819D01*
X87229429Y-115684819D02*
X87153238Y-115637200D01*
X87153238Y-115637200D02*
X87115143Y-115589580D01*
X87115143Y-115589580D02*
X87077048Y-115494342D01*
X87077048Y-115494342D02*
X87038952Y-115303866D01*
X87038952Y-115303866D02*
X87038952Y-115065771D01*
X87038952Y-115065771D02*
X87077048Y-114875295D01*
X87077048Y-114875295D02*
X87115143Y-114780057D01*
X87115143Y-114780057D02*
X87153238Y-114732438D01*
X87153238Y-114732438D02*
X87229429Y-114684819D01*
X82042095Y-92708819D02*
X82042095Y-93518342D01*
X82042095Y-93518342D02*
X82089714Y-93613580D01*
X82089714Y-93613580D02*
X82137333Y-93661200D01*
X82137333Y-93661200D02*
X82232571Y-93708819D01*
X82232571Y-93708819D02*
X82423047Y-93708819D01*
X82423047Y-93708819D02*
X82518285Y-93661200D01*
X82518285Y-93661200D02*
X82565904Y-93613580D01*
X82565904Y-93613580D02*
X82613523Y-93518342D01*
X82613523Y-93518342D02*
X82613523Y-92708819D01*
X83613523Y-93708819D02*
X83042095Y-93708819D01*
X83327809Y-93708819D02*
X83327809Y-92708819D01*
X83327809Y-92708819D02*
X83232571Y-92851676D01*
X83232571Y-92851676D02*
X83137333Y-92946914D01*
X83137333Y-92946914D02*
X83042095Y-92994533D01*
X78899237Y-87408819D02*
X78518285Y-87408819D01*
X78518285Y-87408819D02*
X78518285Y-86408819D01*
X79165904Y-87408819D02*
X79165904Y-86408819D01*
X79165904Y-86408819D02*
X79432570Y-87123104D01*
X79432570Y-87123104D02*
X79699237Y-86408819D01*
X79699237Y-86408819D02*
X79699237Y-87408819D01*
X80003999Y-86408819D02*
X80537333Y-86408819D01*
X80537333Y-86408819D02*
X80194475Y-87408819D01*
X80956380Y-86837390D02*
X80880190Y-86789771D01*
X80880190Y-86789771D02*
X80842095Y-86742152D01*
X80842095Y-86742152D02*
X80803999Y-86646914D01*
X80803999Y-86646914D02*
X80803999Y-86599295D01*
X80803999Y-86599295D02*
X80842095Y-86504057D01*
X80842095Y-86504057D02*
X80880190Y-86456438D01*
X80880190Y-86456438D02*
X80956380Y-86408819D01*
X80956380Y-86408819D02*
X81108761Y-86408819D01*
X81108761Y-86408819D02*
X81184952Y-86456438D01*
X81184952Y-86456438D02*
X81223047Y-86504057D01*
X81223047Y-86504057D02*
X81261142Y-86599295D01*
X81261142Y-86599295D02*
X81261142Y-86646914D01*
X81261142Y-86646914D02*
X81223047Y-86742152D01*
X81223047Y-86742152D02*
X81184952Y-86789771D01*
X81184952Y-86789771D02*
X81108761Y-86837390D01*
X81108761Y-86837390D02*
X80956380Y-86837390D01*
X80956380Y-86837390D02*
X80880190Y-86885009D01*
X80880190Y-86885009D02*
X80842095Y-86932628D01*
X80842095Y-86932628D02*
X80803999Y-87027866D01*
X80803999Y-87027866D02*
X80803999Y-87218342D01*
X80803999Y-87218342D02*
X80842095Y-87313580D01*
X80842095Y-87313580D02*
X80880190Y-87361200D01*
X80880190Y-87361200D02*
X80956380Y-87408819D01*
X80956380Y-87408819D02*
X81108761Y-87408819D01*
X81108761Y-87408819D02*
X81184952Y-87361200D01*
X81184952Y-87361200D02*
X81223047Y-87313580D01*
X81223047Y-87313580D02*
X81261142Y-87218342D01*
X81261142Y-87218342D02*
X81261142Y-87027866D01*
X81261142Y-87027866D02*
X81223047Y-86932628D01*
X81223047Y-86932628D02*
X81184952Y-86885009D01*
X81184952Y-86885009D02*
X81108761Y-86837390D01*
X81756381Y-86408819D02*
X81832571Y-86408819D01*
X81832571Y-86408819D02*
X81908762Y-86456438D01*
X81908762Y-86456438D02*
X81946857Y-86504057D01*
X81946857Y-86504057D02*
X81984952Y-86599295D01*
X81984952Y-86599295D02*
X82023047Y-86789771D01*
X82023047Y-86789771D02*
X82023047Y-87027866D01*
X82023047Y-87027866D02*
X81984952Y-87218342D01*
X81984952Y-87218342D02*
X81946857Y-87313580D01*
X81946857Y-87313580D02*
X81908762Y-87361200D01*
X81908762Y-87361200D02*
X81832571Y-87408819D01*
X81832571Y-87408819D02*
X81756381Y-87408819D01*
X81756381Y-87408819D02*
X81680190Y-87361200D01*
X81680190Y-87361200D02*
X81642095Y-87313580D01*
X81642095Y-87313580D02*
X81604000Y-87218342D01*
X81604000Y-87218342D02*
X81565904Y-87027866D01*
X81565904Y-87027866D02*
X81565904Y-86789771D01*
X81565904Y-86789771D02*
X81604000Y-86599295D01*
X81604000Y-86599295D02*
X81642095Y-86504057D01*
X81642095Y-86504057D02*
X81680190Y-86456438D01*
X81680190Y-86456438D02*
X81756381Y-86408819D01*
X82746857Y-86408819D02*
X82365905Y-86408819D01*
X82365905Y-86408819D02*
X82327809Y-86885009D01*
X82327809Y-86885009D02*
X82365905Y-86837390D01*
X82365905Y-86837390D02*
X82442095Y-86789771D01*
X82442095Y-86789771D02*
X82632571Y-86789771D01*
X82632571Y-86789771D02*
X82708762Y-86837390D01*
X82708762Y-86837390D02*
X82746857Y-86885009D01*
X82746857Y-86885009D02*
X82784952Y-86980247D01*
X82784952Y-86980247D02*
X82784952Y-87218342D01*
X82784952Y-87218342D02*
X82746857Y-87313580D01*
X82746857Y-87313580D02*
X82708762Y-87361200D01*
X82708762Y-87361200D02*
X82632571Y-87408819D01*
X82632571Y-87408819D02*
X82442095Y-87408819D01*
X82442095Y-87408819D02*
X82365905Y-87361200D01*
X82365905Y-87361200D02*
X82327809Y-87313580D01*
X82937334Y-87504057D02*
X83546857Y-87504057D01*
X83623048Y-86408819D02*
X84080191Y-86408819D01*
X83851619Y-87408819D02*
X83851619Y-86408819D01*
X84499239Y-86408819D02*
X84651620Y-86408819D01*
X84651620Y-86408819D02*
X84727810Y-86456438D01*
X84727810Y-86456438D02*
X84804001Y-86551676D01*
X84804001Y-86551676D02*
X84842096Y-86742152D01*
X84842096Y-86742152D02*
X84842096Y-87075485D01*
X84842096Y-87075485D02*
X84804001Y-87265961D01*
X84804001Y-87265961D02*
X84727810Y-87361200D01*
X84727810Y-87361200D02*
X84651620Y-87408819D01*
X84651620Y-87408819D02*
X84499239Y-87408819D01*
X84499239Y-87408819D02*
X84423048Y-87361200D01*
X84423048Y-87361200D02*
X84346858Y-87265961D01*
X84346858Y-87265961D02*
X84308762Y-87075485D01*
X84308762Y-87075485D02*
X84308762Y-86742152D01*
X84308762Y-86742152D02*
X84346858Y-86551676D01*
X84346858Y-86551676D02*
X84423048Y-86456438D01*
X84423048Y-86456438D02*
X84499239Y-86408819D01*
X85146857Y-86504057D02*
X85184953Y-86456438D01*
X85184953Y-86456438D02*
X85261143Y-86408819D01*
X85261143Y-86408819D02*
X85451619Y-86408819D01*
X85451619Y-86408819D02*
X85527810Y-86456438D01*
X85527810Y-86456438D02*
X85565905Y-86504057D01*
X85565905Y-86504057D02*
X85604000Y-86599295D01*
X85604000Y-86599295D02*
X85604000Y-86694533D01*
X85604000Y-86694533D02*
X85565905Y-86837390D01*
X85565905Y-86837390D02*
X85108762Y-87408819D01*
X85108762Y-87408819D02*
X85604000Y-87408819D01*
X85908762Y-86504057D02*
X85946858Y-86456438D01*
X85946858Y-86456438D02*
X86023048Y-86408819D01*
X86023048Y-86408819D02*
X86213524Y-86408819D01*
X86213524Y-86408819D02*
X86289715Y-86456438D01*
X86289715Y-86456438D02*
X86327810Y-86504057D01*
X86327810Y-86504057D02*
X86365905Y-86599295D01*
X86365905Y-86599295D02*
X86365905Y-86694533D01*
X86365905Y-86694533D02*
X86327810Y-86837390D01*
X86327810Y-86837390D02*
X85870667Y-87408819D01*
X85870667Y-87408819D02*
X86365905Y-87408819D01*
X86861144Y-86408819D02*
X86937334Y-86408819D01*
X86937334Y-86408819D02*
X87013525Y-86456438D01*
X87013525Y-86456438D02*
X87051620Y-86504057D01*
X87051620Y-86504057D02*
X87089715Y-86599295D01*
X87089715Y-86599295D02*
X87127810Y-86789771D01*
X87127810Y-86789771D02*
X87127810Y-87027866D01*
X87127810Y-87027866D02*
X87089715Y-87218342D01*
X87089715Y-87218342D02*
X87051620Y-87313580D01*
X87051620Y-87313580D02*
X87013525Y-87361200D01*
X87013525Y-87361200D02*
X86937334Y-87408819D01*
X86937334Y-87408819D02*
X86861144Y-87408819D01*
X86861144Y-87408819D02*
X86784953Y-87361200D01*
X86784953Y-87361200D02*
X86746858Y-87313580D01*
X86746858Y-87313580D02*
X86708763Y-87218342D01*
X86708763Y-87218342D02*
X86670667Y-87027866D01*
X86670667Y-87027866D02*
X86670667Y-86789771D01*
X86670667Y-86789771D02*
X86708763Y-86599295D01*
X86708763Y-86599295D02*
X86746858Y-86504057D01*
X86746858Y-86504057D02*
X86784953Y-86456438D01*
X86784953Y-86456438D02*
X86861144Y-86408819D01*
X90614761Y-79687009D02*
X90881427Y-79687009D01*
X90995713Y-80210819D02*
X90614761Y-80210819D01*
X90614761Y-80210819D02*
X90614761Y-79210819D01*
X90614761Y-79210819D02*
X90995713Y-79210819D01*
X91757618Y-79258438D02*
X91681428Y-79210819D01*
X91681428Y-79210819D02*
X91567142Y-79210819D01*
X91567142Y-79210819D02*
X91452856Y-79258438D01*
X91452856Y-79258438D02*
X91376666Y-79353676D01*
X91376666Y-79353676D02*
X91338571Y-79448914D01*
X91338571Y-79448914D02*
X91300475Y-79639390D01*
X91300475Y-79639390D02*
X91300475Y-79782247D01*
X91300475Y-79782247D02*
X91338571Y-79972723D01*
X91338571Y-79972723D02*
X91376666Y-80067961D01*
X91376666Y-80067961D02*
X91452856Y-80163200D01*
X91452856Y-80163200D02*
X91567142Y-80210819D01*
X91567142Y-80210819D02*
X91643333Y-80210819D01*
X91643333Y-80210819D02*
X91757618Y-80163200D01*
X91757618Y-80163200D02*
X91795714Y-80115580D01*
X91795714Y-80115580D02*
X91795714Y-79782247D01*
X91795714Y-79782247D02*
X91643333Y-79782247D01*
X92557618Y-80210819D02*
X92100475Y-80210819D01*
X92329047Y-80210819D02*
X92329047Y-79210819D01*
X92329047Y-79210819D02*
X92252856Y-79353676D01*
X92252856Y-79353676D02*
X92176666Y-79448914D01*
X92176666Y-79448914D02*
X92100475Y-79496533D01*
X92862380Y-79306057D02*
X92900476Y-79258438D01*
X92900476Y-79258438D02*
X92976666Y-79210819D01*
X92976666Y-79210819D02*
X93167142Y-79210819D01*
X93167142Y-79210819D02*
X93243333Y-79258438D01*
X93243333Y-79258438D02*
X93281428Y-79306057D01*
X93281428Y-79306057D02*
X93319523Y-79401295D01*
X93319523Y-79401295D02*
X93319523Y-79496533D01*
X93319523Y-79496533D02*
X93281428Y-79639390D01*
X93281428Y-79639390D02*
X92824285Y-80210819D01*
X92824285Y-80210819D02*
X93319523Y-80210819D01*
X94081428Y-80210819D02*
X93624285Y-80210819D01*
X93852857Y-80210819D02*
X93852857Y-79210819D01*
X93852857Y-79210819D02*
X93776666Y-79353676D01*
X93776666Y-79353676D02*
X93700476Y-79448914D01*
X93700476Y-79448914D02*
X93624285Y-79496533D01*
X94538571Y-79639390D02*
X94462381Y-79591771D01*
X94462381Y-79591771D02*
X94424286Y-79544152D01*
X94424286Y-79544152D02*
X94386190Y-79448914D01*
X94386190Y-79448914D02*
X94386190Y-79401295D01*
X94386190Y-79401295D02*
X94424286Y-79306057D01*
X94424286Y-79306057D02*
X94462381Y-79258438D01*
X94462381Y-79258438D02*
X94538571Y-79210819D01*
X94538571Y-79210819D02*
X94690952Y-79210819D01*
X94690952Y-79210819D02*
X94767143Y-79258438D01*
X94767143Y-79258438D02*
X94805238Y-79306057D01*
X94805238Y-79306057D02*
X94843333Y-79401295D01*
X94843333Y-79401295D02*
X94843333Y-79448914D01*
X94843333Y-79448914D02*
X94805238Y-79544152D01*
X94805238Y-79544152D02*
X94767143Y-79591771D01*
X94767143Y-79591771D02*
X94690952Y-79639390D01*
X94690952Y-79639390D02*
X94538571Y-79639390D01*
X94538571Y-79639390D02*
X94462381Y-79687009D01*
X94462381Y-79687009D02*
X94424286Y-79734628D01*
X94424286Y-79734628D02*
X94386190Y-79829866D01*
X94386190Y-79829866D02*
X94386190Y-80020342D01*
X94386190Y-80020342D02*
X94424286Y-80115580D01*
X94424286Y-80115580D02*
X94462381Y-80163200D01*
X94462381Y-80163200D02*
X94538571Y-80210819D01*
X94538571Y-80210819D02*
X94690952Y-80210819D01*
X94690952Y-80210819D02*
X94767143Y-80163200D01*
X94767143Y-80163200D02*
X94805238Y-80115580D01*
X94805238Y-80115580D02*
X94843333Y-80020342D01*
X94843333Y-80020342D02*
X94843333Y-79829866D01*
X94843333Y-79829866D02*
X94805238Y-79734628D01*
X94805238Y-79734628D02*
X94767143Y-79687009D01*
X94767143Y-79687009D02*
X94690952Y-79639390D01*
X95083333Y-110690819D02*
X94750000Y-110214628D01*
X94511905Y-110690819D02*
X94511905Y-109690819D01*
X94511905Y-109690819D02*
X94892857Y-109690819D01*
X94892857Y-109690819D02*
X94988095Y-109738438D01*
X94988095Y-109738438D02*
X95035714Y-109786057D01*
X95035714Y-109786057D02*
X95083333Y-109881295D01*
X95083333Y-109881295D02*
X95083333Y-110024152D01*
X95083333Y-110024152D02*
X95035714Y-110119390D01*
X95035714Y-110119390D02*
X94988095Y-110167009D01*
X94988095Y-110167009D02*
X94892857Y-110214628D01*
X94892857Y-110214628D02*
X94511905Y-110214628D01*
X95416667Y-109690819D02*
X96035714Y-109690819D01*
X96035714Y-109690819D02*
X95702381Y-110071771D01*
X95702381Y-110071771D02*
X95845238Y-110071771D01*
X95845238Y-110071771D02*
X95940476Y-110119390D01*
X95940476Y-110119390D02*
X95988095Y-110167009D01*
X95988095Y-110167009D02*
X96035714Y-110262247D01*
X96035714Y-110262247D02*
X96035714Y-110500342D01*
X96035714Y-110500342D02*
X95988095Y-110595580D01*
X95988095Y-110595580D02*
X95940476Y-110643200D01*
X95940476Y-110643200D02*
X95845238Y-110690819D01*
X95845238Y-110690819D02*
X95559524Y-110690819D01*
X95559524Y-110690819D02*
X95464286Y-110643200D01*
X95464286Y-110643200D02*
X95416667Y-110595580D01*
X94517714Y-113134819D02*
X94041524Y-113134819D01*
X94041524Y-113134819D02*
X93993905Y-113611009D01*
X93993905Y-113611009D02*
X94041524Y-113563390D01*
X94041524Y-113563390D02*
X94136762Y-113515771D01*
X94136762Y-113515771D02*
X94374857Y-113515771D01*
X94374857Y-113515771D02*
X94470095Y-113563390D01*
X94470095Y-113563390D02*
X94517714Y-113611009D01*
X94517714Y-113611009D02*
X94565333Y-113706247D01*
X94565333Y-113706247D02*
X94565333Y-113944342D01*
X94565333Y-113944342D02*
X94517714Y-114039580D01*
X94517714Y-114039580D02*
X94470095Y-114087200D01*
X94470095Y-114087200D02*
X94374857Y-114134819D01*
X94374857Y-114134819D02*
X94136762Y-114134819D01*
X94136762Y-114134819D02*
X94041524Y-114087200D01*
X94041524Y-114087200D02*
X93993905Y-114039580D01*
X95422476Y-113134819D02*
X95232000Y-113134819D01*
X95232000Y-113134819D02*
X95136762Y-113182438D01*
X95136762Y-113182438D02*
X95089143Y-113230057D01*
X95089143Y-113230057D02*
X94993905Y-113372914D01*
X94993905Y-113372914D02*
X94946286Y-113563390D01*
X94946286Y-113563390D02*
X94946286Y-113944342D01*
X94946286Y-113944342D02*
X94993905Y-114039580D01*
X94993905Y-114039580D02*
X95041524Y-114087200D01*
X95041524Y-114087200D02*
X95136762Y-114134819D01*
X95136762Y-114134819D02*
X95327238Y-114134819D01*
X95327238Y-114134819D02*
X95422476Y-114087200D01*
X95422476Y-114087200D02*
X95470095Y-114039580D01*
X95470095Y-114039580D02*
X95517714Y-113944342D01*
X95517714Y-113944342D02*
X95517714Y-113706247D01*
X95517714Y-113706247D02*
X95470095Y-113611009D01*
X95470095Y-113611009D02*
X95422476Y-113563390D01*
X95422476Y-113563390D02*
X95327238Y-113515771D01*
X95327238Y-113515771D02*
X95136762Y-113515771D01*
X95136762Y-113515771D02*
X95041524Y-113563390D01*
X95041524Y-113563390D02*
X94993905Y-113611009D01*
X94993905Y-113611009D02*
X94946286Y-113706247D01*
X96136762Y-113134819D02*
X96232000Y-113134819D01*
X96232000Y-113134819D02*
X96327238Y-113182438D01*
X96327238Y-113182438D02*
X96374857Y-113230057D01*
X96374857Y-113230057D02*
X96422476Y-113325295D01*
X96422476Y-113325295D02*
X96470095Y-113515771D01*
X96470095Y-113515771D02*
X96470095Y-113753866D01*
X96470095Y-113753866D02*
X96422476Y-113944342D01*
X96422476Y-113944342D02*
X96374857Y-114039580D01*
X96374857Y-114039580D02*
X96327238Y-114087200D01*
X96327238Y-114087200D02*
X96232000Y-114134819D01*
X96232000Y-114134819D02*
X96136762Y-114134819D01*
X96136762Y-114134819D02*
X96041524Y-114087200D01*
X96041524Y-114087200D02*
X95993905Y-114039580D01*
X95993905Y-114039580D02*
X95946286Y-113944342D01*
X95946286Y-113944342D02*
X95898667Y-113753866D01*
X95898667Y-113753866D02*
X95898667Y-113515771D01*
X95898667Y-113515771D02*
X95946286Y-113325295D01*
X95946286Y-113325295D02*
X95993905Y-113230057D01*
X95993905Y-113230057D02*
X96041524Y-113182438D01*
X96041524Y-113182438D02*
X96136762Y-113134819D01*
X95083333Y-109166819D02*
X94750000Y-108690628D01*
X94511905Y-109166819D02*
X94511905Y-108166819D01*
X94511905Y-108166819D02*
X94892857Y-108166819D01*
X94892857Y-108166819D02*
X94988095Y-108214438D01*
X94988095Y-108214438D02*
X95035714Y-108262057D01*
X95035714Y-108262057D02*
X95083333Y-108357295D01*
X95083333Y-108357295D02*
X95083333Y-108500152D01*
X95083333Y-108500152D02*
X95035714Y-108595390D01*
X95035714Y-108595390D02*
X94988095Y-108643009D01*
X94988095Y-108643009D02*
X94892857Y-108690628D01*
X94892857Y-108690628D02*
X94511905Y-108690628D01*
X95464286Y-108262057D02*
X95511905Y-108214438D01*
X95511905Y-108214438D02*
X95607143Y-108166819D01*
X95607143Y-108166819D02*
X95845238Y-108166819D01*
X95845238Y-108166819D02*
X95940476Y-108214438D01*
X95940476Y-108214438D02*
X95988095Y-108262057D01*
X95988095Y-108262057D02*
X96035714Y-108357295D01*
X96035714Y-108357295D02*
X96035714Y-108452533D01*
X96035714Y-108452533D02*
X95988095Y-108595390D01*
X95988095Y-108595390D02*
X95416667Y-109166819D01*
X95416667Y-109166819D02*
X96035714Y-109166819D01*
X93964286Y-104610819D02*
X94583333Y-104610819D01*
X94583333Y-104610819D02*
X94250000Y-104991771D01*
X94250000Y-104991771D02*
X94392857Y-104991771D01*
X94392857Y-104991771D02*
X94488095Y-105039390D01*
X94488095Y-105039390D02*
X94535714Y-105087009D01*
X94535714Y-105087009D02*
X94583333Y-105182247D01*
X94583333Y-105182247D02*
X94583333Y-105420342D01*
X94583333Y-105420342D02*
X94535714Y-105515580D01*
X94535714Y-105515580D02*
X94488095Y-105563200D01*
X94488095Y-105563200D02*
X94392857Y-105610819D01*
X94392857Y-105610819D02*
X94107143Y-105610819D01*
X94107143Y-105610819D02*
X94011905Y-105563200D01*
X94011905Y-105563200D02*
X93964286Y-105515580D01*
X94916667Y-104610819D02*
X95535714Y-104610819D01*
X95535714Y-104610819D02*
X95202381Y-104991771D01*
X95202381Y-104991771D02*
X95345238Y-104991771D01*
X95345238Y-104991771D02*
X95440476Y-105039390D01*
X95440476Y-105039390D02*
X95488095Y-105087009D01*
X95488095Y-105087009D02*
X95535714Y-105182247D01*
X95535714Y-105182247D02*
X95535714Y-105420342D01*
X95535714Y-105420342D02*
X95488095Y-105515580D01*
X95488095Y-105515580D02*
X95440476Y-105563200D01*
X95440476Y-105563200D02*
X95345238Y-105610819D01*
X95345238Y-105610819D02*
X95059524Y-105610819D01*
X95059524Y-105610819D02*
X94964286Y-105563200D01*
X94964286Y-105563200D02*
X94916667Y-105515580D01*
X96154762Y-104610819D02*
X96250000Y-104610819D01*
X96250000Y-104610819D02*
X96345238Y-104658438D01*
X96345238Y-104658438D02*
X96392857Y-104706057D01*
X96392857Y-104706057D02*
X96440476Y-104801295D01*
X96440476Y-104801295D02*
X96488095Y-104991771D01*
X96488095Y-104991771D02*
X96488095Y-105229866D01*
X96488095Y-105229866D02*
X96440476Y-105420342D01*
X96440476Y-105420342D02*
X96392857Y-105515580D01*
X96392857Y-105515580D02*
X96345238Y-105563200D01*
X96345238Y-105563200D02*
X96250000Y-105610819D01*
X96250000Y-105610819D02*
X96154762Y-105610819D01*
X96154762Y-105610819D02*
X96059524Y-105563200D01*
X96059524Y-105563200D02*
X96011905Y-105515580D01*
X96011905Y-105515580D02*
X95964286Y-105420342D01*
X95964286Y-105420342D02*
X95916667Y-105229866D01*
X95916667Y-105229866D02*
X95916667Y-104991771D01*
X95916667Y-104991771D02*
X95964286Y-104801295D01*
X95964286Y-104801295D02*
X96011905Y-104706057D01*
X96011905Y-104706057D02*
X96059524Y-104658438D01*
X96059524Y-104658438D02*
X96154762Y-104610819D01*
X94575333Y-88958819D02*
X94242000Y-88482628D01*
X94003905Y-88958819D02*
X94003905Y-87958819D01*
X94003905Y-87958819D02*
X94384857Y-87958819D01*
X94384857Y-87958819D02*
X94480095Y-88006438D01*
X94480095Y-88006438D02*
X94527714Y-88054057D01*
X94527714Y-88054057D02*
X94575333Y-88149295D01*
X94575333Y-88149295D02*
X94575333Y-88292152D01*
X94575333Y-88292152D02*
X94527714Y-88387390D01*
X94527714Y-88387390D02*
X94480095Y-88435009D01*
X94480095Y-88435009D02*
X94384857Y-88482628D01*
X94384857Y-88482628D02*
X94003905Y-88482628D01*
X95527714Y-88958819D02*
X94956286Y-88958819D01*
X95242000Y-88958819D02*
X95242000Y-87958819D01*
X95242000Y-87958819D02*
X95146762Y-88101676D01*
X95146762Y-88101676D02*
X95051524Y-88196914D01*
X95051524Y-88196914D02*
X94956286Y-88244533D01*
X93456286Y-91798819D02*
X94075333Y-91798819D01*
X94075333Y-91798819D02*
X93742000Y-92179771D01*
X93742000Y-92179771D02*
X93884857Y-92179771D01*
X93884857Y-92179771D02*
X93980095Y-92227390D01*
X93980095Y-92227390D02*
X94027714Y-92275009D01*
X94027714Y-92275009D02*
X94075333Y-92370247D01*
X94075333Y-92370247D02*
X94075333Y-92608342D01*
X94075333Y-92608342D02*
X94027714Y-92703580D01*
X94027714Y-92703580D02*
X93980095Y-92751200D01*
X93980095Y-92751200D02*
X93884857Y-92798819D01*
X93884857Y-92798819D02*
X93599143Y-92798819D01*
X93599143Y-92798819D02*
X93503905Y-92751200D01*
X93503905Y-92751200D02*
X93456286Y-92703580D01*
X94408667Y-91798819D02*
X95027714Y-91798819D01*
X95027714Y-91798819D02*
X94694381Y-92179771D01*
X94694381Y-92179771D02*
X94837238Y-92179771D01*
X94837238Y-92179771D02*
X94932476Y-92227390D01*
X94932476Y-92227390D02*
X94980095Y-92275009D01*
X94980095Y-92275009D02*
X95027714Y-92370247D01*
X95027714Y-92370247D02*
X95027714Y-92608342D01*
X95027714Y-92608342D02*
X94980095Y-92703580D01*
X94980095Y-92703580D02*
X94932476Y-92751200D01*
X94932476Y-92751200D02*
X94837238Y-92798819D01*
X94837238Y-92798819D02*
X94551524Y-92798819D01*
X94551524Y-92798819D02*
X94456286Y-92751200D01*
X94456286Y-92751200D02*
X94408667Y-92703580D01*
X95646762Y-91798819D02*
X95742000Y-91798819D01*
X95742000Y-91798819D02*
X95837238Y-91846438D01*
X95837238Y-91846438D02*
X95884857Y-91894057D01*
X95884857Y-91894057D02*
X95932476Y-91989295D01*
X95932476Y-91989295D02*
X95980095Y-92179771D01*
X95980095Y-92179771D02*
X95980095Y-92417866D01*
X95980095Y-92417866D02*
X95932476Y-92608342D01*
X95932476Y-92608342D02*
X95884857Y-92703580D01*
X95884857Y-92703580D02*
X95837238Y-92751200D01*
X95837238Y-92751200D02*
X95742000Y-92798819D01*
X95742000Y-92798819D02*
X95646762Y-92798819D01*
X95646762Y-92798819D02*
X95551524Y-92751200D01*
X95551524Y-92751200D02*
X95503905Y-92703580D01*
X95503905Y-92703580D02*
X95456286Y-92608342D01*
X95456286Y-92608342D02*
X95408667Y-92417866D01*
X95408667Y-92417866D02*
X95408667Y-92179771D01*
X95408667Y-92179771D02*
X95456286Y-91989295D01*
X95456286Y-91989295D02*
X95503905Y-91894057D01*
X95503905Y-91894057D02*
X95551524Y-91846438D01*
X95551524Y-91846438D02*
X95646762Y-91798819D01*
X87042666Y-123853819D02*
X87042666Y-124568104D01*
X87042666Y-124568104D02*
X86995047Y-124710961D01*
X86995047Y-124710961D02*
X86899809Y-124806200D01*
X86899809Y-124806200D02*
X86756952Y-124853819D01*
X86756952Y-124853819D02*
X86661714Y-124853819D01*
X87423619Y-123853819D02*
X88090285Y-123853819D01*
X88090285Y-123853819D02*
X87661714Y-124853819D01*
X94408666Y-119850819D02*
X94408666Y-120565104D01*
X94408666Y-120565104D02*
X94361047Y-120707961D01*
X94361047Y-120707961D02*
X94265809Y-120803200D01*
X94265809Y-120803200D02*
X94122952Y-120850819D01*
X94122952Y-120850819D02*
X94027714Y-120850819D01*
X95313428Y-119850819D02*
X95122952Y-119850819D01*
X95122952Y-119850819D02*
X95027714Y-119898438D01*
X95027714Y-119898438D02*
X94980095Y-119946057D01*
X94980095Y-119946057D02*
X94884857Y-120088914D01*
X94884857Y-120088914D02*
X94837238Y-120279390D01*
X94837238Y-120279390D02*
X94837238Y-120660342D01*
X94837238Y-120660342D02*
X94884857Y-120755580D01*
X94884857Y-120755580D02*
X94932476Y-120803200D01*
X94932476Y-120803200D02*
X95027714Y-120850819D01*
X95027714Y-120850819D02*
X95218190Y-120850819D01*
X95218190Y-120850819D02*
X95313428Y-120803200D01*
X95313428Y-120803200D02*
X95361047Y-120755580D01*
X95361047Y-120755580D02*
X95408666Y-120660342D01*
X95408666Y-120660342D02*
X95408666Y-120422247D01*
X95408666Y-120422247D02*
X95361047Y-120327009D01*
X95361047Y-120327009D02*
X95313428Y-120279390D01*
X95313428Y-120279390D02*
X95218190Y-120231771D01*
X95218190Y-120231771D02*
X95027714Y-120231771D01*
X95027714Y-120231771D02*
X94932476Y-120279390D01*
X94932476Y-120279390D02*
X94884857Y-120327009D01*
X94884857Y-120327009D02*
X94837238Y-120422247D01*
X81798666Y-105339319D02*
X81798666Y-106053604D01*
X81798666Y-106053604D02*
X81751047Y-106196461D01*
X81751047Y-106196461D02*
X81655809Y-106291700D01*
X81655809Y-106291700D02*
X81512952Y-106339319D01*
X81512952Y-106339319D02*
X81417714Y-106339319D01*
X82751047Y-105339319D02*
X82274857Y-105339319D01*
X82274857Y-105339319D02*
X82227238Y-105815509D01*
X82227238Y-105815509D02*
X82274857Y-105767890D01*
X82274857Y-105767890D02*
X82370095Y-105720271D01*
X82370095Y-105720271D02*
X82608190Y-105720271D01*
X82608190Y-105720271D02*
X82703428Y-105767890D01*
X82703428Y-105767890D02*
X82751047Y-105815509D01*
X82751047Y-105815509D02*
X82798666Y-105910747D01*
X82798666Y-105910747D02*
X82798666Y-106148842D01*
X82798666Y-106148842D02*
X82751047Y-106244080D01*
X82751047Y-106244080D02*
X82703428Y-106291700D01*
X82703428Y-106291700D02*
X82608190Y-106339319D01*
X82608190Y-106339319D02*
X82370095Y-106339319D01*
X82370095Y-106339319D02*
X82274857Y-106291700D01*
X82274857Y-106291700D02*
X82227238Y-106244080D01*
X79162951Y-94565509D02*
X79277237Y-94613128D01*
X79277237Y-94613128D02*
X79315332Y-94660747D01*
X79315332Y-94660747D02*
X79353428Y-94755985D01*
X79353428Y-94755985D02*
X79353428Y-94898842D01*
X79353428Y-94898842D02*
X79315332Y-94994080D01*
X79315332Y-94994080D02*
X79277237Y-95041700D01*
X79277237Y-95041700D02*
X79201047Y-95089319D01*
X79201047Y-95089319D02*
X78896285Y-95089319D01*
X78896285Y-95089319D02*
X78896285Y-94089319D01*
X78896285Y-94089319D02*
X79162951Y-94089319D01*
X79162951Y-94089319D02*
X79239142Y-94136938D01*
X79239142Y-94136938D02*
X79277237Y-94184557D01*
X79277237Y-94184557D02*
X79315332Y-94279795D01*
X79315332Y-94279795D02*
X79315332Y-94375033D01*
X79315332Y-94375033D02*
X79277237Y-94470271D01*
X79277237Y-94470271D02*
X79239142Y-94517890D01*
X79239142Y-94517890D02*
X79162951Y-94565509D01*
X79162951Y-94565509D02*
X78896285Y-94565509D01*
X80039142Y-95089319D02*
X80039142Y-94565509D01*
X80039142Y-94565509D02*
X80001047Y-94470271D01*
X80001047Y-94470271D02*
X79924856Y-94422652D01*
X79924856Y-94422652D02*
X79772475Y-94422652D01*
X79772475Y-94422652D02*
X79696285Y-94470271D01*
X80039142Y-95041700D02*
X79962951Y-95089319D01*
X79962951Y-95089319D02*
X79772475Y-95089319D01*
X79772475Y-95089319D02*
X79696285Y-95041700D01*
X79696285Y-95041700D02*
X79658189Y-94946461D01*
X79658189Y-94946461D02*
X79658189Y-94851223D01*
X79658189Y-94851223D02*
X79696285Y-94755985D01*
X79696285Y-94755985D02*
X79772475Y-94708366D01*
X79772475Y-94708366D02*
X79962951Y-94708366D01*
X79962951Y-94708366D02*
X80039142Y-94660747D01*
X80420095Y-95089319D02*
X80420095Y-94422652D01*
X80420095Y-94613128D02*
X80458190Y-94517890D01*
X80458190Y-94517890D02*
X80496285Y-94470271D01*
X80496285Y-94470271D02*
X80572476Y-94422652D01*
X80572476Y-94422652D02*
X80648666Y-94422652D01*
X80915333Y-95089319D02*
X80915333Y-94422652D01*
X80915333Y-94613128D02*
X80953428Y-94517890D01*
X80953428Y-94517890D02*
X80991523Y-94470271D01*
X80991523Y-94470271D02*
X81067714Y-94422652D01*
X81067714Y-94422652D02*
X81143904Y-94422652D01*
X81715333Y-95041700D02*
X81639142Y-95089319D01*
X81639142Y-95089319D02*
X81486761Y-95089319D01*
X81486761Y-95089319D02*
X81410571Y-95041700D01*
X81410571Y-95041700D02*
X81372475Y-94946461D01*
X81372475Y-94946461D02*
X81372475Y-94565509D01*
X81372475Y-94565509D02*
X81410571Y-94470271D01*
X81410571Y-94470271D02*
X81486761Y-94422652D01*
X81486761Y-94422652D02*
X81639142Y-94422652D01*
X81639142Y-94422652D02*
X81715333Y-94470271D01*
X81715333Y-94470271D02*
X81753428Y-94565509D01*
X81753428Y-94565509D02*
X81753428Y-94660747D01*
X81753428Y-94660747D02*
X81372475Y-94755985D01*
X82210570Y-95089319D02*
X82134380Y-95041700D01*
X82134380Y-95041700D02*
X82096285Y-94946461D01*
X82096285Y-94946461D02*
X82096285Y-94089319D01*
X82324857Y-95184557D02*
X82934380Y-95184557D01*
X83353428Y-94089319D02*
X83353428Y-94803604D01*
X83353428Y-94803604D02*
X83315333Y-94946461D01*
X83315333Y-94946461D02*
X83239142Y-95041700D01*
X83239142Y-95041700D02*
X83124857Y-95089319D01*
X83124857Y-95089319D02*
X83048666Y-95089319D01*
X84077238Y-95089319D02*
X84077238Y-94565509D01*
X84077238Y-94565509D02*
X84039143Y-94470271D01*
X84039143Y-94470271D02*
X83962952Y-94422652D01*
X83962952Y-94422652D02*
X83810571Y-94422652D01*
X83810571Y-94422652D02*
X83734381Y-94470271D01*
X84077238Y-95041700D02*
X84001047Y-95089319D01*
X84001047Y-95089319D02*
X83810571Y-95089319D01*
X83810571Y-95089319D02*
X83734381Y-95041700D01*
X83734381Y-95041700D02*
X83696285Y-94946461D01*
X83696285Y-94946461D02*
X83696285Y-94851223D01*
X83696285Y-94851223D02*
X83734381Y-94755985D01*
X83734381Y-94755985D02*
X83810571Y-94708366D01*
X83810571Y-94708366D02*
X84001047Y-94708366D01*
X84001047Y-94708366D02*
X84077238Y-94660747D01*
X84801048Y-95041700D02*
X84724857Y-95089319D01*
X84724857Y-95089319D02*
X84572476Y-95089319D01*
X84572476Y-95089319D02*
X84496286Y-95041700D01*
X84496286Y-95041700D02*
X84458191Y-94994080D01*
X84458191Y-94994080D02*
X84420095Y-94898842D01*
X84420095Y-94898842D02*
X84420095Y-94613128D01*
X84420095Y-94613128D02*
X84458191Y-94517890D01*
X84458191Y-94517890D02*
X84496286Y-94470271D01*
X84496286Y-94470271D02*
X84572476Y-94422652D01*
X84572476Y-94422652D02*
X84724857Y-94422652D01*
X84724857Y-94422652D02*
X84801048Y-94470271D01*
X85143905Y-95089319D02*
X85143905Y-94089319D01*
X85220095Y-94708366D02*
X85448667Y-95089319D01*
X85448667Y-94422652D02*
X85143905Y-94803604D01*
X85601048Y-95184557D02*
X86210571Y-95184557D01*
X86362952Y-95041700D02*
X86477238Y-95089319D01*
X86477238Y-95089319D02*
X86667714Y-95089319D01*
X86667714Y-95089319D02*
X86743905Y-95041700D01*
X86743905Y-95041700D02*
X86782000Y-94994080D01*
X86782000Y-94994080D02*
X86820095Y-94898842D01*
X86820095Y-94898842D02*
X86820095Y-94803604D01*
X86820095Y-94803604D02*
X86782000Y-94708366D01*
X86782000Y-94708366D02*
X86743905Y-94660747D01*
X86743905Y-94660747D02*
X86667714Y-94613128D01*
X86667714Y-94613128D02*
X86515333Y-94565509D01*
X86515333Y-94565509D02*
X86439143Y-94517890D01*
X86439143Y-94517890D02*
X86401048Y-94470271D01*
X86401048Y-94470271D02*
X86362952Y-94375033D01*
X86362952Y-94375033D02*
X86362952Y-94279795D01*
X86362952Y-94279795D02*
X86401048Y-94184557D01*
X86401048Y-94184557D02*
X86439143Y-94136938D01*
X86439143Y-94136938D02*
X86515333Y-94089319D01*
X86515333Y-94089319D02*
X86705810Y-94089319D01*
X86705810Y-94089319D02*
X86820095Y-94136938D01*
X87086762Y-94422652D02*
X87239143Y-95089319D01*
X87239143Y-95089319D02*
X87391524Y-94613128D01*
X87391524Y-94613128D02*
X87543905Y-95089319D01*
X87543905Y-95089319D02*
X87696286Y-94422652D01*
X88001048Y-95089319D02*
X88001048Y-94422652D01*
X88001048Y-94089319D02*
X87962952Y-94136938D01*
X87962952Y-94136938D02*
X88001048Y-94184557D01*
X88001048Y-94184557D02*
X88039143Y-94136938D01*
X88039143Y-94136938D02*
X88001048Y-94089319D01*
X88001048Y-94089319D02*
X88001048Y-94184557D01*
X88267714Y-94422652D02*
X88572476Y-94422652D01*
X88382000Y-94089319D02*
X88382000Y-94946461D01*
X88382000Y-94946461D02*
X88420095Y-95041700D01*
X88420095Y-95041700D02*
X88496285Y-95089319D01*
X88496285Y-95089319D02*
X88572476Y-95089319D01*
X89182000Y-95041700D02*
X89105809Y-95089319D01*
X89105809Y-95089319D02*
X88953428Y-95089319D01*
X88953428Y-95089319D02*
X88877238Y-95041700D01*
X88877238Y-95041700D02*
X88839143Y-94994080D01*
X88839143Y-94994080D02*
X88801047Y-94898842D01*
X88801047Y-94898842D02*
X88801047Y-94613128D01*
X88801047Y-94613128D02*
X88839143Y-94517890D01*
X88839143Y-94517890D02*
X88877238Y-94470271D01*
X88877238Y-94470271D02*
X88953428Y-94422652D01*
X88953428Y-94422652D02*
X89105809Y-94422652D01*
X89105809Y-94422652D02*
X89182000Y-94470271D01*
X89524857Y-95089319D02*
X89524857Y-94089319D01*
X89867714Y-95089319D02*
X89867714Y-94565509D01*
X89867714Y-94565509D02*
X89829619Y-94470271D01*
X89829619Y-94470271D02*
X89753428Y-94422652D01*
X89753428Y-94422652D02*
X89639142Y-94422652D01*
X89639142Y-94422652D02*
X89562952Y-94470271D01*
X89562952Y-94470271D02*
X89524857Y-94517890D01*
X86534666Y-69304819D02*
X86534666Y-70019104D01*
X86534666Y-70019104D02*
X86487047Y-70161961D01*
X86487047Y-70161961D02*
X86391809Y-70257200D01*
X86391809Y-70257200D02*
X86248952Y-70304819D01*
X86248952Y-70304819D02*
X86153714Y-70304819D01*
X86915619Y-69304819D02*
X87534666Y-69304819D01*
X87534666Y-69304819D02*
X87201333Y-69685771D01*
X87201333Y-69685771D02*
X87344190Y-69685771D01*
X87344190Y-69685771D02*
X87439428Y-69733390D01*
X87439428Y-69733390D02*
X87487047Y-69781009D01*
X87487047Y-69781009D02*
X87534666Y-69876247D01*
X87534666Y-69876247D02*
X87534666Y-70114342D01*
X87534666Y-70114342D02*
X87487047Y-70209580D01*
X87487047Y-70209580D02*
X87439428Y-70257200D01*
X87439428Y-70257200D02*
X87344190Y-70304819D01*
X87344190Y-70304819D02*
X87058476Y-70304819D01*
X87058476Y-70304819D02*
X86963238Y-70257200D01*
X86963238Y-70257200D02*
X86915619Y-70209580D01*
X96212819Y-99798094D02*
X95212819Y-99798094D01*
X95212819Y-99798094D02*
X95212819Y-99559999D01*
X95212819Y-99559999D02*
X95260438Y-99417142D01*
X95260438Y-99417142D02*
X95355676Y-99321904D01*
X95355676Y-99321904D02*
X95450914Y-99274285D01*
X95450914Y-99274285D02*
X95641390Y-99226666D01*
X95641390Y-99226666D02*
X95784247Y-99226666D01*
X95784247Y-99226666D02*
X95974723Y-99274285D01*
X95974723Y-99274285D02*
X96069961Y-99321904D01*
X96069961Y-99321904D02*
X96165200Y-99417142D01*
X96165200Y-99417142D02*
X96212819Y-99559999D01*
X96212819Y-99559999D02*
X96212819Y-99798094D01*
X96212819Y-98274285D02*
X96212819Y-98845713D01*
X96212819Y-98559999D02*
X95212819Y-98559999D01*
X95212819Y-98559999D02*
X95355676Y-98655237D01*
X95355676Y-98655237D02*
X95450914Y-98750475D01*
X95450914Y-98750475D02*
X95498533Y-98845713D01*
X96005714Y-94180819D02*
X95624762Y-94180819D01*
X95624762Y-94180819D02*
X95624762Y-93180819D01*
X96272381Y-93657009D02*
X96539047Y-93657009D01*
X96653333Y-94180819D02*
X96272381Y-94180819D01*
X96272381Y-94180819D02*
X96272381Y-93180819D01*
X96272381Y-93180819D02*
X96653333Y-93180819D01*
X96996191Y-94180819D02*
X96996191Y-93180819D01*
X96996191Y-93180819D02*
X97186667Y-93180819D01*
X97186667Y-93180819D02*
X97300953Y-93228438D01*
X97300953Y-93228438D02*
X97377143Y-93323676D01*
X97377143Y-93323676D02*
X97415238Y-93418914D01*
X97415238Y-93418914D02*
X97453334Y-93609390D01*
X97453334Y-93609390D02*
X97453334Y-93752247D01*
X97453334Y-93752247D02*
X97415238Y-93942723D01*
X97415238Y-93942723D02*
X97377143Y-94037961D01*
X97377143Y-94037961D02*
X97300953Y-94133200D01*
X97300953Y-94133200D02*
X97186667Y-94180819D01*
X97186667Y-94180819D02*
X96996191Y-94180819D01*
X78319333Y-118977580D02*
X78271714Y-119025200D01*
X78271714Y-119025200D02*
X78128857Y-119072819D01*
X78128857Y-119072819D02*
X78033619Y-119072819D01*
X78033619Y-119072819D02*
X77890762Y-119025200D01*
X77890762Y-119025200D02*
X77795524Y-118929961D01*
X77795524Y-118929961D02*
X77747905Y-118834723D01*
X77747905Y-118834723D02*
X77700286Y-118644247D01*
X77700286Y-118644247D02*
X77700286Y-118501390D01*
X77700286Y-118501390D02*
X77747905Y-118310914D01*
X77747905Y-118310914D02*
X77795524Y-118215676D01*
X77795524Y-118215676D02*
X77890762Y-118120438D01*
X77890762Y-118120438D02*
X78033619Y-118072819D01*
X78033619Y-118072819D02*
X78128857Y-118072819D01*
X78128857Y-118072819D02*
X78271714Y-118120438D01*
X78271714Y-118120438D02*
X78319333Y-118168057D01*
X78652667Y-118072819D02*
X79271714Y-118072819D01*
X79271714Y-118072819D02*
X78938381Y-118453771D01*
X78938381Y-118453771D02*
X79081238Y-118453771D01*
X79081238Y-118453771D02*
X79176476Y-118501390D01*
X79176476Y-118501390D02*
X79224095Y-118549009D01*
X79224095Y-118549009D02*
X79271714Y-118644247D01*
X79271714Y-118644247D02*
X79271714Y-118882342D01*
X79271714Y-118882342D02*
X79224095Y-118977580D01*
X79224095Y-118977580D02*
X79176476Y-119025200D01*
X79176476Y-119025200D02*
X79081238Y-119072819D01*
X79081238Y-119072819D02*
X78795524Y-119072819D01*
X78795524Y-119072819D02*
X78700286Y-119025200D01*
X78700286Y-119025200D02*
X78652667Y-118977580D01*
X85177333Y-119326819D02*
X84605905Y-119326819D01*
X84891619Y-119326819D02*
X84891619Y-118326819D01*
X84891619Y-118326819D02*
X84796381Y-118469676D01*
X84796381Y-118469676D02*
X84701143Y-118564914D01*
X84701143Y-118564914D02*
X84605905Y-118612533D01*
X86034476Y-118660152D02*
X86034476Y-119326819D01*
X85605905Y-118660152D02*
X85605905Y-119183961D01*
X85605905Y-119183961D02*
X85653524Y-119279200D01*
X85653524Y-119279200D02*
X85748762Y-119326819D01*
X85748762Y-119326819D02*
X85891619Y-119326819D01*
X85891619Y-119326819D02*
X85986857Y-119279200D01*
X85986857Y-119279200D02*
X86034476Y-119231580D01*
X81895333Y-81131580D02*
X81847714Y-81179200D01*
X81847714Y-81179200D02*
X81704857Y-81226819D01*
X81704857Y-81226819D02*
X81609619Y-81226819D01*
X81609619Y-81226819D02*
X81466762Y-81179200D01*
X81466762Y-81179200D02*
X81371524Y-81083961D01*
X81371524Y-81083961D02*
X81323905Y-80988723D01*
X81323905Y-80988723D02*
X81276286Y-80798247D01*
X81276286Y-80798247D02*
X81276286Y-80655390D01*
X81276286Y-80655390D02*
X81323905Y-80464914D01*
X81323905Y-80464914D02*
X81371524Y-80369676D01*
X81371524Y-80369676D02*
X81466762Y-80274438D01*
X81466762Y-80274438D02*
X81609619Y-80226819D01*
X81609619Y-80226819D02*
X81704857Y-80226819D01*
X81704857Y-80226819D02*
X81847714Y-80274438D01*
X81847714Y-80274438D02*
X81895333Y-80322057D01*
X82276286Y-80322057D02*
X82323905Y-80274438D01*
X82323905Y-80274438D02*
X82419143Y-80226819D01*
X82419143Y-80226819D02*
X82657238Y-80226819D01*
X82657238Y-80226819D02*
X82752476Y-80274438D01*
X82752476Y-80274438D02*
X82800095Y-80322057D01*
X82800095Y-80322057D02*
X82847714Y-80417295D01*
X82847714Y-80417295D02*
X82847714Y-80512533D01*
X82847714Y-80512533D02*
X82800095Y-80655390D01*
X82800095Y-80655390D02*
X82228667Y-81226819D01*
X82228667Y-81226819D02*
X82847714Y-81226819D01*
X81335714Y-83782819D02*
X81430952Y-83782819D01*
X81430952Y-83782819D02*
X81526190Y-83830438D01*
X81526190Y-83830438D02*
X81573809Y-83878057D01*
X81573809Y-83878057D02*
X81621428Y-83973295D01*
X81621428Y-83973295D02*
X81669047Y-84163771D01*
X81669047Y-84163771D02*
X81669047Y-84401866D01*
X81669047Y-84401866D02*
X81621428Y-84592342D01*
X81621428Y-84592342D02*
X81573809Y-84687580D01*
X81573809Y-84687580D02*
X81526190Y-84735200D01*
X81526190Y-84735200D02*
X81430952Y-84782819D01*
X81430952Y-84782819D02*
X81335714Y-84782819D01*
X81335714Y-84782819D02*
X81240476Y-84735200D01*
X81240476Y-84735200D02*
X81192857Y-84687580D01*
X81192857Y-84687580D02*
X81145238Y-84592342D01*
X81145238Y-84592342D02*
X81097619Y-84401866D01*
X81097619Y-84401866D02*
X81097619Y-84163771D01*
X81097619Y-84163771D02*
X81145238Y-83973295D01*
X81145238Y-83973295D02*
X81192857Y-83878057D01*
X81192857Y-83878057D02*
X81240476Y-83830438D01*
X81240476Y-83830438D02*
X81335714Y-83782819D01*
X82097619Y-84687580D02*
X82145238Y-84735200D01*
X82145238Y-84735200D02*
X82097619Y-84782819D01*
X82097619Y-84782819D02*
X82050000Y-84735200D01*
X82050000Y-84735200D02*
X82097619Y-84687580D01*
X82097619Y-84687580D02*
X82097619Y-84782819D01*
X83097618Y-84782819D02*
X82526190Y-84782819D01*
X82811904Y-84782819D02*
X82811904Y-83782819D01*
X82811904Y-83782819D02*
X82716666Y-83925676D01*
X82716666Y-83925676D02*
X82621428Y-84020914D01*
X82621428Y-84020914D02*
X82526190Y-84068533D01*
X83954761Y-84116152D02*
X83954761Y-84782819D01*
X83526190Y-84116152D02*
X83526190Y-84639961D01*
X83526190Y-84639961D02*
X83573809Y-84735200D01*
X83573809Y-84735200D02*
X83669047Y-84782819D01*
X83669047Y-84782819D02*
X83811904Y-84782819D01*
X83811904Y-84782819D02*
X83907142Y-84735200D01*
X83907142Y-84735200D02*
X83954761Y-84687580D01*
X81895333Y-75525580D02*
X81847714Y-75573200D01*
X81847714Y-75573200D02*
X81704857Y-75620819D01*
X81704857Y-75620819D02*
X81609619Y-75620819D01*
X81609619Y-75620819D02*
X81466762Y-75573200D01*
X81466762Y-75573200D02*
X81371524Y-75477961D01*
X81371524Y-75477961D02*
X81323905Y-75382723D01*
X81323905Y-75382723D02*
X81276286Y-75192247D01*
X81276286Y-75192247D02*
X81276286Y-75049390D01*
X81276286Y-75049390D02*
X81323905Y-74858914D01*
X81323905Y-74858914D02*
X81371524Y-74763676D01*
X81371524Y-74763676D02*
X81466762Y-74668438D01*
X81466762Y-74668438D02*
X81609619Y-74620819D01*
X81609619Y-74620819D02*
X81704857Y-74620819D01*
X81704857Y-74620819D02*
X81847714Y-74668438D01*
X81847714Y-74668438D02*
X81895333Y-74716057D01*
X82847714Y-75620819D02*
X82276286Y-75620819D01*
X82562000Y-75620819D02*
X82562000Y-74620819D01*
X82562000Y-74620819D02*
X82466762Y-74763676D01*
X82466762Y-74763676D02*
X82371524Y-74858914D01*
X82371524Y-74858914D02*
X82276286Y-74906533D01*
X81419142Y-79720819D02*
X80847714Y-79720819D01*
X81133428Y-79720819D02*
X81133428Y-78720819D01*
X81133428Y-78720819D02*
X81038190Y-78863676D01*
X81038190Y-78863676D02*
X80942952Y-78958914D01*
X80942952Y-78958914D02*
X80847714Y-79006533D01*
X82038190Y-78720819D02*
X82133428Y-78720819D01*
X82133428Y-78720819D02*
X82228666Y-78768438D01*
X82228666Y-78768438D02*
X82276285Y-78816057D01*
X82276285Y-78816057D02*
X82323904Y-78911295D01*
X82323904Y-78911295D02*
X82371523Y-79101771D01*
X82371523Y-79101771D02*
X82371523Y-79339866D01*
X82371523Y-79339866D02*
X82323904Y-79530342D01*
X82323904Y-79530342D02*
X82276285Y-79625580D01*
X82276285Y-79625580D02*
X82228666Y-79673200D01*
X82228666Y-79673200D02*
X82133428Y-79720819D01*
X82133428Y-79720819D02*
X82038190Y-79720819D01*
X82038190Y-79720819D02*
X81942952Y-79673200D01*
X81942952Y-79673200D02*
X81895333Y-79625580D01*
X81895333Y-79625580D02*
X81847714Y-79530342D01*
X81847714Y-79530342D02*
X81800095Y-79339866D01*
X81800095Y-79339866D02*
X81800095Y-79101771D01*
X81800095Y-79101771D02*
X81847714Y-78911295D01*
X81847714Y-78911295D02*
X81895333Y-78816057D01*
X81895333Y-78816057D02*
X81942952Y-78768438D01*
X81942952Y-78768438D02*
X82038190Y-78720819D01*
X83228666Y-79054152D02*
X83228666Y-79720819D01*
X82800095Y-79054152D02*
X82800095Y-79577961D01*
X82800095Y-79577961D02*
X82847714Y-79673200D01*
X82847714Y-79673200D02*
X82942952Y-79720819D01*
X82942952Y-79720819D02*
X83085809Y-79720819D01*
X83085809Y-79720819D02*
X83181047Y-79673200D01*
X83181047Y-79673200D02*
X83228666Y-79625580D01*
D12*
%TO.C,J1*%
X107552000Y-70866000D02*
X107552000Y-73516000D01*
X104792000Y-73516000D02*
X107552000Y-73516000D01*
X104792000Y-70866000D02*
X107552000Y-70866000D01*
X104792000Y-70866000D02*
X104792000Y-73516000D01*
X104792000Y-69596000D02*
X104792000Y-68216000D01*
X104792000Y-68216000D02*
X106172000Y-68216000D01*
%TO.C,J4*%
X99822000Y-75438000D02*
X99822000Y-67818000D01*
X99822000Y-74168000D02*
X89662000Y-74168000D01*
X99822000Y-67818000D02*
X89662000Y-67818000D01*
X89662000Y-75438000D02*
X99822000Y-75438000D01*
X89662000Y-67818000D02*
X89662000Y-75438000D01*
%TO.C,U2*%
X77948000Y-109770000D02*
X77948000Y-114390000D01*
X77948000Y-109770000D02*
X88168000Y-109770000D01*
X77948000Y-111150000D02*
X88168000Y-111150000D01*
X77948000Y-114390000D02*
X88168000Y-114390000D01*
X81208000Y-109770000D02*
X81208000Y-111150000D01*
X84908000Y-109770000D02*
X84908000Y-111150000D01*
X88168000Y-109770000D02*
X88168000Y-114390000D01*
%TO.C,U1*%
X87914000Y-92414000D02*
X87914000Y-87794000D01*
X87914000Y-92414000D02*
X77694000Y-92414000D01*
X87914000Y-91034000D02*
X77694000Y-91034000D01*
X87914000Y-87794000D02*
X77694000Y-87794000D01*
X84654000Y-92414000D02*
X84654000Y-91034000D01*
X80954000Y-92414000D02*
X80954000Y-91034000D01*
X77694000Y-92414000D02*
X77694000Y-87794000D01*
D13*
%TO.C,S1*%
X87458000Y-80704000D02*
X87958000Y-80704000D01*
X87458000Y-80704000D02*
X87458000Y-81204000D01*
X99358000Y-80704000D02*
X98858000Y-80704000D01*
X99358000Y-80704000D02*
X99358000Y-81204000D01*
X99358000Y-84904000D02*
X98858000Y-84904000D01*
X99358000Y-84904000D02*
X99358000Y-84404000D01*
X87458000Y-84904000D02*
X87458000Y-84404000D01*
X87458000Y-84904000D02*
X87958000Y-84904000D01*
D12*
%TO.C,R3*%
X92362000Y-111760000D02*
X93312000Y-111760000D01*
X98102000Y-111760000D02*
X97152000Y-111760000D01*
X93312000Y-110840000D02*
X97152000Y-110840000D01*
X97152000Y-112680000D01*
X93312000Y-112680000D01*
X93312000Y-110840000D01*
%TO.C,R2*%
X98120000Y-106934000D02*
X97170000Y-106934000D01*
X92380000Y-106934000D02*
X93330000Y-106934000D01*
X97170000Y-107854000D02*
X93330000Y-107854000D01*
X93330000Y-106014000D01*
X97170000Y-106014000D01*
X97170000Y-107854000D01*
%TO.C,R1*%
X91872000Y-90424000D02*
X92822000Y-90424000D01*
X97612000Y-90424000D02*
X96662000Y-90424000D01*
X92822000Y-89504000D02*
X96662000Y-89504000D01*
X96662000Y-91344000D01*
X92822000Y-91344000D01*
X92822000Y-89504000D01*
%TO.C,J7*%
X78122000Y-125779000D02*
X78122000Y-124399000D01*
X79502000Y-125779000D02*
X78122000Y-125779000D01*
X80772000Y-125779000D02*
X85962000Y-125779000D01*
X80772000Y-125779000D02*
X80772000Y-123019000D01*
X85962000Y-125779000D02*
X85962000Y-123019000D01*
X80772000Y-123019000D02*
X85962000Y-123019000D01*
%TO.C,J6*%
X89662000Y-117856000D02*
X89662000Y-125476000D01*
X89662000Y-125476000D02*
X99822000Y-125476000D01*
X99822000Y-117856000D02*
X89662000Y-117856000D01*
X99822000Y-124206000D02*
X89662000Y-124206000D01*
X99822000Y-125476000D02*
X99822000Y-117856000D01*
%TO.C,J5*%
X76782000Y-95534500D02*
X91482000Y-95534500D01*
X76782000Y-104734500D02*
X76782000Y-95534500D01*
X85582000Y-104734500D02*
X76782000Y-104734500D01*
X90632000Y-95334500D02*
X91682000Y-95334500D01*
X91482000Y-95534500D02*
X91482000Y-98134500D01*
X91482000Y-102034500D02*
X91482000Y-104734500D01*
X91482000Y-104734500D02*
X89582000Y-104734500D01*
X91682000Y-96384500D02*
X91682000Y-95334500D01*
%TO.C,J3*%
X77868000Y-71230000D02*
X77868000Y-69850000D01*
X79248000Y-71230000D02*
X77868000Y-71230000D01*
X80518000Y-71230000D02*
X85708000Y-71230000D01*
X80518000Y-71230000D02*
X80518000Y-68470000D01*
X85708000Y-71230000D02*
X85708000Y-68470000D01*
X80518000Y-68470000D02*
X85708000Y-68470000D01*
%TO.C,J2*%
X104792000Y-120286000D02*
X106172000Y-120286000D01*
X104792000Y-121666000D02*
X104792000Y-120286000D01*
X104792000Y-122936000D02*
X104792000Y-125586000D01*
X104792000Y-122936000D02*
X107552000Y-122936000D01*
X104792000Y-125586000D02*
X107552000Y-125586000D01*
X107552000Y-122936000D02*
X107552000Y-125586000D01*
%TO.C,D1*%
X98572000Y-99081000D02*
X98572000Y-95991000D01*
X98572000Y-99080830D02*
G75*
G02*
X93022000Y-97536000I-2560000J1544830D01*
G01*
X93022000Y-97536000D02*
G75*
G02*
X98572000Y-95991170I2990000J0D01*
G01*
X98512000Y-97536000D02*
G75*
G02*
X93512000Y-97536000I-2500000J0D01*
G01*
X93512000Y-97536000D02*
G75*
G02*
X98512000Y-97536000I2500000J0D01*
G01*
%TO.C,C3*%
X81297000Y-117952000D02*
X82827000Y-117952000D01*
X81297000Y-119792000D02*
X82827000Y-119792000D01*
%TO.C,C2*%
X81297000Y-81630000D02*
X82827000Y-81630000D01*
X81297000Y-83470000D02*
X82827000Y-83470000D01*
%TO.C,C1*%
X81297000Y-76296000D02*
X82827000Y-76296000D01*
X81297000Y-78136000D02*
X82827000Y-78136000D01*
%TD*%
M02*
